<svg width="525" height="392" viewBox="0 0 525 392" fill="none" xmlns="http://www.w3.org/2000/svg">
<path d="M525 343.77H0V344.033H525V343.77Z" fill="#EBEBEB"/>
<path d="M472.395 360.665H437.619V360.928H472.395V360.665Z" fill="#EBEBEB"/>
<path d="M347.781 363.521H338.656V363.783H347.781V363.521Z" fill="#EBEBEB"/>
<path d="M436.569 350.92H416.42V351.183H436.569V350.92Z" fill="#EBEBEB"/>
<path d="M100.433 352.684H55.083V352.947H100.433V352.684Z" fill="#EBEBEB"/>
<path d="M116.434 352.684H109.788V352.947H116.434V352.684Z" fill="#EBEBEB"/>
<path d="M236.407 357.116H138.043V357.379H236.407V357.116Z" fill="#EBEBEB"/>
<path d="M248.85 296.94H46.1055C44.5172 296.937 42.9949 296.304 41.8728 295.18C40.7507 294.056 40.1205 292.533 40.1205 290.945V5.943C40.1343 4.36383 40.7706 2.85388 41.8912 1.74113C43.0119 0.628381 44.5263 0.00270521 46.1055 0H248.85C250.44 0 251.965 0.631667 253.089 1.75604C254.214 2.88042 254.846 4.40539 254.846 5.9955V290.945C254.846 292.535 254.214 294.06 253.089 295.184C251.965 296.308 250.44 296.94 248.85 296.94ZM46.1055 0.210001C44.5868 0.212782 43.1313 0.818018 42.0584 1.89286C40.9856 2.96771 40.383 4.42433 40.383 5.943V290.945C40.383 292.463 40.9856 293.92 42.0584 294.995C43.1313 296.069 44.5868 296.675 46.1055 296.678H248.85C250.37 296.675 251.826 296.07 252.901 294.995C253.975 293.921 254.58 292.464 254.583 290.945V5.943C254.58 4.42337 253.975 2.96677 252.901 1.89222C251.826 0.817677 250.37 0.212776 248.85 0.210001H46.1055Z" fill="#EBEBEB"/>
<path d="M475.975 296.94H273.22C271.631 296.937 270.108 296.305 268.984 295.181C267.86 294.057 267.228 292.534 267.225 290.945V5.943C267.242 4.36287 267.88 2.85293 269.002 1.74047C270.125 0.628014 271.64 0.0026757 273.22 0H475.975C477.553 0.00546472 479.065 0.632362 480.183 1.74481C481.301 2.85727 481.936 4.36564 481.95 5.943V290.945C481.95 292.531 481.321 294.053 480.201 295.177C479.082 296.3 477.562 296.934 475.975 296.94ZM273.22 0.210001C271.701 0.212776 270.244 0.817677 269.17 1.89222C268.095 2.96677 267.49 4.42337 267.487 5.943V290.945C267.49 292.464 268.095 293.921 269.17 294.995C270.244 296.07 271.701 296.675 273.22 296.678H475.975C477.495 296.675 478.952 296.07 480.026 294.995C481.101 293.921 481.706 292.464 481.708 290.945V5.943C481.706 4.42337 481.101 2.96677 480.026 1.89222C478.952 0.817677 477.495 0.212776 475.975 0.210001H273.22Z" fill="#EBEBEB"/>
<path d="M376.961 191.635H353.546V201.6H376.961V191.635Z" fill="#FAFAFA"/>
<path d="M348.632 191.635H325.217V201.6H348.632V191.635Z" fill="#FAFAFA"/>
<path d="M320.302 191.635H296.887V201.6H320.302V191.635Z" fill="#FAFAFA"/>
<path d="M391.125 205.506H367.71V215.471H391.125V205.506Z" fill="#FAFAFA"/>
<path d="M362.796 205.506H339.381V215.471H362.796V205.506Z" fill="#FAFAFA"/>
<path d="M334.467 205.506H311.052V215.471H334.467V205.506Z" fill="#FAFAFA"/>
<path d="M306.138 205.506H282.723V215.471H306.138V205.506Z" fill="#FAFAFA"/>
<path d="M436.79 219.376H413.375V229.341H436.79V219.376Z" fill="#FAFAFA"/>
<path d="M408.461 219.376H385.046V229.341H408.461V219.376Z" fill="#FAFAFA"/>
<path d="M348.632 219.376H325.217V229.341H348.632V219.376Z" fill="#FAFAFA"/>
<path d="M320.302 219.376H296.887V229.341H320.302V219.376Z" fill="#FAFAFA"/>
<path d="M291.973 219.376H268.558V229.341H291.973V219.376Z" fill="#FAFAFA"/>
<path d="M422.625 233.237H399.21V243.201H422.625V233.237Z" fill="#FAFAFA"/>
<path d="M362.796 233.237H339.381V243.201H362.796V233.237Z" fill="#FAFAFA"/>
<path d="M334.467 233.237H311.052V243.201H334.467V233.237Z" fill="#FAFAFA"/>
<path d="M306.138 233.237H282.723V243.201H306.138V233.237Z" fill="#FAFAFA"/>
<path d="M195.626 50.3579H172.211V60.3224H195.626V50.3579Z" fill="#FAFAFA"/>
<path d="M167.297 50.3579H143.882V60.3224H167.297V50.3579Z" fill="#FAFAFA"/>
<path d="M209.79 64.229H186.375V74.1935H209.79V64.229Z" fill="#FAFAFA"/>
<path d="M181.461 64.229H158.046V74.1935H181.461V64.229Z" fill="#FAFAFA"/>
<path d="M124.803 64.229H101.388V74.1935H124.803V64.229Z" fill="#FAFAFA"/>
<path d="M96.4741 64.229H73.0591V74.1935H96.4741V64.229Z" fill="#FAFAFA"/>
<path d="M167.297 78.0991H143.882V88.0636H167.297V78.0991Z" fill="#FAFAFA"/>
<path d="M425.187 131.523H401.772V141.487H425.187V131.523Z" fill="#FAFAFA"/>
<path d="M375.858 131.523H352.443V141.487H375.858V131.523Z" fill="#FAFAFA"/>
<path d="M439.362 145.394H415.947V155.359H439.362V145.394Z" fill="#FAFAFA"/>
<path d="M411.022 145.394H387.607V155.359H411.022V145.394Z" fill="#FAFAFA"/>
<path d="M169.302 117.538H145.887V127.502H169.302V117.538Z" fill="#FAFAFA"/>
<path d="M109.463 117.538H86.0475V127.502H109.463V117.538Z" fill="#FAFAFA"/>
<path d="M183.467 131.397H160.052V141.362H183.467V131.397Z" fill="#FAFAFA"/>
<path d="M144.627 131.397H121.212V141.362H144.627V131.397Z" fill="#FAFAFA"/>
<path d="M425.187 159.264H401.772V169.229H425.187V159.264Z" fill="#FAFAFA"/>
<path d="M375.858 159.264H352.443V169.229H375.858V159.264Z" fill="#FAFAFA"/>
<path d="M110.639 78.0991H87.2235V88.0636H110.639V78.0991Z" fill="#FAFAFA"/>
<path d="M442.354 50.7358H418.939V60.7003H442.354V50.7358Z" fill="#FAFAFA"/>
<path d="M414.025 50.7358H390.61V60.7003H414.025V50.7358Z" fill="#FAFAFA"/>
<path d="M428.19 64.5962H404.775V74.5607H428.19V64.5962Z" fill="#FAFAFA"/>
<path d="M315.441 50.957H292.026V60.9215H315.441V50.957Z" fill="#FAFAFA"/>
<path d="M287.112 50.957H263.697V60.9215H287.112V50.957Z" fill="#FAFAFA"/>
<path d="M329.605 64.8169H306.19V74.7814H329.605V64.8169Z" fill="#FAFAFA"/>
<path d="M301.276 64.8169H277.861V74.7814H301.276V64.8169Z" fill="#FAFAFA"/>
<path d="M272.947 64.8169H249.532V74.7814H272.947V64.8169Z" fill="#FAFAFA"/>
<path d="M343.77 78.687H320.355V88.6515H343.77V78.687Z" fill="#FAFAFA"/>
<path d="M315.441 78.687H292.026V88.6515H315.441V78.687Z" fill="#FAFAFA"/>
<path d="M287.112 78.687H263.697V88.6515H287.112V78.687Z" fill="#FAFAFA"/>
<path d="M329.605 92.5576H306.19V102.522H329.605V92.5576Z" fill="#FAFAFA"/>
<path d="M301.276 92.5576H277.861V102.522H301.276V92.5576Z" fill="#FAFAFA"/>
<path d="M139.188 187.876H115.773V197.841H139.188V187.876Z" fill="#FAFAFA"/>
<path d="M110.849 187.876H87.4335V197.841H110.849V187.876Z" fill="#FAFAFA"/>
<path d="M220.521 189.137H197.106V199.101H220.521V189.137Z" fill="#FAFAFA"/>
<path d="M153.353 201.736H129.938V211.701H153.353V201.736Z" fill="#FAFAFA"/>
<path d="M125.013 201.736H101.598V211.701H125.013V201.736Z" fill="#FAFAFA"/>
<path d="M234.685 203.007H211.27V212.972H234.685V203.007Z" fill="#FAFAFA"/>
<path d="M206.346 203.007H182.931V212.972H206.346V203.007Z" fill="#FAFAFA"/>
<path d="M281.526 158.172H258.111V168.136H281.526V158.172Z" fill="#FAFAFA"/>
<path d="M134.641 151.579H111.226V161.543H134.641V151.579Z" fill="#FAFAFA"/>
<path d="M249.596 109H226.181V118.965H249.596V109Z" fill="#FAFAFA"/>
<path d="M267.362 144.312H243.947V154.277H267.362V144.312Z" fill="#FAFAFA"/>
<path d="M295.691 144.312H272.276V154.277H295.691V144.312Z" fill="#FAFAFA"/>
<path d="M402.045 333.617H378.63V343.581H402.045V333.617Z" fill="#FAFAFA"/>
<path d="M416.209 319.757H392.794V329.721H416.209V319.757Z" fill="#FAFAFA"/>
<path d="M139.188 215.607H115.773V225.572H139.188V215.607Z" fill="#FAFAFA"/>
<path d="M110.849 215.607H87.4335V225.572H110.849V215.607Z" fill="#FAFAFA"/>
<path d="M153.353 229.478H129.938V239.442H153.353V229.478Z" fill="#FAFAFA"/>
<path d="M125.013 229.478H101.598V239.442H125.013V229.478Z" fill="#FAFAFA"/>
<path d="M183.645 267.834H160.23V277.799H183.645V267.834Z" fill="#FAFAFA"/>
<path d="M155.316 267.834H131.901V277.799H155.316V267.834Z" fill="#FAFAFA"/>
<path d="M126.977 267.834H103.562V277.799H126.977V267.834Z" fill="#FAFAFA"/>
<path d="M98.6475 267.834H75.2325V277.799H98.6475V267.834Z" fill="#FAFAFA"/>
<path d="M197.809 281.705H174.394V291.67H197.809V281.705Z" fill="#FAFAFA"/>
<path d="M169.48 281.705H146.065V291.67H169.48V281.705Z" fill="#FAFAFA"/>
<path d="M112.812 281.705H89.3969V291.67H112.812V281.705Z" fill="#FAFAFA"/>
<path d="M211.974 295.565H188.559V305.53H211.974V295.565Z" fill="#FAFAFA"/>
<path d="M183.645 295.565H160.23V305.53H183.645V295.565Z" fill="#FAFAFA"/>
<path d="M155.316 295.565H131.901V305.53H155.316V295.565Z" fill="#FAFAFA"/>
<path d="M197.809 309.436H174.394V319.4H197.809V309.436Z" fill="#FAFAFA"/>
<path d="M169.48 309.436H146.065V319.4H169.48V309.436Z" fill="#FAFAFA"/>
<path d="M141.152 309.436H117.737V319.4H141.152V309.436Z" fill="#FAFAFA"/>
<path d="M375.302 267.194H351.887V277.158H375.302V267.194Z" fill="#FAFAFA"/>
<path d="M315.473 267.194H292.058V277.158H315.473V267.194Z" fill="#FAFAFA"/>
<path d="M287.144 267.194H263.729V277.158H287.144V267.194Z" fill="#FAFAFA"/>
<path d="M389.477 281.064H366.062V291.028H389.477V281.064Z" fill="#FAFAFA"/>
<path d="M329.637 281.064H306.222V291.028H329.637V281.064Z" fill="#FAFAFA"/>
<path d="M301.308 281.064H277.893V291.028H301.308V281.064Z" fill="#FAFAFA"/>
<path d="M272.979 281.064H249.564V291.028H272.979V281.064Z" fill="#FAFAFA"/>
<path d="M403.641 294.924H380.226V304.888H403.641V294.924Z" fill="#FAFAFA"/>
<path d="M375.302 294.924H351.887V304.888H375.302V294.924Z" fill="#FAFAFA"/>
<path d="M315.473 294.924H292.058V304.888H315.473V294.924Z" fill="#FAFAFA"/>
<path d="M287.144 294.924H263.729V304.888H287.144V294.924Z" fill="#FAFAFA"/>
<path d="M357.966 308.795H334.551V318.759H357.966V308.795Z" fill="#FAFAFA"/>
<path d="M329.637 308.795H306.222V318.759H329.637V308.795Z" fill="#FAFAFA"/>
<path d="M301.308 308.795H277.893V318.759H301.308V308.795Z" fill="#FAFAFA"/>
<path d="M272.979 308.795H249.564V318.759H272.979V308.795Z" fill="#FAFAFA"/>
<path d="M324.481 220.805H425.617V105.126L324.481 105.126V220.805Z" fill="#E0E0E0"/>
<path d="M324.671 220.805H421.911V105.126L324.671 105.126V220.805Z" fill="#E0E0E0"/>
<path d="M321.321 220.805H422.457V105.126L321.321 105.126V220.805Z" fill="#F0F0F0"/>
<path d="M325.92 215.481H418.047V108.801L325.92 108.801V215.481Z" fill="white"/>
<path d="M325.92 215.481H328.797V108.801H325.92V215.481Z" fill="#E0E0E0"/>
<path d="M328.492 185.524V188.401H418.309V185.524H328.492Z" fill="#E0E0E0"/>
<path d="M325.92 185.515H419.591V180.685H325.92V185.515Z" fill="#F0F0F0"/>
<path d="M111.195 220.805H212.331V105.126L111.195 105.126L111.195 220.805Z" fill="#E0E0E0"/>
<path d="M111.395 220.805H208.635V105.126L111.395 105.126L111.395 220.805Z" fill="#E0E0E0"/>
<path d="M108.045 220.805H209.181V105.126L108.045 105.126L108.045 220.805Z" fill="#F0F0F0"/>
<path d="M112.633 215.481H204.76V108.801L112.633 108.801L112.633 215.481Z" fill="white"/>
<path d="M112.633 215.481H115.51L115.51 108.801H112.633L112.633 215.481Z" fill="#E0E0E0"/>
<path d="M115.206 185.515V188.392H205.023V185.515H115.206Z" fill="#E0E0E0"/>
<path d="M112.633 185.515H206.304V180.685H112.633V185.515Z" fill="#F0F0F0"/>
<path d="M262.5 391.188C374.937 391.188 466.085 385.866 466.085 379.302C466.085 372.738 374.937 367.416 262.5 367.416C150.063 367.416 58.9155 372.738 58.9155 379.302C58.9155 385.866 150.063 391.188 262.5 391.188Z" fill="#F5F5F5"/>
<path d="M93.849 352.181C93.849 352.181 92.4 341.502 85.5645 340.337C78.729 339.171 80.787 334.037 79.0125 332C77.238 329.963 72.5865 335.895 76.566 341.618C80.5455 347.34 77.2905 345.534 79.0125 350.847C80.7345 356.16 94.5 361.043 93.849 352.181Z" fill="#263238"/>
<path opacity="0.2" d="M93.849 352.181C93.849 352.181 92.4 341.502 85.5645 340.337C78.729 339.171 80.787 334.037 79.0125 332C77.238 329.963 72.5865 335.895 76.566 341.618C80.5455 347.34 77.2905 345.534 79.0125 350.847C80.7345 356.16 94.5 361.043 93.849 352.181Z" fill="white"/>
<path d="M93.5655 359.594C93.4763 359.595 93.3885 359.571 93.3123 359.525C93.2361 359.478 93.1747 359.411 93.135 359.331C93.135 359.216 87.885 348.107 90.615 330.404C91.499 325.34 92.9065 320.382 94.815 315.609C98.1225 306.6 100.727 299.481 94.7625 286.482C92.8725 282.366 90.9405 278.534 89.0715 274.827C82.0575 260.904 76.524 249.911 80.6715 238.77C80.7162 238.653 80.8054 238.559 80.9196 238.508C81.0337 238.456 81.1635 238.453 81.2805 238.497C81.3398 238.516 81.3946 238.546 81.4415 238.587C81.4884 238.628 81.5263 238.678 81.5529 238.734C81.5795 238.791 81.5942 238.852 81.5962 238.914C81.5981 238.976 81.5871 239.038 81.564 239.096C77.5845 249.848 83.0445 260.684 89.964 274.397C91.833 278.114 93.765 281.957 95.6655 286.083C101.798 299.439 98.994 307.083 95.7495 315.935C93.8369 320.644 92.429 325.544 91.5495 330.551C88.851 347.939 93.9435 358.806 93.996 358.901C94.0502 359.013 94.0574 359.143 94.016 359.261C93.9747 359.379 93.8882 359.476 93.7755 359.531C93.711 359.567 93.6393 359.588 93.5655 359.594Z" fill="#263238"/>
<path d="M89.628 357C89.628 357 85.2075 350.343 91.581 346.92C97.9545 343.497 99.2355 346.259 103.131 343.77C107.027 341.282 110.061 335.37 110.733 339.161C111.405 342.951 106.859 345.156 108.465 346.899C110.072 348.642 97.7865 359.982 89.628 357Z" fill="#263238"/>
<path d="M79.2014 244.493C79.2014 244.493 74.9069 231.42 84.6929 231.147C94.4789 230.874 83.6849 243.096 79.2014 244.493Z" fill="#263238"/>
<path d="M87.7064 254.552C87.7064 254.552 90.6254 242.655 97.5659 245.165C104.506 247.674 94.6259 254.772 87.7064 254.552Z" fill="#263238"/>
<path d="M75.9255 255.581C75.9255 255.581 76.9755 246.131 69.6255 245.9C62.2755 245.669 65.5095 254.1 75.9255 255.581Z" fill="#263238"/>
<path d="M80.85 274.932C80.85 274.932 70.959 266.112 67.3995 272.675C63.84 279.237 74.844 280.602 80.85 274.932Z" fill="#263238"/>
<path d="M98.3219 273.367C98.3219 273.367 100.18 258.667 108.171 263.319C116.161 267.97 105.283 274.837 98.3219 273.367Z" fill="#263238"/>
<path d="M105.357 294.335C105.357 294.335 99.4559 279.541 110.418 281.21C121.38 282.88 113.095 290.744 105.357 294.335Z" fill="#263238"/>
<path d="M88.536 299.617C88.536 299.617 79.2855 288.75 72.2085 292.173C65.1315 295.596 70.917 306.463 88.536 299.617Z" fill="#263238"/>
<path d="M96.9359 323.779C96.9359 323.779 104.821 306.265 111.835 312.166C118.849 318.067 107.362 326.887 96.9359 323.779Z" fill="#263238"/>
<path d="M85.4805 322.749C85.4805 322.749 87.5805 309.162 79.758 310.254C71.9355 311.346 74.004 319.662 85.4805 322.749Z" fill="#263238"/>
<g opacity="0.2">
<path d="M79.2014 244.493C79.2014 244.493 74.9069 231.42 84.6929 231.147C94.4789 230.874 83.6849 243.096 79.2014 244.493Z" fill="white"/>
<path d="M87.7064 254.552C87.7064 254.552 90.6254 242.655 97.5659 245.165C104.506 247.674 94.6259 254.772 87.7064 254.552Z" fill="white"/>
<path d="M75.9255 255.581C75.9255 255.581 76.9755 246.131 69.6255 245.9C62.2755 245.669 65.5095 254.1 75.9255 255.581Z" fill="white"/>
<path d="M80.85 274.932C80.85 274.932 70.959 266.112 67.3995 272.675C63.84 279.237 74.844 280.602 80.85 274.932Z" fill="white"/>
<path d="M98.3219 273.367C98.3219 273.367 100.18 258.667 108.171 263.319C116.161 267.97 105.283 274.837 98.3219 273.367Z" fill="white"/>
<path d="M105.357 294.335C105.357 294.335 99.4559 279.541 110.418 281.21C121.38 282.88 113.095 290.744 105.357 294.335Z" fill="white"/>
<path d="M88.536 299.617C88.536 299.617 79.2855 288.75 72.2085 292.173C65.1315 295.596 70.917 306.463 88.536 299.617Z" fill="white"/>
<path d="M96.9359 323.779C96.9359 323.779 104.821 306.265 111.835 312.166C118.849 318.067 107.362 326.887 96.9359 323.779Z" fill="white"/>
<path d="M85.4805 322.749C85.4805 322.749 87.5805 309.162 79.758 310.254C71.9355 311.346 74.004 319.662 85.4805 322.749Z" fill="white"/>
</g>
<path d="M83.4436 262.416C83.3636 262.416 83.2847 262.398 83.2126 262.364C77.4166 259.119 73.2481 252.987 73.0801 252.735C73.0444 252.684 73.0194 252.626 73.0064 252.564C72.9935 252.503 72.9928 252.44 73.0046 252.378C73.0163 252.317 73.0401 252.258 73.0747 252.206C73.1093 252.154 73.154 252.109 73.2061 252.074C73.311 252.005 73.4389 251.979 73.5624 252.003C73.6859 252.026 73.7954 252.097 73.8676 252.2C76.3841 255.805 79.5711 258.892 83.2546 261.293C84.1366 259.655 87.3181 254.006 89.9746 252.41C90.0818 252.345 90.2106 252.324 90.3327 252.354C90.3931 252.369 90.4501 252.395 90.5004 252.432C90.5506 252.468 90.5932 252.514 90.6256 252.567C90.658 252.621 90.6796 252.68 90.6892 252.741C90.6988 252.802 90.6963 252.865 90.6816 252.926C90.667 252.986 90.6406 253.043 90.604 253.093C90.5673 253.144 90.5212 253.186 90.4681 253.218C87.6436 254.909 83.8951 262.091 83.8636 262.164C83.834 262.22 83.7938 262.269 83.7451 262.308C83.6964 262.348 83.6403 262.378 83.5801 262.395C83.5365 262.412 83.49 262.419 83.4436 262.416Z" fill="#263238"/>
<path d="M92.3999 280.592C92.2973 280.594 92.197 280.561 92.1164 280.497C83.8739 274.271 73.3424 274.533 73.2164 274.533C73.0915 274.531 72.9719 274.483 72.8807 274.397C72.7895 274.312 72.7333 274.196 72.7229 274.071C72.7215 274.009 72.7323 273.947 72.7548 273.89C72.7773 273.832 72.8109 273.779 72.8538 273.734C72.8967 273.689 72.9481 273.653 73.0049 273.628C73.0617 273.603 73.1228 273.59 73.1849 273.588C73.2899 273.588 83.8004 273.315 92.2424 279.426C93.3449 277.673 97.5764 271.299 103.015 268.097C103.124 268.033 103.254 268.014 103.376 268.046C103.498 268.077 103.602 268.156 103.666 268.265C103.73 268.373 103.749 268.503 103.717 268.625C103.686 268.747 103.607 268.852 103.498 268.916C97.5029 272.444 92.8304 280.277 92.7884 280.361C92.7538 280.417 92.708 280.466 92.6538 280.504C92.5996 280.542 92.5382 280.568 92.4734 280.581L92.3999 280.592Z" fill="#263238"/>
<path d="M98.1224 304.605C98.0378 304.606 97.9545 304.584 97.8809 304.542C97.7654 304.469 85.7219 297.549 77.0174 297.381C76.9028 297.364 76.7982 297.307 76.7226 297.219C76.647 297.131 76.6054 297.019 76.6054 296.904C76.6054 296.788 76.647 296.676 76.7226 296.588C76.7982 296.5 76.9028 296.443 77.0174 296.426C85.3124 296.594 96.1169 302.463 98.0174 303.555C103.603 298.841 108.045 287.28 108.087 287.165C108.107 287.104 108.139 287.048 108.181 287C108.223 286.951 108.275 286.912 108.332 286.885C108.39 286.857 108.453 286.841 108.517 286.839C108.581 286.836 108.645 286.847 108.704 286.869C108.764 286.892 108.819 286.927 108.865 286.971C108.911 287.016 108.947 287.069 108.972 287.128C108.997 287.187 109.009 287.251 109.009 287.315C109.008 287.379 108.995 287.442 108.969 287.501C108.78 287.994 104.265 299.765 98.3639 304.5C98.2941 304.556 98.2108 304.592 98.1224 304.605Z" fill="#263238"/>
<path d="M91.1505 329.427C91.0661 329.426 90.9831 329.405 90.909 329.364C86.3625 326.76 80.4825 315.368 80.241 314.885C80.1825 314.773 80.1707 314.643 80.2081 314.523C80.2455 314.403 80.3291 314.303 80.4405 314.244C80.5519 314.186 80.682 314.174 80.8021 314.211C80.9222 314.249 81.0225 314.332 81.081 314.444C81.081 314.559 86.7615 325.469 91.035 328.325C94.5136 324.263 99.1171 321.322 104.265 319.872C104.385 319.836 104.514 319.849 104.624 319.908C104.734 319.967 104.817 320.068 104.853 320.187C104.889 320.308 104.877 320.439 104.818 320.551C104.759 320.663 104.658 320.747 104.538 320.786C99.4497 322.194 94.9138 325.126 91.539 329.186C91.4986 329.254 91.4421 329.312 91.3744 329.354C91.3068 329.396 91.2299 329.421 91.1505 329.427Z" fill="#263238"/>
<path d="M90.3 355.405C90.3 355.405 86.5095 349.378 82.236 348.517C77.9625 347.656 76.1145 342.731 74.5395 345.692C72.9645 348.653 77.3115 358.481 90.3 355.405Z" fill="#263238"/>
<path d="M74.8754 379.061H106.459L108.57 353.556H72.765L74.8754 379.061Z" fill="#407BFF"/>
<path d="M72.0194 358.386H109.305L109.788 352.979H71.5469L72.0194 358.386Z" fill="#407BFF"/>
<path opacity="0.3" d="M72.0194 358.386H109.305L109.788 352.979H71.5469L72.0194 358.386Z" fill="white"/>
<path d="M294.493 161.092L292.897 161.396C292.772 161.405 292.647 161.377 292.538 161.315C292.428 161.253 292.34 161.16 292.283 161.048C292.226 160.936 292.203 160.81 292.217 160.685C292.231 160.56 292.281 160.443 292.362 160.346H292.425C291.973 160.546 291.522 160.745 291.049 160.924C291.011 161.623 291.011 162.324 291.049 163.024L301.35 216.301L262.983 223.735C262.994 223.811 262.994 223.889 262.983 223.966C262.967 224.132 262.887 224.285 262.759 224.393C262.632 224.501 262.467 224.555 262.3 224.543C261.681 224.428 261.051 224.312 260.421 224.228L209.622 234.077C209.613 234.166 209.584 234.253 209.538 234.329C209.346 234.652 209.132 234.96 208.897 235.253C208.927 235.441 208.905 235.633 208.834 235.81C208.442 236.988 207.932 238.124 207.312 239.201C207.111 239.485 206.811 239.683 206.472 239.758C206.251 239.803 206.021 239.785 205.81 239.705C205.57 240.224 205.393 240.771 205.285 241.333L286.681 225.583L286.755 225.488C287.229 225.04 287.792 224.696 288.406 224.478C289.021 224.259 289.674 224.17 290.325 224.218C290.788 223.676 291.338 223.214 291.952 222.853C292.229 222.671 292.547 222.561 292.877 222.534C293.208 222.506 293.539 222.562 293.842 222.695C294.246 222.934 294.554 223.305 294.714 223.745C295.515 223.647 296.322 223.591 297.129 223.577L308.679 221.33L297.391 163.129C296.274 162.696 295.279 161.997 294.493 161.092Z" fill="#407BFF"/>
<path d="M189.273 84.9558L189.651 85.0293L197.242 83.5593C198.082 83.1918 198.912 82.8033 199.72 82.4568C201.248 81.7346 202.889 81.2834 204.571 81.1233C205.574 81.077 206.576 81.2268 207.522 81.5643L272.811 68.9118L278.869 100.139C278.94 100.039 279.038 99.9608 279.151 99.9144C279.264 99.868 279.388 99.8552 279.509 99.8773C279.629 99.8994 279.741 99.9555 279.83 100.039C279.92 100.123 279.984 100.23 280.014 100.349C280.366 101.722 280.556 103.131 280.581 104.549C280.548 105.229 280.392 105.898 280.119 106.523L290.419 159.684C291.039 159.453 291.648 159.201 292.257 158.928C292.318 158.562 292.452 158.212 292.653 157.9C292.853 157.588 293.115 157.319 293.422 157.112C293.862 156.904 294.364 156.866 294.829 157.007C295.072 156.456 295.248 155.878 295.354 155.285C295.502 154.563 295.569 153.827 295.554 153.09L295.144 150.938C295.144 150.822 295.05 150.717 294.997 150.612C294.954 150.532 294.932 150.441 294.932 150.35C294.932 150.258 294.954 150.168 294.997 150.087L284.161 94.2063C284.099 94.2163 284.035 94.2163 283.972 94.2063C283.593 94.2468 283.21 94.1831 282.864 94.0221C282.518 93.8612 282.222 93.6091 282.009 93.2928C281.71 92.6805 281.618 91.9879 281.746 91.3188C281.851 90.5313 282.051 89.7543 282.208 88.9773C282.378 88.2909 282.427 87.5805 282.355 86.8773C282.33 86.7584 282.343 86.6346 282.392 86.5233C282.441 86.4121 282.524 86.3192 282.628 86.2578L277.819 61.4673L183.666 79.8003C181.917 80.8172 179.924 81.3365 177.901 81.3018C177.806 81.2958 177.713 81.2657 177.633 81.2143C177.552 81.1628 177.485 81.0918 177.439 81.0078L130.725 90.0693C130.697 90.1908 130.637 90.3022 130.55 90.3912C130.462 90.4802 130.352 90.5433 130.231 90.5733L127.774 91.0458C127.765 91.4191 127.652 91.7825 127.449 92.0958C127.432 92.2424 127.361 92.3773 127.249 92.4738C127.088 92.6056 126.934 92.7458 126.787 92.8938C126.504 93.1563 126.231 93.4398 125.937 93.6918C125.837 93.7878 125.714 93.8565 125.58 93.8913C125.471 93.9102 125.358 93.9009 125.253 93.8641C125.149 93.8274 125.055 93.7644 124.981 93.6813C124.873 93.5525 124.817 93.3876 124.824 93.2193C124.818 93.1599 124.818 93.1001 124.824 93.0408C124.446 93.0408 124.068 93.0408 123.7 92.9463C123.535 92.9278 123.383 92.8467 123.276 92.7198C123.169 92.5929 123.114 92.4298 123.123 92.2638C123.136 92.0984 123.214 91.9451 123.34 91.8369C123.466 91.7288 123.629 91.6747 123.795 91.6863C124.191 91.7439 124.591 91.7754 124.992 91.7808H125.307C125.352 91.786 125.398 91.786 125.443 91.7808C125.135 91.7366 124.852 91.584 124.645 91.3503C124.642 91.3224 124.642 91.2942 124.645 91.2663L97.5974 96.5163C97.7224 96.5178 97.8451 96.5503 97.9544 96.6108C98.0896 96.7062 98.1825 96.8503 98.2139 97.0127C98.2452 97.1752 98.2124 97.3434 98.1224 97.4823C97.906 97.77 97.6635 98.0372 97.3979 98.2803L97.3244 98.3643C97.3244 98.3118 97.3874 98.3643 97.3244 98.3643C97.2791 98.4177 97.237 98.4738 97.1984 98.5323C97.1984 98.5323 97.1984 98.6163 97.1984 98.6478C97.1936 98.6826 97.1936 98.718 97.1984 98.7528C97.1935 98.7735 97.1935 98.7951 97.1984 98.8158C97.1847 98.9238 97.1442 99.0266 97.0805 99.1149C97.0167 99.2031 96.9319 99.274 96.8337 99.321C96.7355 99.368 96.6271 99.3897 96.5184 99.3839C96.4097 99.3782 96.3041 99.3453 96.2114 99.2883C96.1556 99.2581 96.0954 99.2369 96.0329 99.2253C95.968 99.1995 95.9014 99.1785 95.8334 99.1623C95.8353 99.4582 95.7553 99.7489 95.6024 100.002C95.5425 100.09 95.4602 100.159 95.3641 100.203C95.268 100.248 95.1617 100.265 95.0564 100.254C94.951 100.845 94.7525 101.416 94.4684 101.945C94.1514 102.485 93.7217 102.951 93.2084 103.31C93.31 103.446 93.3946 103.594 93.4604 103.751L133.675 95.9598V95.8968C133.846 95.6112 134.066 95.3587 134.326 95.1513C134.499 95.0234 134.698 94.937 134.91 94.8987C135.121 94.8605 135.338 94.8715 135.544 94.9308C135.874 95.033 136.184 95.193 136.458 95.4033L188.527 85.3128C188.588 85.1734 188.696 85.0605 188.833 84.9949C188.97 84.9293 189.127 84.9154 189.273 84.9558Z" fill="#407BFF"/>
<path d="M119.249 251.622L109.799 202.955C109.716 203.049 109.606 203.117 109.485 203.148C109.363 203.18 109.235 203.175 109.116 203.133C108.959 203.078 108.83 202.964 108.757 202.814C108.685 202.665 108.674 202.493 108.728 202.335C108.885 201.873 109.123 201.443 109.431 201.065L97.0515 137.109L96.936 136.91C96.6842 136.39 96.504 135.839 96.4005 135.272C96.1838 135.256 95.9662 135.256 95.7495 135.272C95.6543 135.288 95.5568 135.282 95.4641 135.255C95.3714 135.228 95.2861 135.18 95.2144 135.116C95.1427 135.051 95.0865 134.971 95.0501 134.882C95.0137 134.792 94.9979 134.696 95.004 134.6C94.9916 133.388 95.3034 132.196 95.907 131.145L90.888 105.273C90.8042 105.135 90.7305 104.991 90.6675 104.843L90.4155 104.37C90.3124 104.367 90.2119 104.337 90.125 104.281C90.038 104.226 89.9678 104.148 89.922 104.055C89.8491 103.906 89.8379 103.734 89.891 103.577C89.9441 103.42 90.0571 103.29 90.2055 103.215C90.4679 103.113 90.7071 102.96 90.909 102.764C91.052 102.601 91.1689 102.416 91.2555 102.218C91.4205 101.774 91.5093 101.305 91.518 100.832C91.3603 100.618 91.2461 100.375 91.182 100.118C91.1344 99.765 91.1667 99.4061 91.2765 99.0676C91.2987 98.9791 91.3461 98.8988 91.413 98.8366C91.413 98.4376 91.35 98.0386 91.329 97.6396L83.2965 99.1936L106.218 217.445C106.332 217.383 106.465 217.367 106.592 217.398C106.718 217.429 106.828 217.505 106.901 217.613C107.494 218.256 107.821 219.1 107.814 219.975C107.782 220.148 107.733 220.317 107.667 220.479C107.773 220.556 107.851 220.665 107.889 220.79C107.927 220.915 107.923 221.05 107.877 221.172C107.57 221.774 107.47 222.461 107.594 223.125C107.725 223.75 107.904 224.365 108.129 224.963C108.525 225.967 108.577 227.075 108.276 228.113L114.261 259.014L115.962 258.678C116.918 258.363 117.893 258.107 118.881 257.912C118.866 257.839 118.867 257.764 118.883 257.692C118.9 257.619 118.931 257.551 118.976 257.492C119.225 257.203 119.492 256.93 119.774 256.673C119.747 256.566 119.747 256.454 119.774 256.347C119.95 255.62 120.359 254.971 120.939 254.499C121.465 254.111 122.115 253.928 122.766 253.985C123.394 254.064 123.996 254.281 124.53 254.62C125.063 254.96 125.515 255.413 125.853 255.948C127.575 255.528 129.434 254.898 131.103 255.749L196.371 243.149C196.391 242.978 196.426 242.809 196.476 242.645C196.743 241.794 197.241 241.034 197.915 240.45C198.015 240.364 198.141 240.312 198.273 240.303C198.406 240.293 198.538 240.327 198.65 240.398C198.7 240.315 198.771 240.247 198.856 240.2C198.94 240.152 199.036 240.128 199.133 240.128C199.229 240.128 199.325 240.152 199.409 240.2C199.494 240.247 199.565 240.315 199.616 240.398L199.878 240.713L199.994 240.818L200.193 240.954L200.414 241.059C200.214 240.452 200.214 239.797 200.414 239.19C200.536 238.849 200.729 238.536 200.978 238.272C201.227 238.009 201.528 237.799 201.863 237.657C201.8 237.573 201.76 237.475 201.746 237.371C201.732 237.268 201.745 237.162 201.783 237.065C201.82 236.967 201.882 236.881 201.962 236.814C202.042 236.747 202.138 236.701 202.241 236.681C202.377 236.664 202.516 236.691 202.636 236.76C202.755 236.828 202.85 236.933 202.905 237.059C202.961 237.185 202.974 237.326 202.943 237.46C202.912 237.594 202.839 237.715 202.734 237.804L202.808 237.888C202.88 238.037 202.892 238.209 202.839 238.366C202.785 238.524 202.672 238.654 202.524 238.728L202.283 238.844L202.146 238.917L202.073 238.97L201.905 239.117L201.842 239.19L201.737 239.348V239.411C201.713 239.466 201.692 239.522 201.674 239.579C201.882 239.303 202.126 239.056 202.398 238.844C202.58 238.718 202.778 238.615 202.986 238.539C203.501 237.405 203.984 236.25 204.467 235.116L119.249 251.622Z" fill="#407BFF"/>
<path d="M134.768 202.65C134.879 202.528 135.011 202.425 135.156 202.346L154.119 164.882L145.404 166.572L137.76 181.535C137.808 181.546 137.854 181.564 137.897 181.587C138.032 181.683 138.125 181.827 138.156 181.989C138.187 182.152 138.155 182.32 138.065 182.459C137.886 182.721 137.75 183.005 137.592 183.278C137.729 183.362 137.855 183.467 137.991 183.54C138.094 183.611 138.175 183.71 138.221 183.826C138.268 183.942 138.279 184.069 138.254 184.191C138.228 184.313 138.168 184.424 138.08 184.511C137.992 184.599 137.881 184.659 137.76 184.685L137.55 184.8H137.498H137.435L137.025 184.989H136.931L136.784 185.105L136.458 185.388L136.29 185.567L136.217 185.651L135.923 186.029C135.713 186.312 135.524 186.606 135.324 186.9C135.227 187.037 135.08 187.132 134.915 187.163L123.732 209.066L124.782 214.715L129.749 213.749C129.908 213.278 130.174 212.85 130.526 212.499C130.692 212.343 130.875 212.206 131.072 212.09C131.066 212.052 131.066 212.013 131.072 211.974C131.307 209.432 132.134 206.979 133.487 204.813C133.419 204.708 133.383 204.586 133.383 204.462C133.383 204.337 133.419 204.215 133.487 204.11C133.658 203.811 133.724 203.464 133.676 203.123C133.677 202.997 133.715 202.874 133.784 202.769C133.854 202.664 133.952 202.582 134.068 202.532C134.184 202.482 134.311 202.466 134.435 202.487C134.56 202.508 134.675 202.565 134.768 202.65Z" fill="#407BFF"/>
<path d="M167.433 199.321C167.422 199.479 167.379 199.632 167.307 199.773C166.996 200.382 166.489 200.87 165.868 201.159C165.742 201.348 165.606 201.526 165.49 201.705C165.422 201.8 165.327 201.874 165.217 201.915C165.217 202.009 165.144 202.114 165.123 202.209C165.098 202.29 165.057 202.366 165.003 202.431C164.948 202.496 164.88 202.55 164.804 202.588C164.728 202.627 164.645 202.65 164.56 202.655C164.475 202.66 164.39 202.649 164.31 202.62C164.229 202.592 164.156 202.547 164.093 202.49C164.03 202.432 163.98 202.362 163.945 202.284C163.91 202.207 163.892 202.123 163.89 202.037C163.889 201.952 163.904 201.868 163.936 201.789C164.04 201.428 164.173 201.077 164.335 200.739L163.737 200.854C163.574 200.882 163.407 200.847 163.27 200.755C163.134 200.663 163.037 200.522 163.002 200.361C162.986 200.313 162.986 200.261 163.002 200.214L162.634 200.287L160.261 187.95L152.68 189.42L155.053 201.684L136.29 205.317C136.164 205.38 136.048 205.474 135.922 205.548V205.632C135.969 205.767 135.967 205.915 135.919 206.049C135.87 206.184 135.777 206.298 135.654 206.373C135.532 206.448 135.388 206.478 135.246 206.46C135.104 206.442 134.972 206.375 134.872 206.272C134.523 206.573 134.203 206.907 133.917 207.27C134.027 207.239 134.143 207.239 134.252 207.27C134.362 207.302 134.46 207.363 134.536 207.448C134.595 207.506 134.641 207.574 134.673 207.65C134.705 207.726 134.721 207.807 134.721 207.889C134.721 207.971 134.705 208.053 134.673 208.128C134.641 208.204 134.595 208.273 134.536 208.33L134.032 208.75C134.096 208.856 134.13 208.978 134.13 209.102C134.13 209.226 134.096 209.347 134.032 209.454V209.527C134.027 209.566 134.027 209.604 134.032 209.643C134.032 209.79 134.032 209.947 134.032 210.105C134.01 210.387 133.887 210.651 133.686 210.85C133.457 211.047 133.176 211.175 132.877 211.218H132.804C132.833 211.531 132.879 211.843 132.94 212.152C133.083 212.437 133.196 212.736 133.276 213.045L156.261 208.593L158.844 222.6L166.677 221.088L163.989 207.207L174.709 205.107L173.365 198.177L167.433 199.321Z" fill="#407BFF"/>
<path d="M212.94 161.522L212.436 161.963C212.195 162.173 211.964 162.383 211.743 162.604L211.46 162.919L211.302 163.108C211.122 163.369 210.853 163.557 210.545 163.635C210.237 163.713 209.911 163.678 209.628 163.534C209.344 163.39 209.123 163.149 209.004 162.854C208.885 162.559 208.877 162.232 208.982 161.932L209.276 160.819C209.276 160.819 209.192 160.735 209.16 160.672C209.075 160.514 209.031 160.336 209.034 160.157C209.014 159.986 209.035 159.813 209.097 159.653C209.097 159.527 209.192 159.401 209.244 159.275C209.014 159.052 208.823 158.793 208.677 158.509V158.425C204.248 156.095 199.142 155.396 194.25 156.451C181.02 159.013 173.25 171.413 176.778 189.799C180.306 208.184 192.213 216.773 205.443 214.211C206.632 213.985 207.801 213.665 208.94 213.256C209.307 212.731 209.675 212.206 209.99 211.691C210.114 211.511 210.282 211.365 210.478 211.268C210.674 211.17 210.891 211.123 211.11 211.131C211.329 211.139 211.542 211.203 211.73 211.315C211.917 211.428 212.074 211.586 212.184 211.775C221.078 206.819 225.698 195.826 222.8 180.874C221.151 172.201 217.602 165.691 212.94 161.522ZM204.057 207.04C195.185 208.762 187.646 202.693 184.842 188.245C182.039 173.797 186.764 165.355 195.636 163.643C197.967 163.139 200.392 163.278 202.65 164.046C204.908 164.813 206.915 166.18 208.457 168.001C208.606 167.894 208.773 167.816 208.95 167.77C209.294 167.708 209.648 167.783 209.936 167.979C210.225 168.176 210.425 168.477 210.494 168.82C210.605 169.486 210.623 170.164 210.546 170.836C212.63 174.401 214.053 178.314 214.746 182.386C217.571 196.886 212.846 205.339 204.057 207.04Z" fill="#407BFF"/>
<path d="M270.428 179.361L268.055 167.097L260.463 168.567L262.847 180.831L241.143 185.031L261.902 144.018L253.187 145.698L245.385 160.986C245.312 162.895 244.925 164.778 244.241 166.562C244.193 166.68 244.11 166.78 244.005 166.852C243.899 166.923 243.775 166.961 243.647 166.961C243.52 166.961 243.395 166.923 243.29 166.852C243.184 166.78 243.102 166.68 243.054 166.562C242.844 168.189 242.08 169.694 240.891 170.825C240.814 170.897 240.717 170.946 240.614 170.966C240.51 170.987 240.402 170.978 240.303 170.94L231.473 188.244L232.523 193.893L245.585 191.363C246.699 190.476 248.016 189.881 249.417 189.63C250.648 189.345 251.903 189.18 253.166 189.137C254.112 189.064 255.064 189.135 255.99 189.347L263.907 187.814L266.595 201.684L274.418 200.172L271.73 186.302L282.461 184.202L281.117 177.272L270.428 179.361Z" fill="#407BFF"/>
<path d="M126.105 145.751L124.866 139.367L137.676 136.889L136.71 131.923L123.9 134.401L122.745 128.405L137.245 125.602L136.195 120.478L115.353 124.52L117.138 133.718C117.456 133.881 117.738 134.105 117.967 134.38C118.363 134.88 118.601 135.487 118.65 136.123C118.786 137.435 118.461 138.79 118.65 140.06C118.675 140.166 118.669 140.278 118.632 140.38C118.594 140.483 118.528 140.573 118.44 140.638L120.75 152.104L142.107 147.967L141.12 142.801L126.105 145.751Z" fill="#407BFF"/>
<path d="M163.716 134.579C165.265 133.596 166.481 132.168 167.203 130.481C167.924 128.794 168.118 126.928 167.758 125.129C167.653 125.24 167.511 125.31 167.359 125.328C167.237 125.337 167.114 125.308 167.007 125.246C166.901 125.185 166.815 125.093 166.761 124.982C166.618 124.647 166.522 124.293 166.477 123.932C166.477 123.879 166.477 123.837 166.477 123.785C166.283 123.537 166.144 123.251 166.068 122.945C166.043 122.781 166.081 122.614 166.174 122.478C166.268 122.341 166.41 122.245 166.572 122.21C166.636 122.193 166.702 122.191 166.768 122.201C166.833 122.212 166.895 122.237 166.95 122.273C164.944 117.789 160.114 115.794 153.793 117.023L141.855 119.333L143.472 127.659C143.6 127.714 143.701 127.815 143.755 127.943C144.771 130.006 145.405 132.237 145.624 134.526C145.65 134.69 145.612 134.857 145.518 134.994C145.424 135.13 145.282 135.226 145.12 135.261C145.061 135.272 145.001 135.272 144.942 135.261L147.199 147L153.583 145.761L152.092 138.086L157.962 136.941L164.766 143.598L171.622 142.265L163.716 134.579ZM156.303 131.964L151.053 133.014L149.184 123.407L154.434 122.357C158.329 121.601 160.65 122.987 161.238 126.021C161.826 129.056 160.209 131.25 156.303 131.964Z" fill="#407BFF"/>
<path d="M192.685 128.961C194.287 127.944 195.531 126.453 196.245 124.695C196.958 122.937 197.105 121 196.665 119.154C195.468 112.97 190.123 110.04 182.752 111.468L170.814 113.789L176.158 141.362L182.542 140.133L181.051 132.447L186.921 131.303L193.735 137.96L200.592 136.626L192.685 128.961ZM185.272 126.357L180.022 127.407L178.164 117.789L183.361 116.739C183.687 116.676 184.002 116.634 184.296 116.603L184.495 116.435C184.514 116.278 184.549 116.123 184.6 115.973C184.669 115.791 184.793 115.635 184.955 115.527C185.117 115.42 185.309 115.366 185.503 115.374C185.876 115.411 186.235 115.533 186.553 115.731C186.608 115.665 186.676 115.612 186.753 115.574C186.757 115.372 186.782 115.172 186.826 114.975C186.888 114.825 187.004 114.704 187.152 114.638C187.3 114.572 187.467 114.565 187.62 114.619C187.773 114.673 187.899 114.784 187.972 114.928C188.045 115.073 188.06 115.24 188.013 115.395C187.887 115.878 188.118 116.309 188.076 116.802C188.062 116.92 188.026 117.034 187.971 117.138C188.561 117.481 189.065 117.954 189.444 118.522C189.822 119.09 190.066 119.738 190.155 120.414C190.785 123.407 189.168 125.601 185.272 126.357Z" fill="#407BFF"/>
<path d="M222.894 106.145L222.568 106.229C222.491 106.255 222.417 106.29 222.348 106.334C222.315 106.352 222.287 106.377 222.264 106.407C222.171 106.518 222.046 106.599 221.907 106.638C221.825 106.653 221.741 106.651 221.66 106.633C221.579 106.615 221.502 106.581 221.434 106.533C221.364 106.49 221.304 106.432 221.258 106.363C221.213 106.294 221.183 106.216 221.172 106.134C221.14 105.97 221.174 105.8 221.266 105.662C221.266 105.662 221.329 105.609 221.35 105.578C218.662 104.721 215.8 104.565 213.034 105.126C204.319 106.817 199.122 114.125 200.707 122.315C202.293 130.505 209.853 135.345 218.557 133.655C227.262 131.964 232.48 124.698 230.884 116.466C230.492 114.226 229.56 112.115 228.167 110.316C226.775 108.518 224.965 107.086 222.894 106.145ZM217.518 128.195C215.177 128.649 212.752 128.154 210.776 126.82C208.8 125.486 207.435 123.422 206.981 121.081C206.527 118.74 207.022 116.315 208.356 114.339C209.69 112.363 211.754 110.998 214.095 110.544C215.274 110.313 216.486 110.313 217.665 110.544C217.665 110.397 217.759 110.25 217.812 110.124C217.864 109.981 217.966 109.862 218.1 109.789C218.233 109.716 218.388 109.693 218.536 109.725C218.653 109.746 218.761 109.802 218.843 109.887C218.926 109.972 218.981 110.081 218.998 110.198L219.366 110.103C219.45 109.841 219.534 109.589 219.607 109.326C219.681 109.064 219.691 109.022 219.723 108.875C219.745 108.802 219.763 108.729 219.775 108.654V108.581L219.838 108.203V108.066C219.775 107.646 220.216 107.142 220.668 107.363L221.917 107.961C222.072 108.022 222.197 108.14 222.267 108.29C222.337 108.441 222.347 108.612 222.295 108.77C222.222 108.926 222.159 109.088 222.106 109.253C222.106 109.305 222.106 109.368 222.054 109.421C222.054 109.421 222.054 109.421 222.054 109.494C222.033 109.746 222.033 109.999 222.054 110.25C222.077 110.847 222.041 111.445 221.949 112.035C221.978 112.103 221.993 112.176 221.993 112.25C221.993 112.324 221.978 112.398 221.949 112.466C221.927 112.538 221.887 112.603 221.833 112.655C223.206 114.013 224.127 115.762 224.469 117.663C224.756 118.814 224.801 120.012 224.601 121.181C224.4 122.351 223.96 123.465 223.306 124.455C222.653 125.445 221.801 126.289 220.805 126.933C219.808 127.576 218.689 128.006 217.518 128.195Z" fill="#407BFF"/>
<path d="M258.993 107.888C258.958 107.883 258.923 107.883 258.888 107.888C258.637 107.799 258.406 107.664 258.205 107.489C258.11 107.651 258.001 107.806 257.88 107.951C257.783 108.084 257.639 108.175 257.477 108.206C257.315 108.237 257.148 108.206 257.008 108.119C256.871 108.025 256.776 107.881 256.745 107.717C256.713 107.554 256.748 107.385 256.84 107.247C257.46 106.402 257.851 105.411 257.974 104.37C255.874 100.107 251.139 98.2486 244.975 99.4456L233.037 101.756L238.35 129.308L244.734 128.069L243.243 120.383L249.112 119.249L255.927 125.895L262.783 124.572L254.877 116.907C256.366 115.967 257.549 114.613 258.28 113.011C259.011 111.409 259.259 109.628 258.993 107.888ZM247.495 114.293L242.245 115.343L240.45 105.683L245.7 104.633C249.606 103.877 251.916 105.273 252.504 108.308C253.092 111.342 251.391 113.537 247.495 114.293Z" fill="#407BFF"/>
<path d="M203.458 274.743H248.335C249.555 274.743 250.763 274.983 251.89 275.45C253.017 275.917 254.04 276.602 254.903 277.465C255.765 278.328 256.448 279.353 256.914 280.48C257.38 281.607 257.619 282.815 257.617 284.035V299.785C257.619 301.005 257.38 302.213 256.914 303.341C256.448 304.468 255.765 305.492 254.903 306.355C254.04 307.218 253.017 307.903 251.89 308.37C250.763 308.837 249.555 309.078 248.335 309.078H218.515L204.865 323.673L212.215 309.078H203.416C200.952 309.078 198.588 308.099 196.846 306.356C195.103 304.613 194.124 302.25 194.124 299.785V284.035C194.124 282.811 194.366 281.6 194.835 280.469C195.305 279.339 195.993 278.313 196.861 277.45C197.728 276.586 198.757 275.903 199.889 275.438C201.022 274.974 202.235 274.737 203.458 274.743Z" fill="#407BFF"/>
<path opacity="0.7" d="M203.458 274.743H248.335C249.555 274.743 250.763 274.983 251.89 275.45C253.017 275.917 254.04 276.602 254.903 277.465C255.765 278.328 256.448 279.353 256.914 280.48C257.38 281.607 257.619 282.815 257.617 284.035V299.785C257.619 301.005 257.38 302.213 256.914 303.341C256.448 304.468 255.765 305.492 254.903 306.355C254.04 307.218 253.017 307.903 251.89 308.37C250.763 308.837 249.555 309.078 248.335 309.078H218.515L204.865 323.673L212.215 309.078H203.416C200.952 309.078 198.588 308.099 196.846 306.356C195.103 304.613 194.124 302.25 194.124 299.785V284.035C194.124 282.811 194.366 281.6 194.835 280.469C195.305 279.339 195.993 278.313 196.861 277.45C197.728 276.586 198.757 275.903 199.889 275.438C201.022 274.974 202.235 274.737 203.458 274.743Z" fill="white"/>
<path d="M205.653 291.039C205.613 289.979 205.891 288.931 206.451 288.03C207.011 287.129 207.827 286.415 208.795 285.982C209.763 285.548 210.838 285.413 211.884 285.594C212.929 285.776 213.896 286.265 214.661 287C215.426 287.735 215.954 288.682 216.177 289.719C216.4 290.756 216.309 291.836 215.914 292.82C215.519 293.805 214.839 294.649 213.961 295.245C213.084 295.84 212.048 296.16 210.987 296.163C210.295 296.197 209.604 296.09 208.955 295.847C208.306 295.604 207.714 295.232 207.214 294.752C206.715 294.272 206.318 293.695 206.05 293.056C205.782 292.418 205.646 291.731 205.653 291.039ZM214.862 291.039C214.87 290.266 214.648 289.507 214.224 288.861C213.8 288.214 213.194 287.709 212.481 287.408C211.769 287.107 210.983 287.025 210.224 287.172C209.465 287.32 208.767 287.689 208.219 288.235C207.671 288.78 207.298 289.476 207.146 290.234C206.995 290.992 207.072 291.778 207.369 292.492C207.666 293.206 208.169 293.815 208.813 294.243C209.457 294.67 210.214 294.896 210.987 294.892C211.498 294.908 212.008 294.819 212.483 294.632C212.959 294.444 213.392 294.161 213.755 293.8C214.117 293.439 214.403 293.008 214.593 292.534C214.783 292.059 214.875 291.55 214.862 291.039Z" fill="#407BFF"/>
<path d="M217.581 292.257C217.56 291.472 217.773 290.7 218.193 290.038C218.613 289.375 219.221 288.853 219.939 288.537C220.657 288.222 221.453 288.127 222.225 288.266C222.997 288.404 223.71 288.77 224.274 289.315C224.837 289.861 225.226 290.562 225.389 291.329C225.552 292.096 225.484 292.895 225.191 293.623C224.899 294.35 224.397 294.975 223.748 295.416C223.1 295.857 222.334 296.095 221.55 296.1C221.033 296.126 220.515 296.045 220.03 295.863C219.545 295.68 219.103 295.4 218.731 295.04C218.359 294.68 218.065 294.247 217.867 293.768C217.669 293.289 217.572 292.775 217.581 292.257ZM224.08 292.257C224.103 291.907 224.053 291.557 223.935 291.227C223.817 290.897 223.632 290.595 223.392 290.34C223.153 290.084 222.863 289.881 222.542 289.742C222.221 289.602 221.874 289.531 221.524 289.531C221.173 289.531 220.827 289.602 220.506 289.742C220.184 289.881 219.895 290.084 219.655 290.34C219.415 290.595 219.231 290.897 219.112 291.227C218.994 291.557 218.945 291.907 218.967 292.257C218.945 292.606 218.994 292.957 219.112 293.286C219.231 293.616 219.415 293.918 219.655 294.173C219.895 294.429 220.184 294.632 220.506 294.771C220.827 294.911 221.173 294.982 221.524 294.982C221.874 294.982 222.221 294.911 222.542 294.771C222.863 294.632 223.153 294.429 223.392 294.173C223.632 293.918 223.817 293.616 223.935 293.286C224.053 292.957 224.103 292.606 224.08 292.257Z" fill="#407BFF"/>
<path d="M235.2 292.256C235.228 292.769 235.149 293.283 234.967 293.763C234.785 294.244 234.505 294.681 234.144 295.047C233.783 295.413 233.35 295.699 232.871 295.888C232.393 296.076 231.881 296.163 231.368 296.141C230.86 296.157 230.356 296.053 229.897 295.838C229.437 295.622 229.035 295.302 228.722 294.902V298.829H227.346V288.466H228.659V289.673C228.973 289.257 229.384 288.923 229.856 288.7C230.328 288.477 230.846 288.371 231.368 288.392C231.879 288.371 232.39 288.457 232.866 288.644C233.343 288.831 233.775 289.116 234.136 289.479C234.496 289.843 234.777 290.278 234.96 290.756C235.144 291.234 235.225 291.745 235.2 292.256ZM233.814 292.256C233.789 291.758 233.619 291.278 233.325 290.876C233.031 290.473 232.625 290.166 232.157 289.992C231.69 289.817 231.182 289.784 230.696 289.895C230.21 290.007 229.767 290.258 229.422 290.618C229.077 290.979 228.846 291.432 228.756 291.923C228.666 292.413 228.722 292.919 228.917 293.378C229.111 293.837 229.436 294.23 229.851 294.506C230.266 294.782 230.753 294.931 231.252 294.934C231.602 294.945 231.951 294.882 232.276 294.75C232.601 294.619 232.894 294.42 233.137 294.168C233.381 293.916 233.569 293.615 233.689 293.286C233.809 292.957 233.859 292.606 233.835 292.256H233.814Z" fill="#407BFF"/>
<path d="M236.166 295.249L236.733 294.199C237.53 294.707 238.455 294.976 239.4 294.976C240.67 294.976 241.195 294.598 241.195 293.926C241.195 292.225 236.407 293.706 236.407 290.682C236.407 289.327 237.625 288.403 239.557 288.403C240.523 288.389 241.475 288.628 242.319 289.096L241.731 290.146C241.077 289.738 240.318 289.53 239.547 289.548C238.339 289.548 237.751 289.989 237.751 290.598C237.751 292.383 242.56 290.923 242.56 293.874C242.56 295.239 241.3 296.121 239.284 296.121C238.181 296.154 237.093 295.85 236.166 295.249Z" fill="#407BFF"/>
<path d="M243.978 295.218C243.978 295.095 244.002 294.973 244.05 294.86C244.098 294.748 244.168 294.645 244.257 294.56C244.345 294.475 244.449 294.408 244.564 294.364C244.678 294.32 244.8 294.3 244.923 294.304C245.044 294.301 245.164 294.323 245.276 294.368C245.388 294.413 245.49 294.48 245.575 294.565C245.661 294.651 245.728 294.752 245.773 294.865C245.818 294.977 245.839 295.097 245.836 295.218C245.838 295.338 245.815 295.458 245.77 295.57C245.725 295.682 245.658 295.784 245.573 295.87C245.488 295.956 245.386 296.024 245.275 296.071C245.163 296.118 245.044 296.142 244.923 296.142C244.8 296.144 244.677 296.122 244.563 296.077C244.448 296.032 244.344 295.964 244.256 295.878C244.168 295.792 244.098 295.69 244.05 295.576C244.002 295.463 243.978 295.341 243.978 295.218ZM244.104 286.041H245.7L245.427 292.887H244.377L244.104 286.041Z" fill="#407BFF"/>
<path d="M465.15 111.069C465.15 114.492 446.429 117.432 419.612 118.723L417.459 118.828L414.561 118.944C410.54 119.101 406.361 119.217 402.056 119.311H400.124H399.074C395.766 119.364 392.385 119.385 388.952 119.385C382.736 119.385 376.698 119.301 370.913 119.154L366.713 119.017C356.16 118.671 346.584 118.072 338.52 117.295C322.697 115.762 312.711 113.526 312.711 110.995C312.711 107.226 335.391 104.055 366.587 103.005L369.033 102.921C371.21 102.858 373.419 102.805 375.659 102.763C378.357 102.711 381.108 102.679 383.891 102.658H388.962C396.816 102.658 404.397 102.784 411.527 103.036L414.908 103.152L419.307 103.341L420.452 103.404L423.381 103.551C448.088 105 465.15 107.803 465.15 111.069Z" fill="#263238"/>
<path opacity="0.4" d="M465.15 111.069C465.15 114.492 446.429 117.432 419.612 118.724L417.459 118.829L414.561 118.944C410.54 119.102 406.361 119.217 402.056 119.312H400.124H399.074C395.766 119.364 392.385 119.385 388.952 119.385C382.736 119.385 376.698 119.301 370.913 119.154L366.713 119.018C356.16 118.671 346.584 118.073 338.52 117.296C322.697 115.763 312.711 113.526 312.711 110.996C312.711 109.883 314.696 108.812 318.297 107.846C324.949 109.404 331.709 110.457 338.52 110.996C346.584 111.773 356.16 112.371 366.713 112.718L370.913 112.854C376.698 113.001 382.736 113.085 388.952 113.085C392.385 113.085 395.766 113.085 399.074 113.012H400.124H402.056C406.361 112.917 410.54 112.802 414.561 112.644L417.459 112.529L419.612 112.424C437.703 111.552 452.099 109.935 459.564 107.919C463.113 108.896 465.15 109.946 465.15 111.069Z" fill="white"/>
<path d="M383.775 102.732C383.699 103.983 383.228 105.177 382.431 106.144C381.559 107.194 380.814 107.992 379.963 108.864C379.459 109.378 378.913 109.914 378.441 110.376C378.105 110.722 377.758 111.048 377.391 111.363C375.613 113.005 373.733 114.534 371.763 115.941L371.416 116.182L370.503 116.791C369.245 117.633 367.933 118.39 366.576 119.059C366.072 119.311 365.526 119.553 365.022 119.784C363.764 120.313 362.469 120.748 361.147 121.086C359.971 121.401 358.848 121.674 357.735 121.905C356.17 122.251 354.585 122.566 353.083 122.85C350.217 123.406 347.361 123.9 344.484 124.32C342.037 124.687 339.591 125.034 337.134 125.37C335.16 125.611 333.186 125.821 331.191 125.989C330.971 126.016 330.749 126.016 330.529 125.989C329.864 125.899 329.25 125.584 328.788 125.097C328.326 124.61 328.044 123.981 327.988 123.312C327.978 123.179 327.978 123.046 327.988 122.913C328.015 122.332 328.214 121.772 328.56 121.305C328.906 120.837 329.383 120.483 329.931 120.288L330.183 120.204C332.902 119.227 335.632 118.303 338.373 117.411L342.52 116.067C346.72 114.702 350.92 113.421 355.005 112.066C356.055 111.73 357.031 111.384 357.966 111.016C358.771 110.75 359.545 110.398 360.276 109.966C360.748 109.693 361.221 109.389 361.704 109.063C362.763 108.352 363.783 107.584 364.759 106.764C366.145 105.619 367.531 104.359 368.886 103.047C371.063 102.984 373.271 102.931 375.511 102.889C378.241 102.784 380.992 102.753 383.775 102.732Z" fill="#FFB573"/>
<path d="M383.901 106.974C383.827 107.194 383.743 107.404 383.659 107.614C383.575 107.824 383.481 108.034 383.376 108.244C383.284 108.45 383.178 108.65 383.061 108.843L382.714 109.441V109.494C382.476 109.865 382.224 110.215 381.958 110.544C381.675 110.911 381.381 111.268 381.066 111.594L380.772 111.919C380.315 112.408 379.831 112.871 379.323 113.305C379.155 113.463 378.976 113.61 378.798 113.746C378.737 113.808 378.67 113.865 378.598 113.914C377.024 115.17 375.337 116.278 373.558 117.222L372.918 117.547L372.288 117.862L372.046 117.967L371.28 117.295L370.629 116.707L369.159 115.405L361.809 108.927L361.252 108.433C361.252 108.433 363.499 105.924 366.502 102.994L368.949 102.91C371.126 102.847 373.334 102.795 375.574 102.753C378.273 102.7 381.024 102.669 383.806 102.648H384.415C384.566 104.11 384.39 105.588 383.901 106.974Z" fill="#407BFF"/>
<path opacity="0.7" d="M383.911 106.974C383.838 107.192 383.754 107.405 383.659 107.614C383.575 107.824 383.481 108.034 383.376 108.244C383.284 108.45 383.178 108.65 383.061 108.843L382.714 109.441V109.494C382.476 109.865 382.224 110.215 381.958 110.544C381.675 110.911 381.381 111.268 381.066 111.594L380.772 111.919C380.315 112.408 379.831 112.871 379.323 113.305C379.155 113.463 378.976 113.61 378.798 113.746C378.737 113.808 378.67 113.865 378.598 113.914C377.024 115.17 375.337 116.278 373.558 117.222L372.918 117.547L372.288 117.862L372.046 117.967L371.28 117.295L370.629 116.707L369.159 115.405L361.809 108.927L361.252 108.433C361.252 108.433 363.499 105.924 366.502 102.994L368.949 102.91C371.126 102.847 373.334 102.795 375.574 102.753C378.273 102.7 381.024 102.669 383.806 102.648H384.426C384.577 104.11 384.401 105.588 383.911 106.974Z" fill="white"/>
<path opacity="0.1" d="M378.525 113.988C376.503 115.604 374.292 116.969 371.941 118.052L369.054 115.5C370.57 110.996 373.303 106.998 376.95 103.95C378.262 106.386 378.682 111.479 378.525 113.988Z" fill="black"/>
<path d="M331.044 120.257L321.3 118.766L321.374 127.397C321.374 127.397 328.052 129.403 331.59 124.867L331.044 120.257Z" fill="#EBB376"/>
<path d="M314.653 121.097L316.26 127.513L321.363 127.397L321.289 118.766L314.653 121.097Z" fill="#EBB376"/>
<path d="M419.191 103.394C419.107 103.614 419.013 103.835 418.929 104.066C418.677 104.706 418.435 105.357 418.204 106.008C418.057 106.407 417.921 106.806 417.784 107.216C417.648 107.625 417.501 108.035 417.375 108.444C416.986 109.662 416.608 110.891 416.241 112.14C416.228 112.208 416.211 112.275 416.188 112.34C415.789 113.726 415.432 115.143 415.086 116.54V116.708C414.907 117.443 414.718 118.178 414.55 118.923C414.466 119.259 414.393 119.585 414.319 119.921C414.036 121.212 413.763 122.514 413.511 123.806C413.416 124.289 413.322 124.772 413.238 125.244C413.154 125.717 413.038 126.294 412.954 126.746C412.954 126.851 412.954 126.956 412.902 127.061C412.849 127.334 412.797 127.607 412.755 127.88C412.618 128.646 412.492 129.402 412.366 130.148C412.366 130.263 412.366 130.368 412.314 130.484L412.188 131.271C411.936 132.804 411.715 134.306 411.516 135.765C411.511 135.849 411.511 135.933 411.516 136.017C411.295 137.624 411.106 139.167 410.938 140.669C410.865 141.288 410.791 141.897 410.728 142.496C410.634 143.336 410.55 144.144 410.476 144.932C410.413 145.509 410.361 146.076 410.308 146.622C410.256 147.168 410.214 147.672 410.172 148.124C410.13 148.575 410.088 149.09 410.046 149.541C409.941 150.822 409.857 151.977 409.783 152.975C409.783 153.416 409.731 153.815 409.699 154.193C409.615 155.589 409.573 156.566 409.552 157.007C409.552 157.185 409.552 157.28 409.552 157.28L390.936 155.568H390.663L387.513 155.274L382.777 154.833L376.95 154.35L375.574 154.224L368.613 153.584C368.613 152.922 368.55 152.282 368.539 151.631C368.539 151.452 368.539 151.274 368.539 151.095C368.34 145.362 368.445 140.102 368.749 135.345C368.917 132.853 369.134 130.484 369.4 128.237C369.778 125.003 370.251 122.031 370.786 119.291C370.902 118.671 371.028 118.062 371.154 117.474C371.238 117.065 371.322 116.676 371.416 116.288C372.121 113.136 372.99 110.024 374.02 106.964C374.524 105.494 375.07 104.16 375.522 102.953C378.22 102.9 380.971 102.869 383.754 102.848H388.825C396.679 102.848 404.26 102.974 411.39 103.226L414.771 103.341L419.191 103.394Z" fill="#407BFF"/>
<path opacity="0.7" d="M419.191 103.394C419.107 103.614 419.013 103.835 418.929 104.066C418.677 104.706 418.435 105.357 418.204 106.008C418.057 106.407 417.921 106.806 417.784 107.216C417.648 107.625 417.501 108.035 417.375 108.444V108.518C416.986 109.715 416.629 110.912 416.272 112.14C416.26 112.208 416.242 112.275 416.22 112.34C415.716 114.125 415.243 115.941 414.802 117.768C414.708 118.157 414.624 118.556 414.54 118.944C414.456 119.333 414.382 119.606 414.309 119.942C414.025 121.233 413.752 122.535 413.5 123.827C413.395 124.31 413.301 124.793 413.217 125.276C413.122 125.769 413.028 126.273 412.944 126.767C412.944 126.872 412.944 126.987 412.881 127.092C412.828 127.365 412.776 127.638 412.734 127.911C412.597 128.678 412.471 129.434 412.345 130.179C412.345 130.295 412.345 130.4 412.293 130.515L412.167 131.303C411.925 132.836 411.694 134.337 411.495 135.797C411.49 135.881 411.49 135.965 411.495 136.049C411.274 137.655 411.085 139.199 410.917 140.7C410.844 141.32 410.77 141.929 410.707 142.527C410.613 143.367 410.529 144.176 410.455 144.963C410.392 145.541 410.34 146.108 410.287 146.654C410.235 147.2 410.193 147.704 410.151 148.155C410.109 148.607 410.067 149.121 410.025 149.573C409.92 150.854 409.836 152.009 409.762 153.006C409.762 153.447 409.71 153.846 409.678 154.224C409.594 155.621 409.552 156.597 409.531 157.038C409.531 157.217 409.531 157.311 409.531 157.311L390.915 155.6H390.642L387.492 155.306L382.756 154.865L376.95 154.35L375.574 154.224L368.613 153.584C368.613 152.922 368.55 152.282 368.539 151.631C368.539 151.452 368.539 151.274 368.539 151.095C368.34 145.362 368.445 140.102 368.749 135.345C368.917 132.853 369.134 130.484 369.4 128.237C369.778 125.003 370.251 122.031 370.786 119.291C370.902 118.671 371.028 118.062 371.154 117.474C371.238 117.065 371.322 116.676 371.416 116.288C372.121 113.136 372.99 110.024 374.02 106.964C374.524 105.494 375.07 104.16 375.522 102.953C378.22 102.9 380.971 102.869 383.754 102.848H388.825C396.679 102.848 404.26 102.974 411.39 103.226L414.771 103.341L419.191 103.394Z" fill="white"/>
<path d="M318.675 242.76C318.675 242.76 331.8 237.3 332.251 231.893C332.256 231.763 332.288 231.636 332.345 231.52C332.401 231.403 332.481 231.3 332.58 231.216C332.679 231.132 332.794 231.069 332.918 231.032C333.042 230.995 333.173 230.984 333.301 231L343.318 231.609C343.555 231.629 343.781 231.712 343.975 231.848C344.169 231.985 344.323 232.171 344.421 232.386L348.432 241.658L345.649 242.036L344.484 240.765L343.434 242.34C328.356 244.44 321.825 245.123 318.717 244.598C318.15 243.327 318.675 242.76 318.675 242.76Z" fill="black"/>
<path d="M380.195 188.233C379.617 188.107 379.302 188.013 379.302 188.013L332.052 182.112L346.101 232.144L331.8 233.509C331.8 233.509 299.166 170.562 312.501 161.479C325.836 152.397 367.185 162.424 367.185 162.424L368.813 149.961L409.92 153.027C416.525 194.113 385.865 189.42 380.195 188.233Z" fill="#263238"/>
<path d="M366.576 332.777C366.576 332.777 380.73 331.422 382.736 326.34C382.778 326.221 382.843 326.112 382.928 326.02C383.013 325.927 383.116 325.852 383.231 325.8C383.346 325.748 383.47 325.72 383.596 325.717C383.722 325.714 383.847 325.737 383.964 325.784L393.414 329.291C393.633 329.377 393.824 329.52 393.97 329.704C394.116 329.889 394.21 330.108 394.244 330.341L395.378 340.379L392.606 339.927L391.85 338.373L390.422 339.581C375.407 337.155 368.939 335.948 366.125 334.53C365.862 333.144 366.576 332.777 366.576 332.777Z" fill="black"/>
<path d="M410.329 167.916C410.266 168.168 408.555 176.043 406.318 187.331C406.192 187.971 406.066 188.643 405.93 189.305C404.88 194.67 403.725 200.708 402.591 206.997C401.205 214.652 399.829 222.747 398.674 230.381C397.108 239.944 396.088 249.588 395.619 259.266C395.073 283.595 394.054 331.601 394.054 331.601L380.961 329.501C380.961 329.501 373.726 278.303 373.81 253.512C373.873 237.762 377.779 205.307 380.446 185.126C381.79 174.773 382.819 167.633 382.819 167.633L397.656 167.769L410.329 167.916Z" fill="#263238"/>
<path d="M409.301 157.028L410.172 157.101L410.13 154.256L409.364 154.203L409.301 157.028Z" fill="#263238"/>
<path d="M376.982 154.518L394.517 155.883L394.601 153.059L377.129 151.715L376.982 154.518Z" fill="#263238"/>
<path d="M375.774 151.61L368.361 151.032L368.099 153.825L375.606 154.413L375.774 151.61Z" fill="#263238"/>
<path d="M408.009 154.098L395.945 153.164L395.892 155.988L407.915 156.923L408.009 154.098Z" fill="#263238"/>
<g opacity="0.2">
<path d="M409.301 157.028L410.172 157.101L410.13 154.256L409.364 154.203L409.301 157.028Z" fill="white"/>
<path d="M376.982 154.518L394.517 155.883L394.601 153.059L377.129 151.715L376.982 154.518Z" fill="white"/>
<path d="M375.774 151.61L368.361 151.032L368.099 153.825L375.606 154.413L375.774 151.61Z" fill="white"/>
<path d="M408.009 154.098L395.945 153.164L395.892 155.988L407.915 156.923L408.009 154.098Z" fill="white"/>
</g>
<path d="M387.282 155.694H387.198L382.83 155.285C382.602 155.266 382.39 155.159 382.239 154.986C382.088 154.814 382.01 154.59 382.022 154.361L382.085 152.649C382.088 152.529 382.117 152.41 382.17 152.302C382.222 152.193 382.297 152.097 382.389 152.019C382.477 151.937 382.582 151.875 382.696 151.837C382.81 151.799 382.931 151.786 383.051 151.799L387.398 152.135C387.626 152.151 387.839 152.255 387.992 152.426C388.145 152.596 388.225 152.819 388.217 153.048V154.833C388.215 154.955 388.188 155.074 388.137 155.184C388.087 155.295 388.013 155.393 387.923 155.474C387.745 155.627 387.516 155.705 387.282 155.694ZM382.977 152.544C382.95 152.535 382.92 152.535 382.893 152.544C382.886 152.559 382.883 152.575 382.883 152.591C382.883 152.608 382.886 152.624 382.893 152.639L382.82 154.35C382.818 154.368 382.82 154.385 382.826 154.402C382.832 154.418 382.841 154.433 382.853 154.446C382.864 154.459 382.879 154.469 382.895 154.476C382.911 154.483 382.928 154.487 382.946 154.487L387.314 154.896C387.33 154.903 387.348 154.907 387.366 154.907C387.384 154.907 387.402 154.903 387.419 154.896C387.431 154.866 387.431 154.832 387.419 154.802V153.017C387.419 152.982 387.406 152.949 387.382 152.924C387.359 152.898 387.327 152.883 387.293 152.88L382.946 152.544H382.977Z" fill="white"/>
<path d="M387.219 154.246L385.885 154.12C385.784 154.109 385.691 154.059 385.626 153.981C385.562 153.902 385.53 153.801 385.539 153.7C385.55 153.601 385.598 153.511 385.675 153.448C385.752 153.385 385.85 153.355 385.948 153.364L387.282 153.49C387.382 153.49 387.478 153.53 387.549 153.601C387.62 153.671 387.66 153.768 387.66 153.868C387.66 153.968 387.62 154.064 387.549 154.135C387.478 154.206 387.382 154.246 387.282 154.246H387.219Z" fill="white"/>
<path opacity="0.1" d="M416.188 112.35C415.684 114.135 415.212 115.952 414.771 117.779C414.603 118.503 414.435 119.228 414.277 119.952C413.49 123.512 412.818 127.082 412.261 130.526L412.135 131.313C404.922 133.634 397.435 132.038 397.677 125.087C398.023 115.773 405.961 111.437 405.961 111.437C409.5 109.494 413.206 110.25 416.188 112.35Z" fill="black"/>
<path d="M345.618 379.06H355.33L323.746 129.475H314.034L345.618 379.06Z" fill="#263238"/>
<path opacity="0.4" d="M345.618 379.06H355.33L323.746 129.475H314.034L345.618 379.06Z" fill="white"/>
<path d="M325.311 166.467H356.192C356.576 166.446 356.947 166.317 357.261 166.094C357.575 165.871 357.82 165.563 357.966 165.207L359.93 161.007H321.573L323.537 165.207C323.683 165.563 323.927 165.871 324.241 166.094C324.556 166.317 324.926 166.446 325.311 166.467Z" fill="#263238"/>
<path opacity="0.4" d="M325.311 166.467H356.192C356.576 166.446 356.947 166.317 357.261 166.094C357.575 165.871 357.82 165.563 357.966 165.207L359.93 161.007H321.573L323.537 165.207C323.683 165.563 323.927 165.871 324.241 166.094C324.556 166.317 324.926 166.446 325.311 166.467Z" fill="white"/>
<path d="M322.088 163.023H359.405C360.512 163.023 361.41 162.125 361.41 161.017V160.566C361.41 159.458 360.512 158.56 359.405 158.56H322.088C320.98 158.56 320.082 159.458 320.082 160.566V161.017C320.082 162.125 320.98 163.023 322.088 163.023Z" fill="#263238"/>
<path opacity="0.1" d="M322.088 163.023H359.405C360.512 163.023 361.41 162.125 361.41 161.017V160.566C361.41 159.458 360.512 158.56 359.405 158.56H322.088C320.98 158.56 320.082 159.458 320.082 160.566V161.017C320.082 162.125 320.98 163.023 322.088 163.023Z" fill="white"/>
<path d="M330.949 202.147H361.819C362.206 202.127 362.579 201.997 362.893 201.772C363.208 201.547 363.451 201.236 363.594 200.876L365.557 196.729H327.211L329.164 200.876C329.309 201.237 329.554 201.548 329.87 201.773C330.187 201.999 330.561 202.128 330.949 202.147Z" fill="#263238"/>
<path opacity="0.4" d="M330.949 202.147H361.819C362.206 202.127 362.579 201.997 362.893 201.772C363.208 201.547 363.451 201.236 363.594 200.876L365.557 196.729H327.211L329.164 200.876C329.309 201.237 329.554 201.548 329.87 201.773C330.187 201.999 330.561 202.128 330.949 202.147Z" fill="white"/>
<path d="M327.726 198.702H365.043C366.151 198.702 367.048 197.804 367.048 196.697V196.245C367.048 195.138 366.151 194.24 365.043 194.24H327.726C326.618 194.24 325.72 195.138 325.72 196.245V196.697C325.72 197.804 326.618 198.702 327.726 198.702Z" fill="#263238"/>
<path opacity="0.1" d="M327.726 198.702H365.043C366.151 198.702 367.048 197.804 367.048 196.697V196.245C367.048 195.138 366.151 194.24 365.043 194.24H327.726C326.618 194.24 325.72 195.138 325.72 196.245V196.697C325.72 197.804 326.618 198.702 327.726 198.702Z" fill="white"/>
<path d="M336.577 249.364H367.5C367.887 249.348 368.261 249.221 368.578 248.997C368.895 248.774 369.14 248.464 369.285 248.104L371.238 243.904H332.85L334.813 248.104C334.956 248.461 335.198 248.77 335.511 248.993C335.823 249.217 336.194 249.345 336.577 249.364Z" fill="#263238"/>
<path opacity="0.4" d="M336.577 249.364H367.5C367.887 249.348 368.261 249.221 368.578 248.997C368.895 248.774 369.14 248.464 369.285 248.104L371.238 243.904H332.85L334.813 248.104C334.956 248.461 335.198 248.77 335.511 248.993C335.823 249.217 336.194 249.345 336.577 249.364Z" fill="white"/>
<path d="M333.354 245.931H370.671C371.779 245.931 372.677 245.033 372.677 243.926V243.474C372.677 242.367 371.779 241.469 370.671 241.469H333.354C332.247 241.469 331.349 242.367 331.349 243.474V243.926C331.349 245.033 332.247 245.931 333.354 245.931Z" fill="#263238"/>
<path opacity="0.1" d="M333.354 245.931H370.671C371.779 245.931 372.677 245.033 372.677 243.926V243.474C372.677 242.367 371.779 241.469 370.671 241.469H333.354C332.247 241.469 331.349 242.367 331.349 243.474V243.926C331.349 245.033 332.247 245.931 333.354 245.931Z" fill="white"/>
<path d="M342.206 296.593H373.086C373.471 296.575 373.843 296.447 374.158 296.223C374.472 296 374.716 295.691 374.861 295.333L376.824 291.133H338.468L340.431 295.333C340.575 295.691 340.819 296 341.134 296.223C341.448 296.447 341.82 296.575 342.206 296.593Z" fill="#263238"/>
<path opacity="0.4" d="M342.206 296.593H373.086C373.471 296.575 373.843 296.447 374.158 296.223C374.472 296 374.716 295.691 374.861 295.333L376.824 291.133H338.468L340.431 295.333C340.575 295.691 340.819 296 341.134 296.223C341.448 296.447 341.82 296.575 342.206 296.593Z" fill="white"/>
<path d="M338.982 293.16H376.299C377.407 293.16 378.304 292.262 378.304 291.155V290.703C378.304 289.596 377.407 288.698 376.299 288.698H338.982C337.874 288.698 336.976 289.596 336.976 290.703V291.155C336.976 292.262 337.874 293.16 338.982 293.16Z" fill="#263238"/>
<path opacity="0.1" d="M338.982 293.16H376.299C377.407 293.16 378.304 292.262 378.304 291.155V290.703C378.304 289.596 377.407 288.698 376.299 288.698H338.982C337.874 288.698 336.976 289.596 336.976 290.703V291.155C336.976 292.262 337.874 293.16 338.982 293.16Z" fill="white"/>
<path d="M347.844 343.822H378.714C379.1 343.805 379.472 343.677 379.787 343.454C380.102 343.23 380.345 342.921 380.489 342.562L382.452 338.362H344.096L346.059 342.562C346.204 342.922 346.45 343.232 346.766 343.455C347.083 343.679 347.457 343.806 347.844 343.822Z" fill="#263238"/>
<path opacity="0.4" d="M347.844 343.822H378.714C379.1 343.805 379.472 343.677 379.787 343.454C380.102 343.23 380.345 342.921 380.489 342.562L382.452 338.362H344.096L346.059 342.562C346.204 342.922 346.45 343.232 346.766 343.455C347.083 343.679 347.457 343.806 347.844 343.822Z" fill="white"/>
<path d="M344.61 340.389H381.927C383.035 340.389 383.932 339.491 383.932 338.384V337.932C383.932 336.825 383.035 335.927 381.927 335.927H344.61C343.502 335.927 342.604 336.825 342.604 337.932V338.384C342.604 339.491 343.502 340.389 344.61 340.389Z" fill="#263238"/>
<path opacity="0.1" d="M344.61 340.389H381.927C383.035 340.389 383.932 339.491 383.932 338.384V337.932C383.932 336.825 383.035 335.927 381.927 335.927H344.61C343.502 335.927 342.604 336.825 342.604 337.932V338.384C342.604 339.491 343.502 340.389 344.61 340.389Z" fill="white"/>
<path d="M383.114 379.06H392.826L361.242 129.475H351.53L383.114 379.06Z" fill="#263238"/>
<path opacity="0.7" d="M383.114 379.06H392.826L361.242 129.475H351.53L383.114 379.06Z" fill="white"/>
<path d="M281.148 379.06H271.436L303.009 129.475H312.722L281.148 379.06Z" fill="#263238"/>
<path opacity="0.4" d="M281.148 379.06H271.436L303.009 129.475H312.722L281.148 379.06Z" fill="white"/>
<path d="M338.94 166.467H308.07C307.684 166.448 307.311 166.32 306.994 166.096C306.678 165.873 306.432 165.565 306.285 165.207L304.332 161.007H342.678L340.715 165.207C340.57 165.565 340.327 165.874 340.012 166.097C339.697 166.32 339.325 166.449 338.94 166.467Z" fill="#263238"/>
<path opacity="0.5" d="M338.94 166.467H308.07C307.684 166.448 307.311 166.32 306.994 166.096C306.678 165.873 306.432 165.565 306.285 165.207L304.332 161.007H342.678L340.715 165.207C340.57 165.565 340.327 165.874 340.012 166.097C339.697 166.32 339.325 166.449 338.94 166.467Z" fill="white"/>
<path d="M342.163 158.571H304.846C303.739 158.571 302.841 159.469 302.841 160.577V161.028C302.841 162.136 303.739 163.034 304.846 163.034H342.163C343.271 163.034 344.169 162.136 344.169 161.028V160.577C344.169 159.469 343.271 158.571 342.163 158.571Z" fill="#263238"/>
<path opacity="0.2" d="M342.163 158.571H304.846C303.739 158.571 302.841 159.469 302.841 160.577V161.028C302.841 162.136 303.739 163.034 304.846 163.034H342.163C343.271 163.034 344.169 162.136 344.169 161.028V160.577C344.169 159.469 343.271 158.571 342.163 158.571Z" fill="white"/>
<path d="M333.312 202.147H302.4C302.014 202.126 301.642 201.996 301.327 201.771C301.013 201.545 300.769 201.235 300.626 200.876L298.662 196.729H337.05L335.087 200.876C334.943 201.235 334.699 201.545 334.385 201.771C334.071 201.996 333.698 202.126 333.312 202.147Z" fill="#263238"/>
<path opacity="0.5" d="M333.312 202.147H302.4C302.014 202.126 301.642 201.996 301.327 201.771C301.013 201.545 300.769 201.235 300.626 200.876L298.662 196.729H337.05L335.087 200.876C334.943 201.235 334.699 201.545 334.385 201.771C334.071 201.996 333.698 202.126 333.312 202.147Z" fill="white"/>
<path d="M336.536 194.24H299.219C298.111 194.24 297.213 195.138 297.213 196.245V196.697C297.213 197.804 298.111 198.702 299.219 198.702H336.536C337.643 198.702 338.541 197.804 338.541 196.697V196.245C338.541 195.138 337.643 194.24 336.536 194.24Z" fill="#263238"/>
<path opacity="0.2" d="M336.536 194.24H299.219C298.111 194.24 297.213 195.138 297.213 196.245V196.697C297.213 197.804 298.111 198.702 299.219 198.702H336.536C337.643 198.702 338.541 197.804 338.541 196.697V196.245C338.541 195.138 337.643 194.24 336.536 194.24Z" fill="white"/>
<path d="M327.674 249.364H296.804C296.418 249.347 296.045 249.219 295.731 248.996C295.416 248.772 295.172 248.463 295.029 248.104L293.066 243.904H331.412L329.459 248.104C329.314 248.464 329.068 248.774 328.752 248.997C328.435 249.221 328.061 249.348 327.674 249.364Z" fill="#263238"/>
<path opacity="0.5" d="M327.674 249.364H296.804C296.418 249.347 296.045 249.219 295.731 248.996C295.416 248.772 295.172 248.463 295.029 248.104L293.066 243.904H331.412L329.459 248.104C329.314 248.464 329.068 248.774 328.752 248.997C328.435 249.221 328.061 249.348 327.674 249.364Z" fill="white"/>
<path d="M330.897 241.469H293.58C292.472 241.469 291.574 242.367 291.574 243.474V243.926C291.574 245.033 292.472 245.931 293.58 245.931H330.897C332.005 245.931 332.902 245.033 332.902 243.926V243.474C332.902 242.367 332.005 241.469 330.897 241.469Z" fill="#263238"/>
<path opacity="0.2" d="M330.897 241.469H293.58C292.472 241.469 291.574 242.367 291.574 243.474V243.926C291.574 245.033 292.472 245.931 293.58 245.931H330.897C332.005 245.931 332.902 245.033 332.902 243.926V243.474C332.902 242.367 332.005 241.469 330.897 241.469Z" fill="white"/>
<path d="M322.045 296.593H291.175C290.789 296.576 290.415 296.448 290.099 296.224C289.782 296.001 289.537 295.692 289.39 295.333L287.438 291.133H325.783L323.82 295.333C323.677 295.692 323.433 296.001 323.119 296.225C322.804 296.448 322.431 296.576 322.045 296.593Z" fill="#263238"/>
<path opacity="0.5" d="M322.045 296.593H291.175C290.789 296.576 290.415 296.448 290.099 296.224C289.782 296.001 289.537 295.692 289.39 295.333L287.438 291.133H325.783L323.82 295.333C323.677 295.692 323.433 296.001 323.119 296.225C322.804 296.448 322.431 296.576 322.045 296.593Z" fill="white"/>
<path d="M325.269 288.698H287.952C286.844 288.698 285.946 289.596 285.946 290.703V291.155C285.946 292.262 286.844 293.16 287.952 293.16H325.269C326.377 293.16 327.274 292.262 327.274 291.155V290.703C327.274 289.596 326.377 288.698 325.269 288.698Z" fill="#263238"/>
<path opacity="0.2" d="M325.269 288.698H287.952C286.844 288.698 285.946 289.596 285.946 290.703V291.155C285.946 292.262 286.844 293.16 287.952 293.16H325.269C326.377 293.16 327.274 292.262 327.274 291.155V290.703C327.274 289.596 326.377 288.698 325.269 288.698Z" fill="white"/>
<path d="M316.417 343.822H285.537C285.152 343.804 284.78 343.676 284.465 343.452C284.151 343.229 283.907 342.92 283.762 342.562L281.799 338.362H320.155L318.192 342.562C318.049 342.921 317.805 343.23 317.49 343.454C317.176 343.677 316.803 343.805 316.417 343.822Z" fill="#263238"/>
<path opacity="0.5" d="M316.417 343.822H285.537C285.152 343.804 284.78 343.676 284.465 343.452C284.151 343.229 283.907 342.92 283.762 342.562L281.799 338.362H320.155L318.192 342.562C318.049 342.921 317.805 343.23 317.49 343.454C317.176 343.677 316.803 343.805 316.417 343.822Z" fill="white"/>
<path d="M319.641 335.927H282.324C281.216 335.927 280.318 336.825 280.318 337.932V338.384C280.318 339.491 281.216 340.389 282.324 340.389H319.641C320.749 340.389 321.646 339.491 321.646 338.384V337.932C321.646 336.825 320.749 335.927 319.641 335.927Z" fill="#263238"/>
<path opacity="0.2" d="M319.641 335.927H282.324C281.216 335.927 280.318 336.825 280.318 337.932V338.384C280.318 339.491 281.216 340.389 282.324 340.389H319.641C320.749 340.389 321.646 339.491 321.646 338.384V337.932C321.646 336.825 320.749 335.927 319.641 335.927Z" fill="white"/>
<path d="M318.633 379.06H308.921L340.505 129.475H350.217L318.633 379.06Z" fill="#263238"/>
<path opacity="0.7" d="M318.633 379.06H308.921L340.505 129.475H350.217L318.633 379.06Z" fill="white"/>
<path d="M362.796 130.746H301.245C300.86 130.725 300.489 130.596 300.175 130.373C299.861 130.15 299.617 129.842 299.47 129.486L297.507 125.286H366.534L364.581 129.486C364.428 129.84 364.18 130.144 363.865 130.367C363.55 130.589 363.18 130.72 362.796 130.746Z" fill="#263238"/>
<path opacity="0.5" d="M362.796 130.746H301.245C300.86 130.725 300.489 130.596 300.175 130.373C299.861 130.15 299.617 129.842 299.47 129.486L297.507 125.286H366.534L364.581 129.486C364.428 129.84 364.18 130.144 363.865 130.367C363.55 130.589 363.18 130.72 362.796 130.746Z" fill="white"/>
<path d="M366.019 122.851H298.032C296.924 122.851 296.026 123.748 296.026 124.856V125.308C296.026 126.415 296.924 127.313 298.032 127.313H366.019C367.127 127.313 368.025 126.415 368.025 125.308V124.856C368.025 123.748 367.127 122.851 366.019 122.851Z" fill="#263238"/>
<path opacity="0.2" d="M366.019 122.851H298.032C296.924 122.851 296.026 123.748 296.026 124.856V125.308C296.026 126.415 296.924 127.313 298.032 127.313H366.019C367.127 127.313 368.025 126.415 368.025 125.308V124.856C368.025 123.748 367.127 122.851 366.019 122.851Z" fill="white"/>
<path d="M367.101 129.707L359.027 124.016L355.247 131.776C355.247 131.776 360.329 136.543 365.516 134.065L367.101 129.707Z" fill="#EBB376"/>
<path d="M352.055 123.144L350.627 129.602L355.247 131.775L359.027 124.016L352.055 123.144Z" fill="#EBB376"/>
<path d="M422.299 111.752C420.714 114.198 419.097 116.54 417.406 118.829C416.136 120.519 414.834 122.189 413.469 123.827C413.059 124.331 412.639 124.824 412.219 125.318C411.39 126.273 410.55 127.229 409.668 128.174C408.618 129.35 407.431 130.505 406.203 131.639L405.499 132.269C404.583 133.117 403.618 133.913 402.612 134.652C401.114 135.774 399.472 136.689 397.729 137.372C397.214 137.572 396.684 137.734 396.144 137.855C395.629 137.981 395.188 138.044 394.716 138.128C393.884 138.241 393.046 138.311 392.206 138.338C390.621 138.39 389.14 138.338 387.681 138.264C384.783 138.107 381.99 137.718 379.228 137.309C375.7 136.752 372.235 136.059 368.802 135.209C367.531 134.915 366.271 134.589 365.011 134.253L363.006 133.697C362.367 133.509 361.81 133.11 361.428 132.564C361.047 132.018 360.862 131.358 360.906 130.694C360.92 130.481 360.956 130.27 361.011 130.064C361.161 129.518 361.468 129.028 361.894 128.655C362.319 128.282 362.844 128.042 363.405 127.964C363.583 127.943 363.763 127.943 363.94 127.964H363.993H364.728C366.313 128.016 367.878 128.079 369.484 128.121C373.023 128.247 376.551 128.342 379.984 128.394C382.62 128.394 385.234 128.394 387.765 128.31C389.025 128.258 390.253 128.153 391.366 127.995C392.2 127.936 393.017 127.734 393.781 127.397C394.511 126.977 395.194 126.481 395.818 125.916C396.448 125.37 397.11 124.761 397.761 124.1C397.95 123.921 398.128 123.732 398.307 123.543C398.674 123.165 399.031 122.766 399.357 122.367C400.26 121.38 401.131 120.351 402.003 119.291C402.391 118.808 402.79 118.325 403.179 117.831C405.069 115.448 406.948 112.938 408.765 110.408C410.004 108.696 411.222 106.964 412.398 105.263L412.461 105.158C413.046 104.302 413.852 103.62 414.792 103.184L419.191 103.373L420.336 103.436C420.456 103.501 420.572 103.575 420.682 103.656C421.953 104.53 422.832 105.864 423.134 107.376C423.436 108.887 423.137 110.457 422.299 111.752Z" fill="#FFB573"/>
<path d="M419.559 118.724C417.575 121.588 415.352 124.279 412.913 126.767C412.262 127.439 411.569 128.132 410.813 128.867L409.637 128.205L399.336 122.409L398.381 121.874C398.381 121.874 399.053 120.824 400.05 119.364C401.3 117.474 403.074 114.776 404.723 112.235C406.004 110.24 407.201 108.339 407.988 106.985C408.863 105.484 410.018 104.165 411.39 103.1L414.771 103.215L419.171 103.404L420.315 103.467L423.245 103.614C424.599 106.743 424.305 111.71 419.559 118.724Z" fill="#407BFF"/>
<path opacity="0.7" d="M419.559 118.724C417.575 121.588 415.352 124.279 412.913 126.767C412.262 127.439 411.569 128.132 410.813 128.867L409.637 128.205L399.336 122.409L398.381 121.874C398.381 121.874 399.053 120.824 400.05 119.364C401.3 117.474 403.074 114.776 404.723 112.235C406.004 110.24 407.201 108.339 407.988 106.985C408.863 105.484 410.018 104.165 411.39 103.1L414.771 103.215L419.171 103.404L420.315 103.467L423.245 103.614C424.599 106.743 424.305 111.71 419.559 118.724Z" fill="white"/>
<path d="M266.007 378.882C266.012 378.942 266.012 379.002 266.007 379.061C266.012 379.089 266.012 379.117 266.007 379.145C265.994 379.199 265.977 379.252 265.954 379.302C265.924 379.373 265.885 379.44 265.839 379.502C265.793 379.577 265.741 379.647 265.681 379.712C265.186 380.194 264.601 380.576 263.959 380.835L263.445 381.056C262.941 381.266 262.395 381.465 261.733 381.665C261.334 381.791 260.914 381.906 260.463 382.032C253.113 384.017 238.99 385.613 221.235 386.495L219.135 386.6L215.691 386.747L212.152 386.873L209.706 386.957C207.763 387.009 205.8 387.062 203.805 387.093H203.08H201.726H200.413C198.576 387.093 196.717 387.093 194.848 387.156H189.777C183.645 387.156 177.67 387.083 171.927 386.925L169.386 386.841C168.651 386.841 167.916 386.841 167.191 386.778L163.81 386.663L159.411 386.474L158.266 386.411L155.337 386.264C150.517 385.991 145.992 385.676 141.834 385.298C131.88 384.416 123.984 383.271 119.101 381.948L118.681 381.833L118.219 381.696C117.432 381.465 116.749 381.224 116.119 380.993C115.899 380.898 115.689 380.814 115.5 380.72C115.186 380.573 114.881 380.408 114.586 380.226C114.486 380.169 114.391 380.102 114.303 380.027L114.072 379.848L113.851 379.628C113.793 379.567 113.74 379.5 113.694 379.428C113.617 379.317 113.56 379.192 113.526 379.061V378.945C113.521 378.897 113.521 378.847 113.526 378.798C113.526 375.375 132.247 372.435 159.064 371.144L161.217 371.039L164.115 370.923L168.567 370.766L170.971 370.692L176.62 370.556H176.925H178.552H179.655C181.314 370.556 182.983 370.556 184.674 370.503H185.178C186.7 370.503 188.233 370.503 189.777 370.503C195.993 370.503 202.03 370.587 207.816 370.734L212.016 370.871L213.801 370.934H213.979L215.932 371.007L217.213 371.06L220.531 371.207L223.681 371.364C229.687 371.69 235.231 372.099 240.229 372.582C256.021 374.147 266.007 376.383 266.007 378.882Z" fill="#263238"/>
<path opacity="0.4" d="M113.505 378.882C113.505 375.459 132.227 372.519 159.044 371.227L161.196 371.122L164.094 371.007C168.116 370.849 172.295 370.734 176.6 370.639H178.532H179.634C182.942 370.587 186.323 370.566 189.756 370.566C195.972 370.566 202.01 370.65 207.795 370.797L211.995 370.933C222.548 371.28 232.124 371.878 240.188 372.655C256.011 374.188 265.997 376.425 265.997 378.955C265.997 380.068 264.012 381.139 260.411 382.105C253.759 380.547 246.998 379.494 240.188 378.955C232.124 378.178 222.548 377.58 211.995 377.233L207.795 377.097C202.01 376.95 195.972 376.866 189.756 376.866C186.323 376.866 182.942 376.866 179.634 376.939H178.5H176.568C172.263 377.034 168.084 377.149 164.063 377.307L161.165 377.422L159.012 377.527C140.921 378.399 126.525 380.016 119.112 382.032C115.5 381.055 113.505 380.005 113.505 378.882Z" fill="white"/>
<path d="M183.341 375.007C182.763 375.7 182.228 376.299 181.692 376.876C181.419 377.16 181.157 377.443 180.873 377.727C180.369 378.241 179.876 378.777 179.361 379.239C179.025 379.575 178.679 379.9 178.311 380.226C176.532 381.871 174.648 383.401 172.673 384.804L172.337 385.035C172.043 385.245 171.738 385.444 171.423 385.654C170.762 386.095 170.079 386.526 169.323 386.925C168.588 386.925 167.853 386.925 167.129 386.862L163.748 386.746L159.348 386.557L158.204 386.494L155.274 386.347C150.455 386.074 145.929 385.759 141.771 385.381L143.409 384.856C147.609 383.491 151.809 382.21 155.904 380.866C156.954 380.52 157.931 380.184 158.865 379.816C159.67 379.55 160.445 379.198 161.175 378.766C161.637 378.493 162.12 378.189 162.603 377.863C162.855 377.695 163.118 377.517 163.38 377.317C164.136 376.782 164.892 376.183 165.638 375.564C167.15 374.325 168.63 372.96 170.1 371.542L170.888 370.765C171.36 370.314 171.822 369.862 172.274 369.39L174.374 367.29L174.5 367.153C175.133 366.495 175.909 365.991 176.769 365.682C177.629 365.372 178.548 365.265 179.456 365.368C180.78 365.52 182.013 366.117 182.954 367.061C183.894 368.005 184.486 369.241 184.632 370.566C184.725 371.355 184.658 372.154 184.436 372.917C184.214 373.68 183.842 374.391 183.341 375.007Z" fill="#FFB573"/>
<path d="M180.989 362.953C175.13 362.817 162.089 377.38 162.089 377.38L172.851 386.914C172.851 386.914 182.458 382.714 184.81 375.837C187.162 368.959 180.989 362.953 180.989 362.953Z" fill="#407BFF"/>
<path opacity="0.7" d="M184.8 375.837C183.684 378.625 181.82 381.052 179.414 382.851C177.392 384.466 175.181 385.831 172.83 386.914L169.943 384.352L162.068 377.38C162.068 377.38 175.098 362.817 180.968 362.953C180.989 362.953 187.184 368.917 184.8 375.837Z" fill="white"/>
<path opacity="0.1" d="M179.445 382.851C177.423 384.467 175.212 385.831 172.861 386.914L169.974 384.352C171.508 379.863 174.251 375.885 177.901 372.855C179.182 375.249 179.602 380.341 179.445 382.851Z" fill="black"/>
<path d="M221.456 369.096C221.393 369.233 221.33 369.359 221.277 369.495C221.109 369.863 220.952 370.23 220.794 370.608C220.699 370.803 220.615 371.003 220.542 371.207C220.52 371.247 220.503 371.289 220.49 371.333C220.412 371.489 220.346 371.651 220.29 371.816C220.112 372.236 219.944 372.666 219.776 373.107C219.608 373.548 219.366 374.21 219.167 374.766C219.167 374.766 219.167 374.819 219.167 374.84C219.02 375.239 218.883 375.638 218.747 376.047C218.61 376.457 218.463 376.866 218.337 377.276C218.333 377.318 218.333 377.36 218.337 377.402C218.211 377.78 218.085 378.158 217.97 378.536C217.728 379.334 217.487 380.132 217.256 380.951L217.193 381.171C216.689 382.956 216.216 384.773 215.775 386.6C215.77 386.638 215.77 386.677 215.775 386.715L212.237 386.841L209.79 386.925C207.848 386.978 205.884 387.03 203.889 387.062H203.165H201.81H200.498C198.66 387.062 196.802 387.062 194.933 387.125H189.861C183.729 387.125 177.755 387.051 172.011 386.894L172.169 386.117C172.169 385.949 172.242 385.791 172.284 385.634C172.326 385.476 172.347 385.319 172.389 385.161C172.41 385.085 172.428 385.008 172.442 384.93C172.911 382.83 173.401 380.916 173.912 379.187C174.101 378.578 174.269 378 174.447 377.423C174.51 377.244 174.563 377.066 174.626 376.887C174.762 376.457 174.899 376.047 175.035 375.648L175.256 375.008C175.371 374.682 175.487 374.357 175.602 374.052C175.718 373.748 175.865 373.328 175.991 373.002L176.337 372.12L176.967 370.598C177.45 369.443 177.923 368.435 178.364 367.542C178.448 367.395 178.521 367.238 178.595 367.091L179.036 366.24L179.55 365.306C179.582 365.259 179.61 365.21 179.634 365.159C179.813 364.833 179.991 364.539 180.149 364.287L180.558 363.636L181.052 362.922C184.168 362.625 187.299 362.523 190.428 362.618C191.09 362.618 191.762 362.67 192.444 362.712C193.127 362.754 193.746 362.817 194.46 362.901C195.962 363.069 197.61 363.3 199.364 363.584L202.661 364.151C203.763 364.35 204.855 364.55 205.905 364.76L206.462 364.875C207.291 365.033 208.1 365.201 208.845 365.358C209.36 365.463 209.895 365.579 210.378 365.705C210.641 365.768 210.893 365.82 211.145 365.894L211.911 366.083C212.867 366.324 213.812 366.587 214.704 366.839L215.576 367.101L217.203 367.605L218.631 368.067C220.259 368.603 221.34 369.002 221.498 369.054L221.456 369.096Z" fill="#407BFF"/>
<path opacity="0.7" d="M221.466 369.096C221.403 369.233 221.34 369.359 221.287 369.495C221.119 369.863 220.951 370.23 220.804 370.608C220.706 370.804 220.622 371.004 220.552 371.207C220.548 371.249 220.548 371.291 220.552 371.333C220.475 371.489 220.409 371.65 220.353 371.816C220.174 372.236 220.006 372.666 219.838 373.107C219.67 373.548 219.418 374.21 219.229 374.766C219.229 374.766 219.229 374.819 219.229 374.84C219.082 375.239 218.946 375.638 218.809 376.047C218.673 376.457 218.526 376.866 218.4 377.276V377.349C218.274 377.727 218.148 378.105 218.032 378.483C217.791 379.281 217.549 380.079 217.318 380.898L217.255 381.119C216.751 382.904 216.279 384.72 215.838 386.547C215.833 386.586 215.833 386.624 215.838 386.663L212.299 386.789L209.853 386.873C207.91 386.925 205.947 386.978 203.952 387.009H203.227H201.873H200.56C198.723 387.009 196.864 387.009 194.995 387.072H189.924C183.792 387.072 177.817 386.999 172.074 386.841L172.231 386.075C172.305 385.739 172.368 385.424 172.441 385.109C172.463 385.033 172.48 384.956 172.494 384.878C172.963 382.778 173.453 380.863 173.964 379.134C174.153 378.525 174.321 377.948 174.499 377.37C174.562 377.192 174.615 377.013 174.678 376.835C174.814 376.404 174.951 375.995 175.087 375.596L175.308 374.955C175.423 374.63 175.539 374.304 175.654 374C175.77 373.695 175.917 373.275 176.043 372.95L176.389 372.068L177.019 370.545C177.502 369.39 177.975 368.382 178.405 367.49C178.489 367.343 178.563 367.185 178.636 367.038L179.077 366.188L179.592 365.253C179.624 365.207 179.652 365.157 179.676 365.106L180.19 364.235L180.6 363.584L181.093 362.87C184.209 362.572 187.341 362.47 190.47 362.565C191.131 362.565 191.803 362.618 192.486 362.66C193.168 362.702 193.788 362.765 194.502 362.849C196.003 363.017 197.652 363.248 199.405 363.531L202.702 364.098C203.805 364.298 204.897 364.497 205.947 364.707L206.503 364.823C207.333 364.98 208.141 365.148 208.887 365.306C209.401 365.411 209.937 365.526 210.42 365.652C210.682 365.715 210.934 365.768 211.186 365.841L211.953 366.02C212.908 366.261 213.853 366.524 214.746 366.786L215.617 367.049L217.245 367.553L218.673 368.015C220.3 368.55 221.382 368.949 221.539 369.002L221.466 369.096Z" fill="white"/>
<path d="M202.472 350.123C202.472 350.123 202.797 361.295 203.858 362.954C204.918 364.613 208.751 365.379 208.751 365.379C208.751 365.379 199.542 369.957 195.237 369.096C190.932 368.235 188.864 362.618 188.864 362.618C188.864 362.618 191.867 362.733 192.602 362.324C193.337 361.914 192.024 354.512 192.024 354.512L202.472 350.123Z" fill="#EBB376"/>
<path opacity="0.2" d="M192.906 357.294L192.528 357.83C192.297 356.097 192.024 354.512 192.024 354.512L202.461 350.123C202.461 350.123 202.734 359.121 203.511 362.166C199.29 362.607 194.355 359.478 192.906 357.294Z" fill="black"/>
<path d="M198.901 331.359C201.757 332.85 205.842 337.659 201.369 339.265C196.896 340.872 193.998 328.807 198.901 331.359Z" fill="#263238"/>
<path d="M186.207 349.944C188.398 352.62 190.785 355.129 193.347 357.452C195.189 359.012 197.449 359.994 199.847 360.276C208.247 361.326 213.685 352.38 210.294 344.999C209.901 344.153 209.463 343.329 208.981 342.531C205.296 336.462 198.208 330.089 191.194 332.168C189.427 332.692 187.821 333.656 186.527 334.97C185.232 336.284 184.292 337.904 183.794 339.679C183.296 341.455 183.256 343.328 183.678 345.123C184.1 346.918 184.97 348.577 186.207 349.944Z" fill="#EBB376"/>
<path d="M189.662 349.44L190.05 350.7C190.788 353.124 191.916 355.412 193.389 357.473C195.231 359.033 197.492 360.015 199.889 360.297C208.289 361.347 213.728 352.401 210.336 345.02C209.943 344.174 209.505 343.35 209.024 342.552C209.024 342.552 209.654 345.513 209.108 346.889C209.108 346.889 205.958 346.08 204.404 347.372C204.404 347.372 201.065 346.458 198.23 349.997C196.934 350.844 195.398 351.248 193.853 351.148C192.308 351.047 190.837 350.448 189.662 349.44Z" fill="#263238"/>
<path opacity="0.5" d="M189.662 349.44L190.05 350.7C190.788 353.124 191.916 355.412 193.389 357.473C195.231 359.033 197.492 360.015 199.889 360.297C208.289 361.347 213.728 352.401 210.336 345.02C209.943 344.174 209.505 343.35 209.024 342.552C209.024 342.552 209.654 345.513 209.108 346.889C209.108 346.889 205.958 346.08 204.404 347.372C204.404 347.372 201.065 346.458 198.23 349.997C196.934 350.844 195.398 351.248 193.853 351.148C192.308 351.047 190.837 350.448 189.662 349.44Z" fill="white"/>
<path d="M177.45 346.017C173.638 342.815 177.25 338.184 181.24 336.567C181.672 336.396 182.039 336.095 182.29 335.706L187.026 342.983C186.595 343.182 186.165 343.382 185.755 343.539C185.755 343.539 191.289 348.432 190.753 353.304C183.025 355.488 175.57 351.509 177.45 346.017Z" fill="#263238"/>
<path d="M187.877 357C188.687 357.551 189.6 357.934 190.561 358.127C191.522 358.32 192.512 358.319 193.473 358.123C193.659 358.088 193.841 358.039 194.019 357.976C195.615 356.475 190.869 351.193 190.649 350.92C190.141 350.766 189.606 350.723 189.08 350.796C188.554 350.868 188.05 351.054 187.604 351.34C187.152 351.673 186.79 352.112 186.549 352.618C186.308 353.125 186.196 353.683 186.223 354.243C186.25 354.803 186.415 355.348 186.704 355.829C186.992 356.31 187.395 356.712 187.877 357Z" fill="#EBB376"/>
<path d="M196.938 344.19C197.327 344.694 197.915 344.893 198.251 344.631C198.587 344.368 198.524 343.739 198.125 343.235C197.726 342.731 197.138 342.531 196.812 342.793C196.487 343.056 196.539 343.686 196.938 344.19Z" fill="#263238"/>
<path d="M202.65 339.644C203.039 340.148 203.627 340.348 203.963 340.085C204.299 339.823 204.236 339.203 203.837 338.689C203.438 338.174 202.85 337.985 202.524 338.258C202.199 338.531 202.22 339.151 202.65 339.644Z" fill="#263238"/>
<path d="M201.001 341.345C202.794 342.343 204.716 343.088 206.713 343.56C206.461 345.051 204.613 345.881 204.613 345.881L201.001 341.345Z" fill="#D58745"/>
<path d="M194.681 340.284C194.622 340.315 194.573 340.362 194.54 340.42C194.506 340.477 194.49 340.543 194.492 340.609C194.5 341.086 194.396 341.557 194.188 341.986C193.98 342.415 193.674 342.789 193.295 343.077C193.213 343.134 193.156 343.22 193.135 343.317C193.114 343.414 193.129 343.516 193.179 343.602C193.206 343.644 193.241 343.681 193.281 343.71C193.322 343.738 193.369 343.759 193.417 343.769C193.466 343.78 193.517 343.781 193.566 343.772C193.615 343.763 193.662 343.745 193.704 343.717C194.193 343.354 194.588 342.878 194.855 342.33C195.122 341.781 195.253 341.177 195.237 340.567C195.237 340.469 195.199 340.374 195.13 340.304C195.061 340.233 194.968 340.192 194.87 340.189C194.799 340.202 194.733 340.235 194.681 340.284Z" fill="#263238"/>
<path d="M203.543 335.538C203.603 335.494 203.647 335.431 203.669 335.36C203.703 335.266 203.699 335.163 203.657 335.073C203.616 334.983 203.541 334.912 203.448 334.877C202.89 334.66 202.288 334.581 201.694 334.649C201.099 334.717 200.53 334.928 200.036 335.265C199.97 335.329 199.93 335.415 199.923 335.507C199.916 335.599 199.943 335.689 199.998 335.763C200.054 335.836 200.134 335.887 200.224 335.905C200.314 335.924 200.407 335.909 200.487 335.864C200.883 335.602 201.336 335.441 201.808 335.393C202.28 335.346 202.756 335.414 203.196 335.591C203.254 335.611 203.315 335.618 203.376 335.608C203.436 335.599 203.494 335.575 203.543 335.538Z" fill="#263238"/>
<path d="M204.582 352.8C204.787 352.722 204.987 352.631 205.18 352.527L205.695 348.39C205.695 348.39 205.443 348.39 205.054 348.39C203.752 348.39 200.854 348.684 200.077 350.175C199.993 350.346 199.926 350.525 199.878 350.71C199.682 351.377 199.73 352.092 200.014 352.726C200.487 353.608 201.747 354.07 204.582 352.8Z" fill="#263238"/>
<path d="M199.878 350.7L204.929 348.873L205.055 348.38C203.753 348.38 200.855 348.674 200.078 350.165C199.993 350.336 199.926 350.515 199.878 350.7Z" fill="white"/>
<path d="M204.582 352.8C203.7 351.33 201.348 352.086 200.014 352.737C200.487 353.609 201.747 354.071 204.582 352.8Z" fill="#DE5753"/>
<path d="M177.45 346.017C175.896 344.82 173.628 341.597 176.673 338.237C179.718 334.877 183.32 333.218 181.619 330.782C179.918 328.346 182.931 326.277 185.052 327.863C185.052 327.863 190.04 319.704 193.589 325.973C193.589 325.973 197.064 323.579 199.196 326.151C201.327 328.724 201.768 331.475 198.965 332.451C196.161 333.428 195.899 333.732 196.382 335.36C196.865 336.987 194.429 338.331 194.429 338.331C194.429 338.331 195.941 337.365 195.08 336.231C194.928 336.95 194.57 337.609 194.049 338.127C193.529 338.645 192.869 339.001 192.15 339.15C189.431 340.001 190.691 342.647 190.691 342.647C190.691 342.647 189.231 343.214 188.916 341.135C188.916 341.135 187.782 345.776 184.716 346.931C181.65 348.086 179.76 347.813 177.45 346.017Z" fill="#263238"/>
<path opacity="0.1" d="M217.109 381.203C216.605 382.988 216.132 384.804 215.691 386.631C215.686 386.67 215.686 386.708 215.691 386.747L212.153 386.873L209.706 386.957C207.764 387.009 205.8 387.062 203.805 387.093H203.081H201.726H200.414C201.687 384.7 203.481 382.622 205.664 381.014C206.052 380.719 206.459 380.449 206.882 380.205C207.755 379.726 208.703 379.396 209.685 379.229C212.322 378.893 214.987 379.601 217.109 381.203Z" fill="black"/>
<path d="M224.154 377.727C224.101 378.754 223.779 379.75 223.22 380.614C221.886 382.714 220.532 384.667 219.114 386.599L215.67 386.746L212.132 386.872L209.685 386.956C207.743 387.009 205.779 387.061 203.784 387.093C203.9 386.967 203.994 386.841 204.099 386.715C205.989 384.331 207.869 381.822 209.685 379.291C210.2 378.588 210.735 377.874 211.197 377.191C211.922 376.141 212.615 375.175 213.297 374.178L213.371 374.073C214.116 372.996 215.197 372.196 216.445 371.799C217.694 371.402 219.038 371.43 220.269 371.878C220.742 372.05 221.19 372.283 221.603 372.571C222.432 373.141 223.102 373.915 223.549 374.817C223.996 375.719 224.204 376.721 224.154 377.727Z" fill="#FFB573"/>
<path d="M224.753 377.759C224.192 380.888 222.979 383.865 221.193 386.495L219.093 386.6L215.649 386.747L212.111 386.873L209.664 386.957C207.722 387.009 205.758 387.062 203.763 387.093H203.039H201.684C202.85 385.329 204.288 383.124 205.643 381.035C206.567 379.586 207.449 378.2 208.163 377.024L208.908 375.795C210.079 373.771 211.759 372.088 213.78 370.913C216.101 369.595 218.748 368.962 221.414 369.086C222.309 369.667 223.063 370.442 223.619 371.354C224.748 373.285 225.15 375.557 224.753 377.759Z" fill="#407BFF"/>
<path opacity="0.7" d="M224.753 377.759C224.192 380.888 222.979 383.865 221.193 386.495L219.093 386.6L215.649 386.747L212.111 386.873L209.664 386.957C207.722 387.009 205.758 387.062 203.763 387.093H203.039H201.684C202.85 385.329 204.288 383.124 205.643 381.035C206.567 379.586 207.449 378.2 208.163 377.024L208.908 375.795C210.079 373.771 211.759 372.088 213.78 370.913C216.101 369.595 218.748 368.962 221.414 369.086C222.309 369.667 223.063 370.442 223.619 371.354C224.748 373.285 225.15 375.557 224.753 377.759Z" fill="white"/>
</svg>
