<svg width="23" height="24" viewBox="0 0 23 24" fill="none" xmlns="http://www.w3.org/2000/svg">
<path d="M10.9672 21.7532C10.1455 21.0937 2.51494 13.6733 2.42965 13.5921C2.09264 13.2551 1.88045 12.9056 1.8222 12.5853C1.76187 12.2524 1.86381 11.9612 2.13425 11.6907C2.38597 11.439 2.69385 11.3059 3.02462 11.3059C3.4282 11.3059 3.84218 11.4973 4.18751 11.8447L7.64706 15.169C7.70739 15.2273 7.78644 15.2564 7.86341 15.2564C7.94455 15.2564 8.0236 15.2252 8.08393 15.1648C8.20458 15.0442 8.20458 14.8486 8.08601 14.728L2.56279 9.02378C2.00943 8.47042 1.74939 7.62373 2.40677 6.96635C2.65849 6.71464 2.96637 6.5815 3.29714 6.5815C3.70072 6.5815 4.1147 6.77288 4.46003 7.1203L10.1101 12.6289C10.1705 12.6872 10.2495 12.7184 10.3286 12.7184C10.4076 12.7184 10.4888 12.6872 10.5491 12.6269C10.6697 12.5062 10.6718 12.3107 10.5512 12.1879L3.76521 5.23138C3.45108 4.91725 3.26178 4.54072 3.22849 4.17458C3.19729 3.80221 3.32834 3.45688 3.60919 3.17603C3.8609 2.92432 4.16879 2.79118 4.49956 2.79118C4.90314 2.79118 5.31712 2.98257 5.66245 3.3279L12.5836 10.0764C12.644 10.1347 12.723 10.1659 12.8021 10.1659C12.8811 10.1659 12.9622 10.1347 13.0226 10.0743C13.1432 9.95367 13.1453 9.75813 13.0247 9.63539L7.99863 4.46999C7.68243 4.15378 7.49312 3.77932 7.46191 3.41319C7.43071 3.04081 7.56177 2.69548 7.84261 2.41464C8.09433 2.16292 8.40221 2.02979 8.73298 2.02979C9.13656 2.02979 9.55054 2.22117 9.89587 2.56858C11.739 4.37845 16.5508 9.11115 16.713 9.2859C17.3309 9.71236 17.4557 9.06746 17.4869 8.64932C17.5223 8.16253 16.9648 6.46292 17.2893 4.93389C17.8343 2.90143 19.405 3.23428 19.4403 3.25093C20.3016 3.6545 20.1372 4.25779 19.8314 5.47061L19.8002 5.70985C19.4798 7.29504 21.6808 11.9924 21.8431 12.3439C22.7064 14.2329 23.7008 18.0627 20.4077 21.3558C16.7983 24.9652 12.3298 23.1158 10.9672 21.7532Z" fill="url(#paint0_radial_104_1159)"/>
<path d="M15.598 23.7794C13.3845 23.7794 11.5018 22.7206 10.7592 21.9862C10.0914 21.4412 5.8767 17.3721 2.44419 14.0415C2.30481 13.9063 2.22368 13.8293 2.21535 13.8189C1.82634 13.4299 1.58502 13.0242 1.51637 12.6415C1.43732 12.2067 1.57254 11.8135 1.91371 11.4703C2.22576 11.1582 2.60853 10.9939 3.02459 10.9939C3.51347 10.9939 4.00442 11.2185 4.408 11.6242L7.86339 14.9444L2.33809 9.24016C1.70152 8.60359 1.38115 7.54887 2.18623 6.74587C2.49828 6.43383 2.88105 6.26948 3.29711 6.26948C3.78599 6.26948 4.27694 6.49416 4.68052 6.89982L10.3265 12.4043L3.54259 5.44984C3.18062 5.08787 2.95802 4.64477 2.9185 4.20374C2.87897 3.73359 3.04124 3.30297 3.38865 2.95556C3.70069 2.64351 4.08347 2.47917 4.49953 2.47917C4.98632 2.47917 5.47728 2.70176 5.88294 3.10742L12.802 9.85385L7.77602 4.68845C7.41196 4.3244 7.18937 3.88129 7.15192 3.44027C7.1124 2.9722 7.27466 2.54158 7.62207 2.19416C7.93412 1.88212 8.3169 1.71777 8.73296 1.71777C9.22183 1.71777 9.71278 1.94245 10.1164 2.34811L11.6163 3.81888C14.2895 6.44007 16.5237 8.63479 16.7629 8.88027C16.8794 8.97388 17.0313 9.00925 17.0958 8.97804C17.1374 8.95724 17.1832 8.86155 17.1748 8.65976C17.1624 8.30611 17.1124 7.86716 17.0604 7.40325C16.9564 6.47127 16.8482 5.50601 16.9835 4.86944C17.2789 3.7648 17.8593 3.29673 18.292 3.09494C18.8869 2.82034 19.4632 2.91603 19.5734 2.96804C20.6552 3.47563 20.4409 4.3244 20.1455 5.50185L20.1393 5.53098L20.106 5.77437C19.8896 6.83949 21.0005 9.78312 22.1114 12.1817L22.1281 12.215C22.8707 13.8376 24.2084 18.0003 20.6302 21.5785C18.9847 23.2198 17.204 23.7794 15.598 23.7794ZM3.02459 11.618C2.77912 11.618 2.54612 11.7199 2.35474 11.9113C2.15711 12.1089 2.08846 12.3003 2.13006 12.5291C2.17583 12.7808 2.36098 13.0804 2.65014 13.3717C2.65222 13.3737 2.73543 13.4549 2.87897 13.5922C7.75105 18.3207 10.6926 21.1312 11.1628 21.5098L11.1877 21.5327C12.336 22.681 16.6028 24.7197 20.1871 21.1354C23.4886 17.8339 22.2466 13.9791 21.558 12.473L21.5435 12.4418C20.8279 10.8982 19.2011 7.15362 19.4902 5.65996L19.5381 5.34791C19.8584 4.07476 19.8772 3.80848 19.3342 3.54636C19.174 3.51724 18.0257 3.37786 17.5867 5.01506C17.4765 5.53722 17.5826 6.49208 17.6762 7.3346C17.7303 7.81099 17.7802 8.26242 17.7927 8.63896C17.8135 9.23184 17.5327 9.4586 17.3621 9.54181C17.0147 9.71031 16.6007 9.56677 16.3427 9.35042L16.3157 9.32546C16.1888 9.18816 13.1703 6.22788 11.1732 4.26823L9.67118 2.79329C9.15942 2.27946 8.49996 2.19416 8.05686 2.63727C7.84051 2.85362 7.74273 3.10742 7.76561 3.38826C7.79058 3.68158 7.94868 3.98739 8.21288 4.25159L13.2493 9.41699C13.4865 9.6583 13.4865 10.0536 13.2451 10.2949C13.0142 10.5258 12.6065 10.53 12.3693 10.3011L5.44399 3.55052C4.93224 3.03877 4.2707 2.95348 3.82967 3.39658C3.61332 3.61293 3.51555 3.86673 3.53843 4.14757C3.56547 4.4409 3.72358 4.74878 3.9857 5.00882L10.7737 11.9695C11.013 12.2108 11.0109 12.6061 10.7696 12.8474C10.5387 13.0783 10.1309 13.0825 9.89377 12.8537L4.24157 7.34292C3.72982 6.82701 3.06828 6.74379 2.62726 7.1869C2.08846 7.7257 2.37554 8.39348 2.78328 8.8033L8.31065 14.5117C8.54781 14.753 8.54573 15.1462 8.30441 15.3854C8.07142 15.6184 7.66784 15.6205 7.43068 15.3937L3.97113 12.0694C3.67989 11.7761 3.34496 11.618 3.02459 11.618Z" fill="#91674D"/>
<path d="M16.2157 9.08398C15.0736 11.416 15.2213 14.68 16.9355 17.2991C17.129 17.6528 17.4597 17.4801 17.2912 17.116C15.2213 12.6871 17.3911 9.49589 17.3911 9.49589L16.2157 9.08398Z" fill="#91674D"/>
<path d="M11.7245 0.338322C12.3527 0.173978 13.0226 0.18854 13.6737 0.340403C14.3207 0.496426 14.9677 0.825114 15.4482 1.36183C15.9184 1.89439 16.2075 2.54137 16.3053 3.21955C16.3969 3.89149 16.3116 4.58423 15.9933 5.15839C15.9558 4.5135 15.8435 3.92061 15.6542 3.37349C15.5564 3.10097 15.442 2.84093 15.3026 2.59546C15.1653 2.35206 15.0031 2.11074 14.8304 1.91311C14.4788 1.50745 14.0024 1.19125 13.4678 0.945772C12.9311 0.691975 12.3465 0.504747 11.7245 0.338322Z" fill="#B0BEC5"/>
<path d="M11.8971 2.31049C12.2445 2.08998 12.6793 2.04421 13.0891 2.11702C13.5031 2.18983 13.8984 2.39578 14.2104 2.68079C14.5204 2.96995 14.7409 3.334 14.8782 3.71262C14.9447 3.90193 14.978 4.10163 15.0092 4.2951C15.0196 4.49481 15.0196 4.69452 14.9884 4.89423C14.8449 4.74237 14.7326 4.59051 14.6265 4.44281C14.5037 4.30342 14.408 4.15572 14.2978 4.0205C14.0814 3.75214 13.8713 3.50875 13.6446 3.2924C13.4116 3.08228 13.1661 2.89714 12.8811 2.73695C12.5982 2.57261 12.2799 2.43531 11.8971 2.31049Z" fill="#90A4AE"/>
<path d="M0.00397609 15.4912C0.297299 16.0654 0.603105 16.5979 0.958837 17.0681C1.31249 17.5382 1.71815 17.9377 2.19038 18.1977C2.41921 18.3246 2.69173 18.4348 2.95801 18.5181C3.22637 18.6034 3.50513 18.6616 3.79222 18.7011C4.36638 18.7719 4.96967 18.7594 5.60832 18.6616C5.11321 19.0922 4.45167 19.3211 3.77765 19.371C3.09531 19.4168 2.40257 19.269 1.78264 18.9196C1.15855 18.5638 0.700879 17.998 0.413797 17.3968C0.126714 16.7914 -0.0272285 16.1403 0.00397609 15.4912Z" fill="#B0BEC5"/>
<path d="M1.96988 15.248C2.17167 15.5975 2.37138 15.8784 2.58982 16.1239C2.80617 16.3693 3.03916 16.5711 3.29296 16.7542C3.55092 16.931 3.83384 17.087 4.14172 17.2431C4.29567 17.3221 4.46001 17.3845 4.62228 17.4761C4.79078 17.5489 4.96137 17.6258 5.14027 17.7361C4.95096 17.8068 4.75749 17.8484 4.55987 17.8796C4.36432 17.888 4.16253 17.8984 3.96282 17.8713C3.5634 17.8172 3.16398 17.6778 2.81449 17.4344C2.47124 17.1869 2.18624 16.8436 2.03021 16.4546C1.87211 16.0677 1.82634 15.635 1.96988 15.248Z" fill="#90A4AE"/>
<defs>
<radialGradient id="paint0_radial_104_1159" cx="0" cy="0" r="1" gradientUnits="userSpaceOnUse" gradientTransform="translate(7.74613 7.3075) rotate(-45) scale(18.9324)">
<stop offset="0.3533" stop-color="#BA8D68"/>
<stop offset="0.8723" stop-color="#A47B62"/>
</radialGradient>
</defs>
</svg>
