<svg width="327" height="244" viewBox="0 0 327 244" fill="none" xmlns="http://www.w3.org/2000/svg">
<path d="M327 214.12H0V214.283H327V214.12Z" fill="#EBEBEB"/>
<path d="M294.235 224.643H272.574V224.806H294.235V224.643Z" fill="#EBEBEB"/>
<path d="M216.618 226.421H210.935V226.585H216.618V226.421Z" fill="#EBEBEB"/>
<path d="M271.92 218.573H259.37V218.737H271.92V218.573Z" fill="#EBEBEB"/>
<path d="M62.5551 219.672H34.3088V219.835H62.5551V219.672Z" fill="#EBEBEB"/>
<path d="M72.522 219.672H68.3822V219.835H72.522V219.672Z" fill="#EBEBEB"/>
<path d="M147.248 222.432H85.9813V222.596H147.248V222.432Z" fill="#EBEBEB"/>
<path d="M154.998 184.951H28.7172C27.7279 184.949 26.7797 184.555 26.0808 183.855C25.3819 183.155 24.9894 182.206 24.9894 181.217V3.70164C24.998 2.71804 25.3943 1.77756 26.0923 1.08447C26.7903 0.391392 27.7335 0.00168496 28.7172 0H154.998C155.988 0 156.938 0.393438 157.639 1.09376C158.339 1.79409 158.732 2.74393 158.732 3.73434V181.217C158.732 182.207 158.339 183.157 157.639 183.857C156.938 184.558 155.988 184.951 154.998 184.951ZM28.7172 0.130801C27.7713 0.132533 26.8647 0.509509 26.1964 1.17898C25.5282 1.84846 25.1529 2.75573 25.1529 3.70164V181.217C25.1529 182.163 25.5282 183.07 26.1964 183.74C26.8647 184.409 27.7713 184.786 28.7172 184.788H154.998C155.945 184.786 156.852 184.409 157.521 183.74C158.19 183.071 158.567 182.163 158.569 181.217V3.70164C158.567 2.75513 158.19 1.84787 157.521 1.17858C156.852 0.509296 155.945 0.132529 154.998 0.130801H28.7172Z" fill="#EBEBEB"/>
<path d="M296.465 184.951H170.177C169.187 184.949 168.239 184.555 167.539 183.856C166.839 183.156 166.445 182.207 166.443 181.217V3.70164C166.453 2.71744 166.851 1.77697 167.55 1.08407C168.249 0.391163 169.193 0.00166658 170.177 0H296.465C297.447 0.00340374 298.389 0.393871 299.085 1.08677C299.782 1.77967 300.177 2.71917 300.186 3.70164V181.217C300.186 182.205 299.794 183.153 299.097 183.853C298.399 184.553 297.453 184.948 296.465 184.951ZM170.177 0.130801C169.231 0.132529 168.324 0.509296 167.654 1.17858C166.985 1.84787 166.608 2.75513 166.606 3.70164V181.217C166.608 182.163 166.985 183.071 167.654 183.74C168.324 184.409 169.231 184.786 170.177 184.788H296.465C297.411 184.786 298.318 184.409 298.988 183.74C299.657 183.071 300.034 182.163 300.036 181.217V3.70164C300.034 2.75513 299.657 1.84787 298.988 1.17858C298.318 0.509296 297.411 0.132529 296.465 0.130801H170.177Z" fill="#EBEBEB"/>
<path d="M234.793 119.361H220.208V125.568H234.793V119.361Z" fill="#FAFAFA"/>
<path d="M217.148 119.361H202.563V125.568H217.148V119.361Z" fill="#FAFAFA"/>
<path d="M199.503 119.361H184.918V125.568H199.503V119.361Z" fill="#FAFAFA"/>
<path d="M243.615 128.001H229.031V134.207H243.615V128.001Z" fill="#FAFAFA"/>
<path d="M225.97 128.001H211.386V134.207H225.97V128.001Z" fill="#FAFAFA"/>
<path d="M208.325 128.001H193.741V134.207H208.325V128.001Z" fill="#FAFAFA"/>
<path d="M190.68 128.001H176.096V134.207H190.68V128.001Z" fill="#FAFAFA"/>
<path d="M272.057 136.64H257.473V142.847H272.057V136.64Z" fill="#FAFAFA"/>
<path d="M254.413 136.64H239.828V142.847H254.413V136.64Z" fill="#FAFAFA"/>
<path d="M217.148 136.64H202.563V142.847H217.148V136.64Z" fill="#FAFAFA"/>
<path d="M199.503 136.64H184.918V142.847H199.503V136.64Z" fill="#FAFAFA"/>
<path d="M181.858 136.64H167.274V142.847H181.858V136.64Z" fill="#FAFAFA"/>
<path d="M263.235 145.273H248.651V151.479H263.235V145.273Z" fill="#FAFAFA"/>
<path d="M225.97 145.273H211.386V151.479H225.97V145.273Z" fill="#FAFAFA"/>
<path d="M208.325 145.273H193.741V151.479H208.325V145.273Z" fill="#FAFAFA"/>
<path d="M190.68 145.273H176.096V151.479H190.68V145.273Z" fill="#FAFAFA"/>
<path d="M121.847 31.3657H107.263V37.5722H121.847V31.3657Z" fill="#FAFAFA"/>
<path d="M104.202 31.3657H89.6177V37.5722H104.202V31.3657Z" fill="#FAFAFA"/>
<path d="M130.669 40.0054H116.085V46.2118H130.669V40.0054Z" fill="#FAFAFA"/>
<path d="M113.024 40.0054H98.4401V46.2118H113.024V40.0054Z" fill="#FAFAFA"/>
<path d="M77.7345 40.0054H63.1503V46.2118H77.7345V40.0054Z" fill="#FAFAFA"/>
<path d="M60.0896 40.0054H45.5054V46.2118H60.0896V40.0054Z" fill="#FAFAFA"/>
<path d="M104.202 48.6445H89.6177V54.851H104.202V48.6445Z" fill="#FAFAFA"/>
<path d="M264.831 81.9199H250.247V88.1264H264.831V81.9199Z" fill="#FAFAFA"/>
<path d="M234.106 81.9199H219.522V88.1264H234.106V81.9199Z" fill="#FAFAFA"/>
<path d="M273.66 90.5596H259.076V96.766H273.66V90.5596Z" fill="#FAFAFA"/>
<path d="M256.008 90.5596H241.424V96.766H256.008V90.5596Z" fill="#FAFAFA"/>
<path d="M105.451 73.209H90.8668V79.4154H105.451V73.209Z" fill="#FAFAFA"/>
<path d="M68.1795 73.209H53.5953V79.4154H68.1795V73.209Z" fill="#FAFAFA"/>
<path d="M114.273 81.8418H99.6892V88.0483H114.273V81.8418Z" fill="#FAFAFA"/>
<path d="M90.082 81.8418H75.4978V88.0483H90.082V81.8418Z" fill="#FAFAFA"/>
<path d="M264.831 99.1987H250.247V105.405H264.831V99.1987Z" fill="#FAFAFA"/>
<path d="M234.106 99.1987H219.522V105.405H234.106V99.1987Z" fill="#FAFAFA"/>
<path d="M68.912 48.6445H54.3278V54.851H68.912V48.6445Z" fill="#FAFAFA"/>
<path d="M275.524 31.6011H260.939V37.8075H275.524V31.6011Z" fill="#FAFAFA"/>
<path d="M257.879 31.6011H243.295V37.8075H257.879V31.6011Z" fill="#FAFAFA"/>
<path d="M266.701 40.2339H252.117V46.4404H266.701V40.2339Z" fill="#FAFAFA"/>
<path d="M196.475 31.7388H181.891V37.9452H196.475V31.7388Z" fill="#FAFAFA"/>
<path d="M178.83 31.7388H164.246V37.9452H178.83V31.7388Z" fill="#FAFAFA"/>
<path d="M205.297 40.3716H190.713V46.578H205.297V40.3716Z" fill="#FAFAFA"/>
<path d="M187.652 40.3716H173.068V46.578H187.652V40.3716Z" fill="#FAFAFA"/>
<path d="M170.007 40.3716H155.423V46.578H170.007V40.3716Z" fill="#FAFAFA"/>
<path d="M214.12 49.0107H199.535V55.2172H214.12V49.0107Z" fill="#FAFAFA"/>
<path d="M196.475 49.0107H181.891V55.2172H196.475V49.0107Z" fill="#FAFAFA"/>
<path d="M178.83 49.0107H164.246V55.2172H178.83V49.0107Z" fill="#FAFAFA"/>
<path d="M205.297 57.6499H190.713V63.8564H205.297V57.6499Z" fill="#FAFAFA"/>
<path d="M187.652 57.6499H173.068V63.8564H187.652V57.6499Z" fill="#FAFAFA"/>
<path d="M86.6942 117.02H72.11V123.226H86.6942V117.02Z" fill="#FAFAFA"/>
<path d="M69.0428 117.02H54.4586V123.226H69.0428V117.02Z" fill="#FAFAFA"/>
<path d="M137.353 117.805H122.769V124.012H137.353V117.805Z" fill="#FAFAFA"/>
<path d="M95.5167 125.653H80.9325V131.859H95.5167V125.653Z" fill="#FAFAFA"/>
<path d="M77.8652 125.653H63.281V131.859H77.8652V125.653Z" fill="#FAFAFA"/>
<path d="M146.176 126.444H131.591V132.651H146.176V126.444Z" fill="#FAFAFA"/>
<path d="M128.524 126.444H113.94V132.651H128.524V126.444Z" fill="#FAFAFA"/>
<path d="M175.35 98.5186H160.766V104.725H175.35V98.5186Z" fill="#FAFAFA"/>
<path d="M83.8624 94.4116H69.2782V100.618H83.8624V94.4116Z" fill="#FAFAFA"/>
<path d="M155.462 67.8916H140.878V74.0981H155.462V67.8916Z" fill="#FAFAFA"/>
<path d="M166.528 89.8857H151.944V96.0922H166.528V89.8857Z" fill="#FAFAFA"/>
<path d="M184.173 89.8857H169.589V96.0922H184.173V89.8857Z" fill="#FAFAFA"/>
<path d="M250.417 207.795H235.832V214.002H250.417V207.795Z" fill="#FAFAFA"/>
<path d="M259.239 199.163H244.655V205.369H259.239V199.163Z" fill="#FAFAFA"/>
<path d="M86.6942 134.292H72.11V140.499H86.6942V134.292Z" fill="#FAFAFA"/>
<path d="M69.0428 134.292H54.4586V140.499H69.0428V134.292Z" fill="#FAFAFA"/>
<path d="M95.5167 142.932H80.9325V149.138H95.5167V142.932Z" fill="#FAFAFA"/>
<path d="M77.8652 142.932H63.281V149.138H77.8652V142.932Z" fill="#FAFAFA"/>
<path d="M114.385 166.822H99.8004V173.029H114.385V166.822Z" fill="#FAFAFA"/>
<path d="M96.7397 166.822H82.1555V173.029H96.7397V166.822Z" fill="#FAFAFA"/>
<path d="M79.0882 166.822H64.504V173.029H79.0882V166.822Z" fill="#FAFAFA"/>
<path d="M61.4433 166.822H46.8591V173.029H61.4433V166.822Z" fill="#FAFAFA"/>
<path d="M123.207 175.462H108.623V181.668H123.207V175.462Z" fill="#FAFAFA"/>
<path d="M105.562 175.462H90.9779V181.668H105.562V175.462Z" fill="#FAFAFA"/>
<path d="M70.2657 175.462H55.6815V181.668H70.2657V175.462Z" fill="#FAFAFA"/>
<path d="M132.03 184.095H117.445V190.301H132.03V184.095Z" fill="#FAFAFA"/>
<path d="M114.385 184.095H99.8004V190.301H114.385V184.095Z" fill="#FAFAFA"/>
<path d="M96.7397 184.095H82.1555V190.301H96.7397V184.095Z" fill="#FAFAFA"/>
<path d="M123.207 192.734H108.623V198.94H123.207V192.734Z" fill="#FAFAFA"/>
<path d="M105.562 192.734H90.9779V198.94H105.562V192.734Z" fill="#FAFAFA"/>
<path d="M87.9172 192.734H73.333V198.94H87.9172V192.734Z" fill="#FAFAFA"/>
<path d="M233.759 166.423H219.175V172.63H233.759V166.423Z" fill="#FAFAFA"/>
<path d="M196.494 166.423H181.91V172.63H196.494V166.423Z" fill="#FAFAFA"/>
<path d="M178.849 166.423H164.265V172.63H178.849V166.423Z" fill="#FAFAFA"/>
<path d="M242.588 175.062H228.004V181.269H242.588V175.062Z" fill="#FAFAFA"/>
<path d="M205.317 175.062H190.733V181.269H205.317V175.062Z" fill="#FAFAFA"/>
<path d="M187.672 175.062H173.088V181.269H187.672V175.062Z" fill="#FAFAFA"/>
<path d="M170.027 175.062H155.443V181.269H170.027V175.062Z" fill="#FAFAFA"/>
<path d="M251.411 183.695H236.827V189.902H251.411V183.695Z" fill="#FAFAFA"/>
<path d="M233.759 183.695H219.175V189.902H233.759V183.695Z" fill="#FAFAFA"/>
<path d="M196.494 183.695H181.91V189.902H196.494V183.695Z" fill="#FAFAFA"/>
<path d="M178.849 183.695H164.265V189.902H178.849V183.695Z" fill="#FAFAFA"/>
<path d="M222.962 192.335H208.377V198.541H222.962V192.335Z" fill="#FAFAFA"/>
<path d="M205.317 192.335H190.733V198.541H205.317V192.335Z" fill="#FAFAFA"/>
<path d="M187.672 192.335H173.088V198.541H187.672V192.335Z" fill="#FAFAFA"/>
<path d="M170.027 192.335H155.443V198.541H170.027V192.335Z" fill="#FAFAFA"/>
<path d="M202.106 137.53H265.099V65.4786L202.106 65.4786V137.53Z" fill="#E0E0E0"/>
<path d="M202.223 137.53H262.79V65.4786L202.223 65.4786V137.53Z" fill="#E0E0E0"/>
<path d="M200.137 137.53H263.13V65.4786L200.137 65.4786V137.53Z" fill="#F0F0F0"/>
<path d="M203.002 134.214H260.384V67.7675H203.002V134.214Z" fill="white"/>
<path d="M203.002 134.214H204.794V67.7675H203.002V134.214Z" fill="#E0E0E0"/>
<path d="M204.604 115.555V117.347H260.547V115.555H204.604Z" fill="#E0E0E0"/>
<path d="M203.002 115.549L261.345 115.549V112.54H203.002V115.549Z" fill="#F0F0F0"/>
<path d="M69.2585 137.53H132.252V65.4786L69.2585 65.4786V137.53Z" fill="#E0E0E0"/>
<path d="M69.3829 137.53H129.95V65.4786L69.3829 65.4786V137.53Z" fill="#E0E0E0"/>
<path d="M67.2966 137.53H130.29V65.4786L67.2966 65.4786V137.53Z" fill="#F0F0F0"/>
<path d="M70.1545 134.214H127.536L127.536 67.7675H70.1545V134.214Z" fill="white"/>
<path d="M70.1546 134.214H71.9465L71.9465 67.7675H70.1546L70.1546 134.214Z" fill="#E0E0E0"/>
<path d="M71.7568 115.549V117.341H127.7V115.549H71.7568Z" fill="#E0E0E0"/>
<path d="M70.1546 115.549L128.498 115.549V112.54H70.1546V115.549Z" fill="#F0F0F0"/>
<path d="M163.5 243.654C233.532 243.654 290.304 240.34 290.304 236.251C290.304 232.162 233.532 228.848 163.5 228.848C93.468 228.848 36.6959 232.162 36.6959 236.251C36.6959 240.34 93.468 243.654 163.5 243.654Z" fill="#F5F5F5"/>
<path d="M58.4545 219.358C58.4545 219.358 57.552 212.707 53.2945 211.981C49.0369 211.255 50.3188 208.057 49.2135 206.788C48.1083 205.52 45.211 209.215 47.6897 212.779C50.1684 216.343 48.141 215.218 49.2135 218.528C50.2861 221.837 58.86 224.878 58.4545 219.358Z" fill="#263238"/>
<path opacity="0.2" d="M58.4545 219.358C58.4545 219.358 57.552 212.707 53.2945 211.981C49.0369 211.255 50.3188 208.057 49.2135 206.788C48.1083 205.52 45.211 209.215 47.6897 212.779C50.1684 216.343 48.141 215.218 49.2135 218.528C50.2861 221.837 58.86 224.878 58.4545 219.358Z" fill="white"/>
<path d="M58.2779 223.975C58.2224 223.976 58.1677 223.961 58.1202 223.932C58.0728 223.903 58.0345 223.862 58.0098 223.812C58.0098 223.74 54.7398 216.82 56.4402 205.794C56.9908 202.64 57.8675 199.552 59.0562 196.579C61.1163 190.968 62.7382 186.534 59.0235 178.437C57.8463 175.874 56.6429 173.486 55.4788 171.178C51.1101 162.506 47.6635 155.658 50.2468 148.719C50.2747 148.647 50.3302 148.588 50.4013 148.556C50.4724 148.524 50.5533 148.522 50.6261 148.549C50.6631 148.561 50.6972 148.58 50.7264 148.606C50.7556 148.631 50.7792 148.662 50.7958 148.697C50.8124 148.732 50.8216 148.77 50.8227 148.809C50.8239 148.848 50.8171 148.886 50.8027 148.922C48.3241 155.619 51.7249 162.368 56.0347 170.91C57.1988 173.225 58.4022 175.618 59.5859 178.189C63.4053 186.508 61.6591 191.269 59.6383 196.782C58.447 199.715 57.5701 202.767 57.0223 205.886C55.3415 216.716 58.5134 223.485 58.5461 223.544C58.5798 223.614 58.5843 223.695 58.5586 223.768C58.5328 223.842 58.4789 223.902 58.4087 223.936C58.3685 223.959 58.3239 223.972 58.2779 223.975Z" fill="#263238"/>
<path d="M55.8255 222.36C55.8255 222.36 53.0721 218.214 57.0419 216.082C61.0117 213.95 61.8096 215.67 64.2359 214.12C66.6622 212.57 68.5523 208.888 68.9709 211.249C69.3894 213.609 66.5576 214.983 67.5582 216.069C68.5588 217.154 60.907 224.217 55.8255 222.36Z" fill="#263238"/>
<path d="M49.3311 152.284C49.3311 152.284 46.6563 144.142 52.7516 143.972C58.8468 143.802 52.1237 151.414 49.3311 152.284Z" fill="#263238"/>
<path d="M54.6285 158.549C54.6285 158.549 56.4467 151.139 60.7696 152.702C65.0925 154.265 58.9384 158.687 54.6285 158.549Z" fill="#263238"/>
<path d="M47.2907 159.19C47.2907 159.19 47.9447 153.304 43.3667 153.16C38.7887 153.016 40.803 158.268 47.2907 159.19Z" fill="#263238"/>
<path d="M50.358 171.244C50.358 171.244 44.1973 165.75 41.9803 169.837C39.7632 173.925 46.6171 174.775 50.358 171.244Z" fill="#263238"/>
<path d="M61.2405 170.269C61.2405 170.269 62.3981 161.113 67.375 164.01C72.3519 166.907 65.5765 171.184 61.2405 170.269Z" fill="#263238"/>
<path d="M65.6223 183.329C65.6223 183.329 61.9469 174.114 68.7746 175.154C75.6024 176.194 70.4423 181.092 65.6223 183.329Z" fill="#263238"/>
<path d="M55.1453 186.619C55.1453 186.619 49.3836 179.85 44.9756 181.982C40.5676 184.114 44.1712 190.883 55.1453 186.619Z" fill="#263238"/>
<path d="M60.3772 201.668C60.3772 201.668 65.2887 190.759 69.6575 194.434C74.0262 198.11 66.8714 203.603 60.3772 201.668Z" fill="#263238"/>
<path d="M53.2421 201.027C53.2421 201.027 54.5501 192.564 49.6778 193.244C44.8055 193.924 46.0939 199.104 53.2421 201.027Z" fill="#263238"/>
<g opacity="0.2">
<path d="M49.3311 152.284C49.3311 152.284 46.6563 144.142 52.7516 143.972C58.8468 143.802 52.1237 151.414 49.3311 152.284Z" fill="white"/>
<path d="M54.6285 158.549C54.6285 158.549 56.4467 151.139 60.7696 152.702C65.0925 154.265 58.9384 158.687 54.6285 158.549Z" fill="white"/>
<path d="M47.2907 159.19C47.2907 159.19 47.9447 153.304 43.3667 153.16C38.7887 153.016 40.803 158.268 47.2907 159.19Z" fill="white"/>
<path d="M50.358 171.244C50.358 171.244 44.1973 165.75 41.9803 169.837C39.7632 173.925 46.6171 174.775 50.358 171.244Z" fill="white"/>
<path d="M61.2405 170.269C61.2405 170.269 62.3981 161.113 67.375 164.01C72.3519 166.907 65.5765 171.184 61.2405 170.269Z" fill="white"/>
<path d="M65.6223 183.329C65.6223 183.329 61.9469 174.114 68.7746 175.154C75.6024 176.194 70.4423 181.092 65.6223 183.329Z" fill="white"/>
<path d="M55.1453 186.619C55.1453 186.619 49.3836 179.85 44.9756 181.982C40.5676 184.114 44.1712 190.883 55.1453 186.619Z" fill="white"/>
<path d="M60.3772 201.668C60.3772 201.668 65.2887 190.759 69.6575 194.434C74.0262 198.11 66.8714 203.603 60.3772 201.668Z" fill="white"/>
<path d="M53.2421 201.027C53.2421 201.027 54.5501 192.564 49.6778 193.244C44.8055 193.924 46.0939 199.104 53.2421 201.027Z" fill="white"/>
</g>
<path d="M51.9734 163.448C51.9236 163.448 51.8744 163.436 51.8295 163.415C48.2194 161.394 45.6231 157.575 45.5184 157.418C45.4962 157.386 45.4806 157.349 45.4726 157.311C45.4645 157.273 45.4641 157.234 45.4714 157.195C45.4787 157.157 45.4935 157.12 45.5151 157.088C45.5366 157.055 45.5645 157.027 45.5969 157.006C45.6623 156.963 45.7419 156.947 45.8188 156.961C45.8958 156.976 45.964 157.02 46.0089 157.084C47.5764 159.33 49.5614 161.253 51.8557 162.748C52.405 161.728 54.3867 158.209 56.0413 157.215C56.1081 157.174 56.1883 157.162 56.2643 157.18C56.302 157.189 56.3375 157.206 56.3688 157.228C56.4001 157.251 56.4266 157.28 56.4468 157.313C56.4669 157.346 56.4804 157.383 56.4864 157.421C56.4924 157.459 56.4908 157.499 56.4817 157.536C56.4726 157.574 56.4561 157.609 56.4333 157.641C56.4105 157.672 56.3817 157.698 56.3487 157.719C54.5894 158.772 52.2546 163.245 52.235 163.291C52.2166 163.325 52.1915 163.356 52.1612 163.38C52.1309 163.405 52.0959 163.424 52.0584 163.435C52.0313 163.445 52.0023 163.449 51.9734 163.448Z" fill="#263238"/>
<path d="M57.5519 174.768C57.488 174.77 57.4256 174.749 57.3754 174.71C52.2415 170.831 45.6818 170.995 45.6034 170.995C45.5256 170.994 45.4511 170.963 45.3943 170.91C45.3375 170.857 45.3024 170.785 45.296 170.707C45.2951 170.668 45.3019 170.63 45.3159 170.594C45.3298 170.558 45.3508 170.525 45.3775 170.497C45.4042 170.469 45.4362 170.447 45.4716 170.431C45.507 170.416 45.5451 170.407 45.5837 170.406C45.6491 170.406 52.1957 170.236 57.4538 174.043C58.1405 172.95 60.7762 168.981 64.1639 166.986C64.2315 166.946 64.3122 166.935 64.3883 166.954C64.4643 166.974 64.5295 167.023 64.5694 167.091C64.6092 167.158 64.6206 167.239 64.601 167.315C64.5814 167.391 64.5324 167.456 64.4647 167.496C60.7304 169.693 57.8201 174.572 57.7939 174.625C57.7724 174.66 57.7438 174.69 57.7101 174.714C57.6763 174.737 57.6381 174.754 57.5977 174.762L57.5519 174.768Z" fill="#263238"/>
<path d="M61.1162 189.725C61.0635 189.726 61.0117 189.712 60.9658 189.686C60.8939 189.64 53.3925 185.331 47.9708 185.226C47.8995 185.215 47.8343 185.179 47.7872 185.125C47.7401 185.07 47.7142 185 47.7142 184.928C47.7142 184.856 47.7401 184.787 47.7872 184.732C47.8343 184.677 47.8995 184.641 47.9708 184.631C53.1374 184.735 59.8671 188.391 61.0508 189.071C64.5301 186.135 67.2965 178.934 67.3227 178.863C67.335 178.825 67.3549 178.79 67.3812 178.76C67.4075 178.73 67.4396 178.705 67.4756 178.688C67.5115 178.671 67.5506 178.661 67.5905 178.659C67.6303 178.658 67.6701 178.664 67.7074 178.678C67.7446 178.693 67.7786 178.714 67.8073 178.742C67.8359 178.77 67.8586 178.803 67.874 178.84C67.8894 178.877 67.8972 178.916 67.8969 178.956C67.8965 178.996 67.8881 179.035 67.8721 179.072C67.7543 179.379 64.9421 186.711 61.2667 189.66C61.2232 189.695 61.1713 189.717 61.1162 189.725Z" fill="#263238"/>
<path d="M56.7737 205.186C56.7211 205.185 56.6695 205.172 56.6233 205.147C53.7915 203.525 50.1291 196.429 49.9787 196.128C49.9423 196.059 49.9349 195.978 49.9582 195.903C49.9815 195.828 50.0336 195.766 50.1029 195.729C50.1723 195.693 50.2533 195.685 50.3282 195.709C50.403 195.732 50.4655 195.784 50.5019 195.853C50.5019 195.925 54.04 202.72 56.7018 204.499C58.8685 201.969 61.7358 200.137 64.9422 199.235C65.0168 199.212 65.0972 199.22 65.1659 199.257C65.2345 199.294 65.2858 199.356 65.3084 199.431C65.3311 199.506 65.3232 199.588 65.2865 199.657C65.2498 199.727 65.1872 199.78 65.1122 199.804C61.9429 200.681 59.1178 202.507 57.0157 205.036C56.9905 205.078 56.9554 205.114 56.9132 205.141C56.8711 205.167 56.8232 205.182 56.7737 205.186Z" fill="#263238"/>
<path d="M56.244 221.366C56.244 221.366 53.8831 217.612 51.2213 217.076C48.5595 216.54 47.4085 213.472 46.4275 215.317C45.4465 217.161 48.154 223.282 56.244 221.366Z" fill="#263238"/>
<path d="M46.6367 236.101H66.309L67.6235 220.215H45.3221L46.6367 236.101Z" fill="#407BFF"/>
<path d="M44.8578 223.223H68.0813L68.3822 219.855H44.5635L44.8578 223.223Z" fill="#407BFF"/>
<path opacity="0.3" d="M44.8578 223.223H68.0813L68.3822 219.855H44.5635L44.8578 223.223Z" fill="white"/>
<path d="M183.427 100.337L182.433 100.527C182.355 100.532 182.277 100.514 182.209 100.476C182.141 100.437 182.086 100.38 182.05 100.31C182.015 100.24 182.001 100.161 182.009 100.084C182.018 100.006 182.05 99.9326 182.1 99.8726H182.139C181.858 99.9968 181.577 100.121 181.282 100.232C181.258 100.668 181.258 101.105 181.282 101.54L187.698 134.724L163.801 139.355C163.808 139.402 163.808 139.451 163.801 139.498C163.791 139.602 163.741 139.698 163.661 139.765C163.582 139.832 163.479 139.865 163.376 139.858C162.99 139.786 162.597 139.714 162.205 139.662L130.565 145.796C130.559 145.852 130.541 145.906 130.512 145.953C130.393 146.154 130.26 146.347 130.113 146.529C130.132 146.646 130.118 146.766 130.074 146.876C129.829 147.61 129.512 148.317 129.126 148.988C129.001 149.165 128.814 149.288 128.603 149.335C128.465 149.363 128.322 149.352 128.191 149.302C128.041 149.625 127.931 149.966 127.864 150.316L178.562 140.506L178.607 140.447C178.903 140.168 179.253 139.953 179.636 139.817C180.019 139.681 180.426 139.626 180.831 139.655C181.119 139.318 181.462 139.03 181.845 138.805C182.017 138.692 182.215 138.624 182.421 138.606C182.626 138.589 182.833 138.624 183.022 138.707C183.273 138.856 183.465 139.087 183.565 139.361C184.064 139.3 184.566 139.265 185.069 139.256L192.263 137.857L185.232 101.606C184.536 101.336 183.917 100.901 183.427 100.337Z" fill="#407BFF"/>
<path d="M117.89 52.9151L118.125 52.9609L122.854 52.0453C123.377 51.8164 123.894 51.5744 124.397 51.3586C125.349 50.9088 126.371 50.6278 127.419 50.528C128.043 50.4992 128.668 50.5925 129.257 50.8027L169.922 42.922L173.696 62.372C173.74 62.3096 173.801 62.2611 173.871 62.2322C173.942 62.2033 174.019 62.1953 174.094 62.2091C174.169 62.2228 174.239 62.2578 174.294 62.3099C174.35 62.3619 174.39 62.4289 174.409 62.5028C174.628 63.358 174.747 64.236 174.762 65.1188C174.741 65.5427 174.644 65.9593 174.474 66.3483L180.89 99.4603C181.276 99.3164 181.655 99.1595 182.034 98.9894C182.072 98.7614 182.156 98.5435 182.281 98.3489C182.406 98.1544 182.569 97.9874 182.76 97.858C183.034 97.7284 183.346 97.7051 183.637 97.7926C183.788 97.4493 183.897 97.0893 183.964 96.7201C184.056 96.2705 184.097 95.812 184.088 95.3532L183.833 94.0125C183.833 93.9406 183.774 93.8752 183.741 93.8098C183.714 93.7595 183.7 93.7033 183.7 93.6463C183.7 93.5892 183.714 93.5331 183.741 93.4828L176.992 58.6769C176.953 58.6831 176.913 58.6831 176.874 58.6769C176.638 58.7021 176.399 58.6624 176.184 58.5622C175.968 58.4619 175.784 58.3049 175.651 58.1079C175.465 57.7265 175.408 57.2951 175.488 56.8784C175.553 56.3879 175.677 55.9039 175.776 55.42C175.881 54.9925 175.912 54.55 175.867 54.112C175.851 54.0379 175.859 53.9608 175.89 53.8915C175.92 53.8222 175.972 53.7643 176.037 53.7261L173.042 38.2852L114.398 49.704C113.309 50.3374 112.067 50.6608 110.807 50.6392C110.748 50.6355 110.69 50.6167 110.64 50.5847C110.589 50.5527 110.548 50.5084 110.519 50.4561L81.423 56.1001C81.4059 56.1758 81.3681 56.2452 81.3138 56.3006C81.2595 56.3561 81.1909 56.3953 81.1156 56.414L79.5852 56.7083C79.5792 56.9409 79.509 57.1672 79.3825 57.3623C79.3721 57.4536 79.3277 57.5377 79.2582 57.5978C79.1578 57.6799 79.0617 57.7672 78.9705 57.8594C78.7939 58.0229 78.6238 58.1995 78.4407 58.3564C78.3785 58.4162 78.3019 58.459 78.2184 58.4807C78.1502 58.4925 78.0802 58.4866 78.015 58.4638C77.9497 58.4409 77.8914 58.4017 77.8456 58.3499C77.778 58.2696 77.743 58.1669 77.7475 58.0621C77.7438 58.0251 77.7438 57.9879 77.7475 57.9509C77.512 57.9509 77.2766 57.9509 77.0477 57.8921C76.9448 57.8805 76.8502 57.8301 76.7833 57.751C76.7165 57.672 76.6824 57.5704 76.688 57.467C76.6964 57.364 76.745 57.2685 76.8234 57.2011C76.9017 57.1338 77.0035 57.1001 77.1066 57.1073C77.3535 57.1431 77.6026 57.1628 77.8521 57.1661H78.0483C78.0766 57.1694 78.1051 57.1694 78.1333 57.1661C77.9411 57.1386 77.7649 57.0436 77.6363 56.898C77.6343 56.8806 77.6343 56.8631 77.6363 56.8457L60.7893 60.1157C60.8671 60.1166 60.9435 60.1368 61.0116 60.1745C61.0958 60.234 61.1537 60.3237 61.1732 60.4249C61.1927 60.5261 61.1723 60.6309 61.1163 60.7174C60.9815 60.8966 60.8304 61.063 60.665 61.2144L60.6192 61.2667C60.6192 61.234 60.6585 61.2667 60.6192 61.2667C60.591 61.3 60.5648 61.3349 60.5407 61.3714C60.5407 61.3714 60.5407 61.4237 60.5407 61.4433C60.5377 61.465 60.5377 61.487 60.5407 61.5087C60.5377 61.5216 60.5377 61.535 60.5407 61.5479C60.5322 61.6152 60.5069 61.6793 60.4673 61.7342C60.4276 61.7892 60.3747 61.8334 60.3136 61.8626C60.2524 61.8919 60.1849 61.9054 60.1172 61.9018C60.0495 61.8983 59.9837 61.8778 59.926 61.8422C59.8912 61.8234 59.8537 61.8102 59.8148 61.803C59.7744 61.787 59.7328 61.7738 59.6905 61.7638C59.6917 61.9481 59.6419 62.1291 59.5467 62.287C59.5094 62.3413 59.4581 62.3846 59.3982 62.4122C59.3383 62.4398 59.2721 62.4508 59.2066 62.4439C59.1409 62.812 59.0173 63.1674 58.8403 63.4969C58.6429 63.8334 58.3752 64.1234 58.0555 64.3471C58.1188 64.4319 58.1715 64.5242 58.2125 64.6217L83.2607 59.7691V59.7298C83.3669 59.552 83.5043 59.3947 83.6662 59.2655C83.7736 59.1858 83.8979 59.132 84.0295 59.1082C84.161 59.0843 84.2963 59.0912 84.4248 59.1281C84.6304 59.1918 84.8231 59.2914 84.9938 59.4224L117.426 53.1375C117.463 53.0507 117.531 52.9804 117.616 52.9395C117.702 52.8987 117.799 52.89 117.89 52.9151Z" fill="#407BFF"/>
<path d="M74.2748 156.725L68.3888 126.412C68.3371 126.47 68.269 126.512 68.1933 126.532C68.1175 126.552 68.0376 126.549 67.9637 126.523C67.8659 126.489 67.7856 126.417 67.7403 126.324C67.695 126.231 67.6883 126.124 67.7217 126.026C67.8196 125.738 67.968 125.47 68.1599 125.234L60.4492 85.3993L60.3773 85.275C60.2204 84.9516 60.1082 84.6084 60.0438 84.2548C59.9088 84.2448 59.7733 84.2448 59.6383 84.2548C59.579 84.2648 59.5182 84.2612 59.4605 84.2444C59.4028 84.2276 59.3496 84.198 59.305 84.1577C59.2603 84.1175 59.2253 84.0676 59.2027 84.012C59.18 83.9563 59.1701 83.8962 59.1739 83.8362C59.1662 83.0817 59.3604 82.3388 59.7364 81.6846L56.6103 65.57C56.558 65.4841 56.5121 65.3945 56.4729 65.3019L56.316 65.0076C56.2517 65.0059 56.1891 64.9868 56.135 64.9522C56.0808 64.9176 56.0371 64.8689 56.0086 64.8114C55.9631 64.7185 55.9562 64.6114 55.9893 64.5134C56.0223 64.4155 56.0927 64.3345 56.1852 64.2882C56.3486 64.2247 56.4976 64.1291 56.6233 64.0069C56.7124 63.9054 56.7852 63.7907 56.8392 63.6669C56.9419 63.3904 56.9972 63.0985 57.0027 62.8036C56.9044 62.6705 56.8333 62.5194 56.7934 62.3589C56.7637 62.1392 56.7838 61.9157 56.8522 61.7049C56.8661 61.6497 56.8956 61.5997 56.9373 61.561C56.9373 61.3125 56.898 61.0639 56.8849 60.8154L51.8818 61.7833L66.1587 135.437C66.2299 135.399 66.3128 135.388 66.3913 135.408C66.4698 135.427 66.5384 135.475 66.5838 135.541C66.9535 135.942 67.1569 136.468 67.1527 137.013C67.1331 137.12 67.1024 137.226 67.0612 137.327C67.1271 137.375 67.1756 137.443 67.1993 137.521C67.2229 137.599 67.2203 137.682 67.192 137.759C67.0007 138.133 66.9386 138.561 67.0154 138.975C67.0975 139.364 67.209 139.747 67.3489 140.119C67.5956 140.745 67.6278 141.435 67.4405 142.081L71.1683 161.329L72.2278 161.119C72.8234 160.923 73.4306 160.763 74.0459 160.642C74.0367 160.597 74.0371 160.55 74.0473 160.505C74.0574 160.46 74.077 160.417 74.1048 160.38C74.2602 160.201 74.4262 160.03 74.6018 159.87C74.5854 159.804 74.5854 159.734 74.6018 159.668C74.7115 159.215 74.9665 158.811 75.3277 158.516C75.6555 158.275 76.06 158.161 76.4657 158.196C76.8566 158.245 77.2317 158.38 77.5642 158.592C77.8966 158.803 78.1781 159.086 78.3885 159.419C79.461 159.157 80.6186 158.765 81.6585 159.295L122.311 151.447C122.323 151.34 122.345 151.235 122.376 151.133C122.543 150.603 122.853 150.13 123.272 149.766C123.335 149.712 123.414 149.68 123.496 149.674C123.578 149.668 123.661 149.689 123.73 149.733C123.762 149.682 123.806 149.639 123.859 149.61C123.911 149.581 123.971 149.565 124.031 149.565C124.091 149.565 124.151 149.581 124.203 149.61C124.256 149.639 124.3 149.682 124.332 149.733L124.495 149.929L124.567 149.995L124.692 150.08L124.829 150.145C124.705 149.767 124.705 149.359 124.829 148.981C124.906 148.768 125.025 148.574 125.181 148.41C125.336 148.245 125.523 148.115 125.732 148.026C125.693 147.974 125.668 147.913 125.659 147.848C125.65 147.784 125.658 147.718 125.682 147.657C125.705 147.597 125.744 147.543 125.794 147.501C125.843 147.459 125.903 147.431 125.967 147.418C126.052 147.408 126.138 147.425 126.213 147.467C126.288 147.51 126.347 147.575 126.381 147.654C126.416 147.732 126.424 147.82 126.405 147.903C126.385 147.987 126.34 148.062 126.274 148.118L126.32 148.17C126.366 148.263 126.372 148.37 126.339 148.468C126.306 148.566 126.236 148.647 126.144 148.693L125.993 148.765L125.908 148.811L125.862 148.844L125.758 148.935L125.718 148.981L125.653 149.079V149.119C125.638 149.153 125.625 149.188 125.614 149.223C125.744 149.052 125.896 148.898 126.065 148.765C126.179 148.687 126.302 148.623 126.431 148.576C126.752 147.869 127.053 147.15 127.353 146.444L74.2748 156.725Z" fill="#407BFF"/>
<path d="M83.9409 126.222C84.0106 126.146 84.0923 126.082 84.1829 126.032L95.9941 102.698L90.5659 103.751L85.8048 113.07C85.8345 113.077 85.8632 113.088 85.8898 113.103C85.974 113.162 86.0319 113.252 86.0514 113.353C86.0709 113.454 86.0505 113.559 85.9945 113.646C85.8833 113.809 85.7983 113.986 85.7002 114.156C85.7852 114.208 85.8637 114.274 85.9487 114.319C86.0131 114.363 86.063 114.425 86.0922 114.497C86.1213 114.569 86.1283 114.649 86.1122 114.725C86.0962 114.8 86.0586 114.869 86.0041 114.924C85.9495 114.979 85.8803 115.016 85.8048 115.032L85.674 115.104H85.6413H85.6021L85.347 115.222H85.2882L85.1966 115.294L84.9939 115.47L84.8892 115.582L84.8434 115.634L84.6603 115.869C84.5295 116.046 84.4118 116.229 84.2875 116.412C84.2268 116.498 84.1354 116.556 84.0325 116.576L77.0674 130.218L77.7214 133.737L80.8148 133.135C80.914 132.842 81.0796 132.575 81.2988 132.357C81.4023 132.259 81.5164 132.174 81.6388 132.102C81.6356 132.078 81.6356 132.054 81.6388 132.03C81.7855 130.446 82.3006 128.918 83.143 127.569C83.1011 127.504 83.0788 127.428 83.0788 127.35C83.0788 127.273 83.1011 127.197 83.143 127.131C83.2498 126.945 83.2912 126.729 83.2608 126.516C83.2615 126.438 83.285 126.361 83.3284 126.296C83.3718 126.231 83.4332 126.179 83.5052 126.148C83.5772 126.117 83.6567 126.108 83.734 126.121C83.8114 126.134 83.8832 126.169 83.9409 126.222Z" fill="#407BFF"/>
<path d="M104.287 124.149C104.28 124.247 104.253 124.342 104.208 124.43C104.014 124.81 103.699 125.114 103.312 125.293C103.234 125.411 103.149 125.522 103.077 125.633C103.035 125.693 102.975 125.738 102.907 125.764C102.907 125.823 102.861 125.888 102.848 125.947C102.833 125.998 102.807 126.045 102.773 126.086C102.739 126.126 102.697 126.16 102.65 126.184C102.602 126.208 102.551 126.222 102.498 126.225C102.445 126.229 102.392 126.221 102.341 126.204C102.291 126.186 102.246 126.158 102.207 126.122C102.168 126.086 102.136 126.043 102.114 125.994C102.093 125.946 102.081 125.894 102.08 125.841C102.079 125.787 102.089 125.735 102.109 125.686C102.173 125.461 102.256 125.242 102.358 125.032L101.985 125.104C101.884 125.121 101.779 125.099 101.694 125.042C101.609 124.984 101.549 124.897 101.527 124.796C101.517 124.766 101.517 124.734 101.527 124.705L101.298 124.75L99.82 117.066L95.0981 117.982L96.5762 125.62L84.8892 127.883C84.8107 127.922 84.7388 127.981 84.6603 128.027V128.079C84.6891 128.164 84.6883 128.256 84.6579 128.339C84.6275 128.423 84.5695 128.495 84.4932 128.541C84.417 128.587 84.3273 128.607 84.2387 128.595C84.1502 128.584 84.0682 128.543 84.0063 128.478C83.7883 128.666 83.589 128.874 83.4111 129.1C83.4794 129.08 83.5518 129.08 83.62 129.1C83.6882 129.12 83.7495 129.158 83.797 129.211C83.8334 129.247 83.8623 129.289 83.882 129.337C83.9017 129.384 83.9119 129.434 83.9119 129.485C83.9119 129.536 83.9017 129.587 83.882 129.634C83.8623 129.681 83.8334 129.724 83.797 129.76L83.4831 130.022C83.5229 130.088 83.5439 130.164 83.5439 130.241C83.5439 130.318 83.5229 130.394 83.4831 130.46V130.506C83.4798 130.529 83.4798 130.554 83.4831 130.578C83.4831 130.669 83.4831 130.767 83.4831 130.865C83.4693 131.041 83.3927 131.206 83.2673 131.33C83.1246 131.452 82.9499 131.532 82.7637 131.559H82.7179C82.7361 131.754 82.7645 131.948 82.8029 132.141C82.8918 132.318 82.962 132.504 83.0122 132.697L97.3283 129.924L98.9371 138.648L103.816 137.706L102.142 129.06L108.819 127.752L107.982 123.436L104.287 124.149Z" fill="#407BFF"/>
<path d="M132.631 100.605L132.317 100.88C132.167 101.01 132.023 101.141 131.886 101.279L131.709 101.475L131.611 101.593C131.499 101.756 131.331 101.872 131.139 101.921C130.948 101.97 130.745 101.948 130.568 101.858C130.392 101.769 130.254 101.618 130.18 101.435C130.106 101.251 130.101 101.047 130.166 100.86L130.349 100.167C130.349 100.167 130.296 100.115 130.277 100.075C130.224 99.9769 130.197 99.8666 130.198 99.7548C130.186 99.6485 130.199 99.5408 130.238 99.4409C130.238 99.3624 130.296 99.2839 130.329 99.2055C130.186 99.0668 130.067 98.9055 129.976 98.728V98.6757C127.218 97.2248 124.037 96.7896 120.99 97.4462C112.75 99.042 107.91 106.766 110.108 118.217C112.305 129.669 119.721 135.019 127.962 133.423C128.702 133.282 129.43 133.083 130.14 132.828C130.368 132.501 130.597 132.174 130.794 131.853C130.871 131.741 130.976 131.65 131.098 131.589C131.22 131.528 131.355 131.499 131.491 131.504C131.628 131.51 131.76 131.549 131.877 131.619C131.994 131.689 132.092 131.788 132.16 131.905C137.7 128.819 140.577 121.971 138.772 112.658C137.746 107.256 135.535 103.201 132.631 100.605ZM127.098 128.956C121.572 130.028 116.876 126.248 115.13 117.249C113.384 108.25 116.327 102.992 121.853 101.926C123.305 101.612 124.815 101.699 126.222 102.177C127.629 102.655 128.879 103.506 129.839 104.64C129.932 104.574 130.036 104.525 130.146 104.496C130.36 104.458 130.581 104.505 130.76 104.627C130.94 104.749 131.065 104.937 131.107 105.15C131.177 105.565 131.188 105.988 131.14 106.406C132.438 108.627 133.324 111.064 133.756 113.6C135.515 122.632 132.572 127.896 127.098 128.956Z" fill="#407BFF"/>
<path d="M168.438 111.716L166.96 104.078L162.231 104.993L163.716 112.632L150.198 115.248L163.127 89.7026L157.699 90.749L152.84 100.271C152.794 101.46 152.553 102.633 152.127 103.744C152.097 103.817 152.046 103.88 151.98 103.925C151.914 103.969 151.837 103.993 151.757 103.993C151.678 103.993 151.601 103.969 151.535 103.925C151.469 103.88 151.418 103.817 151.388 103.744C151.257 104.758 150.782 105.695 150.041 106.399C149.992 106.444 149.933 106.475 149.868 106.488C149.803 106.5 149.736 106.495 149.674 106.471L144.174 117.249L144.828 120.768L152.964 119.191C153.658 118.64 154.478 118.269 155.351 118.112C156.118 117.935 156.9 117.832 157.686 117.805C158.276 117.76 158.869 117.804 159.445 117.936L164.376 116.981L166.051 125.62L170.923 124.679L169.249 116.039L175.933 114.731L175.095 110.415L168.438 111.716Z" fill="#407BFF"/>
<path d="M78.5453 90.7818L77.7736 86.8055L85.7524 85.2621L85.1507 82.1686L77.1719 83.7121L76.4525 79.9777L85.4843 78.2316L84.8303 75.04L71.8484 77.5579L72.9602 83.287C73.1584 83.3882 73.3341 83.5283 73.4768 83.699C73.7235 84.0105 73.8715 84.3885 73.9019 84.7846C73.987 85.6021 73.7842 86.4458 73.9019 87.2371C73.9179 87.3033 73.914 87.3727 73.8907 87.4367C73.8674 87.5006 73.8259 87.5563 73.7712 87.5968L75.2099 94.7385L88.5123 92.1618L87.8975 88.9441L78.5453 90.7818Z" fill="#407BFF"/>
<path d="M101.972 83.8234C102.937 83.2114 103.694 82.3215 104.143 81.2708C104.593 80.2201 104.713 79.058 104.49 77.9374C104.424 78.0063 104.336 78.0502 104.241 78.0616C104.164 78.0668 104.088 78.049 104.022 78.0106C103.955 77.9721 103.902 77.9148 103.868 77.8458C103.779 77.6372 103.719 77.417 103.692 77.1918C103.692 77.1591 103.692 77.133 103.692 77.1003C103.571 76.9458 103.484 76.7675 103.437 76.5771C103.421 76.4751 103.445 76.3711 103.503 76.286C103.561 76.201 103.65 76.1413 103.751 76.1193C103.79 76.109 103.832 76.1072 103.872 76.1139C103.913 76.1207 103.952 76.1359 103.986 76.1585C102.737 73.3659 99.7284 72.1233 95.7913 72.8885L88.3553 74.3273L89.3625 79.5135C89.442 79.5473 89.5053 79.6106 89.5391 79.6901C90.1719 80.9753 90.5663 82.3647 90.7032 83.7907C90.7189 83.8926 90.6952 83.9967 90.6369 84.0817C90.5785 84.1668 90.49 84.2264 90.3893 84.2485C90.3525 84.2548 90.3149 84.2548 90.2781 84.2485L91.6842 91.5602L95.6605 90.7885L94.7318 86.0077L98.3877 85.2949L102.626 89.4412L106.896 88.6107L101.972 83.8234ZM97.3544 82.1949L94.0844 82.8489L92.9203 76.8648L96.1903 76.2108C98.6166 75.7399 100.062 76.6032 100.428 78.4933C100.794 80.3833 99.7873 81.7502 97.3544 82.1949Z" fill="#407BFF"/>
<path d="M120.016 80.3244C121.013 79.6909 121.788 78.7619 122.232 77.6669C122.677 76.5719 122.768 75.3655 122.494 74.216C121.749 70.364 118.42 68.5393 113.829 69.4288L106.393 70.8741L109.722 88.0481L113.698 87.283L112.769 82.4957L116.425 81.7828L120.67 85.9292L124.94 85.0986L120.016 80.3244ZM115.398 78.7025L112.128 79.3565L110.971 73.3658L114.208 72.7118C114.411 72.6726 114.607 72.6464 114.79 72.6268L114.914 72.5222C114.926 72.4242 114.948 72.3278 114.98 72.2344C115.022 72.121 115.1 72.0239 115.201 71.957C115.302 71.89 115.421 71.8567 115.542 71.8616C115.774 71.8847 115.998 71.9608 116.196 72.084C116.23 72.0429 116.273 72.0095 116.32 71.9859C116.323 71.8604 116.338 71.7355 116.366 71.6131C116.404 71.5196 116.477 71.4444 116.569 71.4031C116.661 71.3618 116.765 71.3575 116.861 71.3912C116.956 71.4248 117.034 71.4939 117.08 71.5839C117.125 71.674 117.134 71.7781 117.105 71.8747C117.027 72.1756 117.171 72.4437 117.144 72.7511C117.136 72.8242 117.113 72.8951 117.079 72.9604C117.447 73.1738 117.761 73.4687 117.996 73.8225C118.232 74.1762 118.384 74.5793 118.439 75.0008C118.832 76.8647 117.825 78.2316 115.398 78.7025Z" fill="#407BFF"/>
<path d="M138.831 66.1131L138.628 66.1654C138.58 66.1818 138.534 66.2037 138.491 66.2308C138.471 66.2424 138.453 66.258 138.439 66.2766C138.381 66.3457 138.303 66.3958 138.216 66.4204C138.165 66.4295 138.113 66.4284 138.063 66.4171C138.012 66.4059 137.964 66.3848 137.922 66.355C137.878 66.3284 137.841 66.2922 137.812 66.2492C137.784 66.2062 137.766 66.1575 137.759 66.1065C137.738 66.0045 137.76 65.8986 137.817 65.8122C137.817 65.8122 137.857 65.7795 137.87 65.7599C136.195 65.2261 134.412 65.1293 132.69 65.4787C127.262 66.5316 124.025 71.0835 125.012 76.1847C126 81.2859 130.708 84.3008 136.13 83.2479C141.552 82.1949 144.802 77.6692 143.808 72.5419C143.564 71.1464 142.983 69.8315 142.116 68.7112C141.248 67.591 140.121 66.6992 138.831 66.1131ZM135.483 79.8471C134.025 80.1298 132.514 79.8218 131.284 78.9909C130.053 78.1599 129.202 76.8741 128.92 75.4162C128.637 73.9584 128.945 72.4479 129.776 71.2171C130.607 69.9863 131.893 69.136 133.351 68.8533C134.085 68.7094 134.84 68.7094 135.574 68.8533C135.574 68.7618 135.633 68.6702 135.666 68.5917C135.698 68.5028 135.762 68.4287 135.845 68.383C135.928 68.3374 136.024 68.3232 136.117 68.3432C136.19 68.356 136.257 68.3913 136.308 68.4441C136.36 68.4969 136.394 68.5645 136.405 68.6375L136.634 68.5786C136.686 68.4151 136.738 68.2582 136.784 68.0947C136.83 67.9312 136.836 67.905 136.856 67.8135C136.87 67.7685 136.881 67.7226 136.889 67.6761V67.6303L136.928 67.3949V67.3099C136.889 67.0483 137.163 66.7344 137.445 66.8717L138.223 67.2445C138.319 67.2826 138.397 67.356 138.44 67.4496C138.484 67.5432 138.491 67.6499 138.458 67.7481C138.412 67.8456 138.373 67.9461 138.341 68.0489C138.341 68.0816 138.341 68.1208 138.308 68.1535C138.308 68.1535 138.308 68.1535 138.308 68.1993C138.295 68.356 138.295 68.5135 138.308 68.6702C138.322 69.042 138.3 69.4144 138.243 69.782C138.261 69.8244 138.27 69.87 138.27 69.9161C138.27 69.9622 138.261 70.0078 138.243 70.0501C138.229 70.0949 138.204 70.1354 138.171 70.1679C139.026 71.0141 139.599 72.1035 139.812 73.2874C139.991 74.0043 140.019 74.7505 139.894 75.4788C139.769 76.207 139.495 76.9014 139.088 77.518C138.681 78.1347 138.15 78.6601 137.53 79.061C136.909 79.4619 136.212 79.7296 135.483 79.8471Z" fill="#407BFF"/>
<path d="M161.316 67.1986C161.294 67.1957 161.272 67.1957 161.25 67.1986C161.094 67.1434 160.95 67.0591 160.825 66.9501C160.766 67.0516 160.698 67.1478 160.622 67.2379C160.562 67.3207 160.472 67.3776 160.372 67.397C160.271 67.4164 160.166 67.397 160.08 67.3425C159.994 67.2841 159.935 67.1943 159.915 67.0926C159.896 66.991 159.917 66.8857 159.975 66.7997C160.361 66.2734 160.604 65.656 160.681 65.0077C159.373 62.3525 156.424 61.1949 152.585 61.9405L145.149 63.3793L148.458 80.5402L152.434 79.7685L151.506 74.9812L155.161 74.2749L159.406 78.4147L163.677 77.5907L158.752 72.8165C159.679 72.231 160.416 71.3876 160.871 70.3898C161.327 69.3919 161.481 68.2829 161.316 67.1986ZM154.154 71.188L150.884 71.842L149.766 65.8252L153.036 65.1712C155.469 64.7003 156.908 65.5702 157.274 67.4602C157.64 69.3503 156.581 70.7171 154.154 71.188Z" fill="#407BFF"/>
<path d="M126.726 171.126H154.678C155.437 171.126 156.19 171.275 156.891 171.566C157.593 171.857 158.231 172.284 158.768 172.821C159.305 173.359 159.731 173.997 160.021 174.699C160.311 175.401 160.46 176.154 160.459 176.913V186.723C160.46 187.483 160.311 188.236 160.021 188.938C159.731 189.64 159.305 190.278 158.768 190.816C158.231 191.353 157.593 191.78 156.891 192.071C156.19 192.362 155.437 192.511 154.678 192.511H136.104L127.602 201.602L132.18 192.511H126.699C125.164 192.511 123.692 191.902 122.607 190.816C121.521 189.731 120.911 188.258 120.911 186.723V176.913C120.911 176.151 121.062 175.396 121.355 174.692C121.647 173.989 122.076 173.349 122.616 172.812C123.156 172.274 123.797 171.848 124.503 171.559C125.208 171.269 125.963 171.122 126.726 171.126Z" fill="#407BFF"/>
<path opacity="0.7" d="M126.726 171.126H154.678C155.437 171.126 156.19 171.275 156.891 171.566C157.593 171.857 158.231 172.284 158.768 172.821C159.305 173.359 159.731 173.997 160.021 174.699C160.311 175.401 160.46 176.154 160.459 176.913V186.723C160.46 187.483 160.311 188.236 160.021 188.938C159.731 189.64 159.305 190.278 158.768 190.816C158.231 191.353 157.593 191.78 156.891 192.071C156.19 192.362 155.437 192.511 154.678 192.511H136.104L127.602 201.602L132.18 192.511H126.699C125.164 192.511 123.692 191.902 122.607 190.816C121.521 189.731 120.911 188.258 120.911 186.723V176.913C120.911 176.151 121.062 175.396 121.355 174.692C121.647 173.989 122.076 173.349 122.616 172.812C123.156 172.274 123.797 171.848 124.503 171.559C125.208 171.269 125.963 171.122 126.726 171.126Z" fill="white"/>
<path d="M128.092 181.275C128.068 180.615 128.241 179.963 128.589 179.401C128.938 178.84 129.446 178.396 130.049 178.126C130.652 177.855 131.322 177.771 131.973 177.884C132.624 177.997 133.226 178.302 133.703 178.76C134.179 179.218 134.508 179.807 134.647 180.453C134.786 181.099 134.729 181.772 134.483 182.385C134.238 182.998 133.814 183.524 133.267 183.895C132.721 184.266 132.075 184.465 131.415 184.467C130.984 184.488 130.553 184.422 130.149 184.27C129.745 184.119 129.376 183.887 129.065 183.588C128.754 183.289 128.507 182.93 128.34 182.532C128.172 182.135 128.088 181.707 128.092 181.275ZM133.828 181.275C133.833 180.794 133.695 180.322 133.431 179.919C133.167 179.516 132.789 179.201 132.345 179.014C131.902 178.827 131.412 178.776 130.94 178.867C130.467 178.959 130.032 179.189 129.691 179.529C129.349 179.869 129.117 180.302 129.022 180.774C128.928 181.247 128.977 181.736 129.161 182.181C129.346 182.625 129.659 183.005 130.061 183.271C130.462 183.537 130.933 183.678 131.415 183.676C131.733 183.686 132.05 183.63 132.347 183.513C132.643 183.396 132.913 183.22 133.139 182.996C133.364 182.771 133.542 182.502 133.661 182.207C133.779 181.911 133.836 181.594 133.828 181.275Z" fill="#407BFF"/>
<path d="M135.522 182.034C135.509 181.546 135.642 181.065 135.903 180.652C136.165 180.239 136.543 179.914 136.991 179.718C137.438 179.521 137.934 179.462 138.414 179.548C138.895 179.635 139.34 179.862 139.691 180.202C140.042 180.542 140.283 180.979 140.385 181.457C140.487 181.934 140.444 182.432 140.262 182.885C140.08 183.338 139.767 183.727 139.363 184.002C138.959 184.277 138.483 184.425 137.994 184.428C137.672 184.444 137.35 184.394 137.047 184.28C136.745 184.167 136.47 183.992 136.238 183.768C136.006 183.543 135.823 183.274 135.7 182.975C135.577 182.677 135.516 182.357 135.522 182.034ZM139.57 182.034C139.584 181.816 139.553 181.598 139.48 181.393C139.406 181.188 139.291 181 139.142 180.84C138.992 180.681 138.812 180.554 138.612 180.468C138.412 180.381 138.196 180.336 137.978 180.336C137.759 180.336 137.544 180.381 137.343 180.468C137.143 180.554 136.963 180.681 136.814 180.84C136.664 181 136.549 181.188 136.476 181.393C136.402 181.598 136.371 181.816 136.385 182.034C136.371 182.252 136.402 182.47 136.476 182.675C136.549 182.881 136.664 183.069 136.814 183.228C136.963 183.387 137.143 183.514 137.343 183.601C137.544 183.687 137.759 183.732 137.978 183.732C138.196 183.732 138.412 183.687 138.612 183.601C138.812 183.514 138.992 183.387 139.142 183.228C139.291 183.069 139.406 182.881 139.48 182.675C139.553 182.47 139.584 182.252 139.57 182.034Z" fill="#407BFF"/>
<path d="M146.496 182.034C146.514 182.354 146.464 182.674 146.351 182.973C146.238 183.272 146.063 183.545 145.838 183.772C145.613 184 145.343 184.179 145.046 184.296C144.748 184.413 144.429 184.467 144.109 184.454C143.793 184.464 143.479 184.399 143.193 184.265C142.906 184.131 142.656 183.931 142.461 183.682V186.128H141.604V179.673H142.422V180.425C142.618 180.166 142.873 179.958 143.167 179.819C143.461 179.68 143.784 179.614 144.109 179.627C144.428 179.614 144.745 179.668 145.042 179.784C145.339 179.901 145.609 180.078 145.833 180.305C146.058 180.531 146.233 180.802 146.347 181.099C146.461 181.397 146.512 181.716 146.496 182.034ZM145.633 182.034C145.617 181.724 145.511 181.425 145.328 181.174C145.145 180.924 144.892 180.732 144.601 180.624C144.31 180.515 143.993 180.494 143.691 180.564C143.388 180.633 143.112 180.79 142.897 181.014C142.683 181.238 142.538 181.521 142.482 181.826C142.426 182.132 142.461 182.447 142.582 182.733C142.704 183.019 142.906 183.263 143.165 183.435C143.423 183.608 143.726 183.7 144.037 183.702C144.255 183.709 144.472 183.67 144.675 183.588C144.877 183.506 145.06 183.382 145.211 183.225C145.363 183.068 145.48 182.881 145.555 182.675C145.629 182.47 145.661 182.252 145.646 182.034H145.633Z" fill="#407BFF"/>
<path d="M147.098 183.898L147.451 183.244C147.947 183.56 148.523 183.728 149.112 183.728C149.903 183.728 150.23 183.493 150.23 183.074C150.23 182.015 147.248 182.937 147.248 181.053C147.248 180.21 148.007 179.634 149.21 179.634C149.811 179.625 150.404 179.774 150.93 180.066L150.564 180.72C150.157 180.465 149.684 180.336 149.204 180.347C148.451 180.347 148.085 180.622 148.085 181.001C148.085 182.113 151.081 181.204 151.081 183.042C151.081 183.892 150.296 184.441 149.04 184.441C148.352 184.462 147.675 184.273 147.098 183.898Z" fill="#407BFF"/>
<path d="M151.963 183.879C151.963 183.802 151.979 183.727 152.008 183.656C152.038 183.586 152.082 183.522 152.137 183.469C152.192 183.416 152.257 183.375 152.328 183.347C152.4 183.32 152.476 183.307 152.552 183.31C152.627 183.308 152.702 183.321 152.772 183.349C152.842 183.377 152.905 183.419 152.958 183.472C153.011 183.525 153.053 183.589 153.081 183.659C153.109 183.729 153.123 183.803 153.121 183.879C153.122 183.954 153.108 184.029 153.08 184.098C153.051 184.168 153.01 184.232 152.957 184.285C152.904 184.339 152.841 184.381 152.771 184.41C152.702 184.439 152.627 184.454 152.552 184.454C152.475 184.456 152.399 184.442 152.328 184.414C152.256 184.386 152.191 184.344 152.137 184.29C152.082 184.237 152.038 184.173 152.008 184.102C151.979 184.031 151.963 183.955 151.963 183.879ZM152.042 178.163H153.036L152.866 182.427H152.212L152.042 178.163Z" fill="#407BFF"/>
<path d="M289.722 69.1799C289.722 71.312 278.061 73.1432 261.358 73.9476L260.017 74.013L258.212 74.0849C255.707 74.183 253.105 74.255 250.423 74.3138H249.22H248.566C246.506 74.3465 244.4 74.3596 242.261 74.3596C238.39 74.3596 234.629 74.3073 231.026 74.2157L228.41 74.1307C221.837 73.9149 215.872 73.5421 210.85 73.0582C200.994 72.1033 194.774 70.7103 194.774 69.1342C194.774 66.7863 208.901 64.8112 228.331 64.1572L229.855 64.1049C231.211 64.0657 232.586 64.033 233.982 64.0068C235.662 63.9741 237.376 63.9545 239.109 63.9414H242.268C247.16 63.9414 251.882 64.0199 256.322 64.1768L258.428 64.2488L261.168 64.3665L261.881 64.4057L263.706 64.4973C279.095 65.3998 289.722 67.146 289.722 69.1799Z" fill="#263238"/>
<path opacity="0.4" d="M289.722 69.1801C289.722 71.3122 278.061 73.1434 261.358 73.9478L260.017 74.0132L258.212 74.0851C255.707 74.1832 253.105 74.2552 250.423 74.314H249.22H248.566C246.506 74.3467 244.4 74.3598 242.261 74.3598C238.39 74.3598 234.629 74.3075 231.026 74.2159L228.41 74.1309C221.837 73.9151 215.872 73.5423 210.85 73.0584C200.994 72.1035 194.774 70.7105 194.774 69.1344C194.774 68.4411 196.01 67.774 198.254 67.1724C202.397 68.1431 206.607 68.799 210.85 69.1344C215.872 69.6183 221.837 69.9911 228.41 70.2069L231.026 70.2919C234.629 70.3835 238.39 70.4358 242.261 70.4358C244.4 70.4358 246.506 70.4358 248.566 70.39H249.22H250.423C253.105 70.3312 255.707 70.2592 258.212 70.1611L260.017 70.0892L261.358 70.0238C272.626 69.481 281.593 68.4738 286.243 67.2181C288.453 67.8264 289.722 68.4804 289.722 69.1801Z" fill="white"/>
<path d="M239.037 63.9873C238.989 64.7664 238.696 65.5105 238.2 66.1128C237.657 66.7668 237.193 67.2638 236.663 67.8067C236.349 68.1271 236.009 68.4607 235.715 68.7484C235.505 68.9642 235.29 69.167 235.061 69.3632C233.953 70.3862 232.782 71.3386 231.555 72.2146L231.339 72.365L230.77 72.7444C229.987 73.2682 229.17 73.7401 228.324 74.157C228.011 74.314 227.67 74.4644 227.357 74.6083C226.573 74.9379 225.767 75.209 224.943 75.4192C224.211 75.6154 223.511 75.7855 222.818 75.9294C221.843 76.1452 220.856 76.3414 219.921 76.5179C218.135 76.8646 216.356 77.1719 214.564 77.4335C213.04 77.6624 211.517 77.8783 209.986 78.0875C208.757 78.238 207.527 78.3688 206.285 78.4734C206.148 78.4899 206.009 78.4899 205.873 78.4734C205.458 78.4169 205.076 78.2208 204.788 77.9176C204.501 77.6144 204.325 77.2222 204.29 76.8057C204.283 76.723 204.283 76.6399 204.29 76.5572C204.307 76.1953 204.43 75.8466 204.646 75.5555C204.861 75.2643 205.159 75.0438 205.5 74.9222L205.657 74.8699C207.351 74.2616 209.051 73.6861 210.758 73.1302L213.341 72.2931C215.957 71.4429 218.573 70.645 221.117 69.8014C221.771 69.5921 222.38 69.3763 222.962 69.1474C223.463 68.9812 223.946 68.762 224.4 68.4934C224.695 68.3233 224.989 68.1337 225.29 67.9309C225.949 67.4878 226.585 67.0097 227.193 66.4987C228.056 65.7858 228.92 65.001 229.763 64.1835C231.119 64.1443 232.495 64.1116 233.89 64.0854C235.59 64.02 237.304 64.0004 239.037 63.9873Z" fill="#FFB573"/>
<path d="M239.115 66.6295C239.07 66.7669 239.017 66.8977 238.965 67.0285C238.913 67.1593 238.854 67.2901 238.788 67.4209C238.731 67.5491 238.665 67.6736 238.592 67.7937L238.376 68.1664V68.1991C238.228 68.4302 238.071 68.6482 237.906 68.8531C237.729 69.082 237.546 69.3044 237.35 69.5071L237.167 69.7099C236.882 70.0142 236.581 70.3024 236.264 70.5732C236.159 70.6713 236.048 70.7628 235.937 70.8478C235.899 70.8865 235.857 70.9215 235.813 70.9525C234.832 71.7348 233.781 72.4245 232.674 73.0126L232.275 73.2153L231.882 73.4115L231.732 73.4769L231.254 73.0584L230.849 72.6921L229.933 71.8812L225.355 67.846L225.009 67.5386C225.009 67.5386 226.408 65.9755 228.279 64.1509L229.802 64.0986C231.158 64.0593 232.534 64.0266 233.929 64.0005C235.61 63.9678 237.323 63.9481 239.057 63.9351H239.436C239.53 64.8459 239.42 65.7662 239.115 66.6295Z" fill="#407BFF"/>
<path opacity="0.7" d="M239.122 66.6295C239.076 66.7651 239.024 66.8983 238.965 67.0285C238.913 67.1593 238.854 67.2901 238.788 67.4209C238.731 67.5491 238.665 67.6736 238.592 67.7937L238.376 68.1664V68.1991C238.228 68.4302 238.071 68.6482 237.906 68.8531C237.729 69.082 237.546 69.3044 237.35 69.5071L237.167 69.7099C236.882 70.0142 236.581 70.3024 236.264 70.5732C236.159 70.6713 236.048 70.7628 235.937 70.8478C235.899 70.8865 235.857 70.9215 235.813 70.9525C234.832 71.7348 233.781 72.4245 232.674 73.0126L232.275 73.2153L231.882 73.4115L231.732 73.4769L231.254 73.0584L230.849 72.6921L229.933 71.8812L225.355 67.846L225.009 67.5386C225.009 67.5386 226.408 65.9755 228.279 64.1509L229.802 64.0986C231.158 64.0593 232.534 64.0266 233.929 64.0005C235.61 63.9678 237.323 63.9481 239.057 63.9351H239.442C239.537 64.8459 239.427 65.7662 239.122 66.6295Z" fill="white"/>
<path opacity="0.1" d="M235.767 70.9983C234.508 72.0048 233.131 72.8547 231.666 73.5293L229.868 71.9401C230.812 69.1344 232.515 66.6446 234.786 64.7461C235.603 66.2634 235.865 69.4353 235.767 70.9983Z" fill="black"/>
<path d="M206.193 74.9028L200.124 73.9741L200.17 79.35C200.17 79.35 204.329 80.5991 206.533 77.7739L206.193 74.9028Z" fill="#EBB376"/>
<path d="M195.984 75.426L196.985 79.4219L200.163 79.35L200.117 73.9741L195.984 75.426Z" fill="#EBB376"/>
<path d="M261.096 64.3992C261.044 64.5365 260.985 64.6738 260.933 64.8177C260.776 65.2167 260.626 65.6221 260.482 66.0276C260.39 66.2761 260.305 66.5247 260.22 66.7797C260.135 67.0348 260.043 67.2898 259.965 67.5449C259.723 68.3035 259.488 69.0687 259.259 69.847C259.251 69.8892 259.24 69.9307 259.226 69.9712C258.977 70.8345 258.755 71.7174 258.539 72.5872V72.6919C258.428 73.1497 258.31 73.6075 258.206 74.0718C258.153 74.2811 258.108 74.4838 258.062 74.6931C257.885 75.4975 257.715 76.3085 257.558 77.1129C257.499 77.4138 257.441 77.7146 257.388 78.0089C257.336 78.3032 257.264 78.6629 257.212 78.9441C257.212 79.0095 257.212 79.0749 257.179 79.1403C257.146 79.3104 257.114 79.4804 257.087 79.6504C257.002 80.1279 256.924 80.5987 256.845 81.0631C256.845 81.135 256.845 81.2004 256.813 81.2724L256.734 81.7629C256.577 82.7177 256.44 83.6529 256.316 84.562C256.313 84.6143 256.313 84.6667 256.316 84.7189C256.178 85.7196 256.061 86.6809 255.956 87.6162C255.91 88.002 255.864 88.3813 255.825 88.7541C255.766 89.2773 255.714 89.7809 255.668 90.2714C255.629 90.6311 255.596 90.9843 255.564 91.3243C255.531 91.6644 255.505 91.9784 255.479 92.2596C255.452 92.5408 255.426 92.8612 255.4 93.1425C255.335 93.9403 255.282 94.6597 255.237 95.281C255.237 95.5557 255.204 95.8043 255.184 96.0397C255.132 96.9095 255.106 97.5177 255.093 97.7924C255.093 97.9036 255.093 97.9624 255.093 97.9624L243.497 96.8964H243.327L241.365 96.7133L238.416 96.4386L234.786 96.1378L233.929 96.0593L229.593 95.6604C229.593 95.2483 229.554 94.8494 229.547 94.4439C229.547 94.3327 229.547 94.2216 229.547 94.1104C229.423 90.5395 229.489 87.263 229.678 84.3004C229.783 82.7482 229.918 81.2724 230.084 79.8728C230.319 77.8585 230.613 76.0077 230.947 74.3007C231.019 73.9149 231.097 73.5355 231.176 73.1693C231.228 72.9142 231.281 72.6723 231.339 72.4303C231.778 70.4674 232.32 68.5289 232.961 66.6228C233.275 65.7072 233.615 64.8766 233.897 64.1245C235.577 64.0918 237.291 64.0722 239.024 64.0591H242.183C247.075 64.0591 251.797 64.1376 256.237 64.2945L258.343 64.3665L261.096 64.3992Z" fill="#407BFF"/>
<path opacity="0.7" d="M261.096 64.3992C261.044 64.5365 260.985 64.6738 260.933 64.8177C260.776 65.2167 260.626 65.6221 260.482 66.0276C260.39 66.2761 260.305 66.5247 260.22 66.7797C260.135 67.0348 260.043 67.2898 259.965 67.5449V67.5907C259.723 68.3362 259.501 69.0818 259.278 69.847C259.27 69.8892 259.26 69.9307 259.246 69.9712C258.932 71.083 258.637 72.2145 258.363 73.3524C258.304 73.5944 258.252 73.8429 258.199 74.0849C258.147 74.3269 258.101 74.4969 258.055 74.7062C257.879 75.5106 257.709 76.3216 257.552 77.126C257.486 77.4268 257.427 77.7277 257.375 78.0285C257.316 78.3359 257.257 78.6498 257.205 78.9572C257.205 79.0226 257.205 79.0945 257.166 79.1599C257.133 79.33 257.1 79.5 257.074 79.6701C256.989 80.1475 256.911 80.6184 256.832 81.0827C256.832 81.1546 256.832 81.22 256.8 81.292L256.721 81.7825C256.571 82.7373 256.427 83.6725 256.303 84.5816C256.299 84.6339 256.299 84.6863 256.303 84.7386C256.165 85.7392 256.048 86.7006 255.943 87.6358C255.897 88.0216 255.851 88.401 255.812 88.7737C255.753 89.2969 255.701 89.8005 255.655 90.291C255.616 90.6507 255.583 91.0039 255.551 91.344C255.518 91.684 255.492 91.998 255.465 92.2792C255.439 92.5604 255.413 92.8809 255.387 93.1621C255.322 93.96 255.269 94.6794 255.224 95.3007C255.224 95.5753 255.191 95.8239 255.171 96.0593C255.119 96.9291 255.093 97.5373 255.08 97.812C255.08 97.9232 255.08 97.9821 255.08 97.9821L243.484 96.916H243.314L241.352 96.7329L238.403 96.4582L234.786 96.1378L233.929 96.0593L229.593 95.6604C229.593 95.2483 229.554 94.8494 229.547 94.4439C229.547 94.3327 229.547 94.2216 229.547 94.1104C229.423 90.5395 229.489 87.263 229.678 84.3004C229.783 82.7482 229.918 81.2724 230.084 79.8728C230.319 77.8585 230.613 76.0077 230.947 74.3007C231.019 73.9149 231.097 73.5355 231.176 73.1693C231.228 72.9142 231.281 72.6723 231.339 72.4303C231.778 70.4674 232.32 68.5289 232.961 66.6228C233.275 65.7072 233.615 64.8766 233.897 64.1245C235.577 64.0918 237.291 64.0722 239.024 64.0591H242.183C247.075 64.0591 251.797 64.1376 256.237 64.2945L258.343 64.3665L261.096 64.3992Z" fill="white"/>
<path d="M198.489 151.205C198.489 151.205 206.664 147.804 206.945 144.436C206.948 144.355 206.968 144.276 207.003 144.203C207.038 144.131 207.088 144.066 207.15 144.014C207.211 143.962 207.283 143.923 207.36 143.9C207.438 143.877 207.519 143.87 207.599 143.88L213.838 144.259C213.985 144.272 214.127 144.323 214.247 144.408C214.368 144.493 214.464 144.609 214.525 144.743L217.023 150.518L215.29 150.754L214.564 149.962L213.91 150.943C204.519 152.251 200.451 152.676 198.515 152.349C198.162 151.558 198.489 151.205 198.489 151.205Z" fill="black"/>
<path d="M236.807 117.243C236.447 117.164 236.251 117.105 236.251 117.105L206.821 113.43L215.572 144.593L206.664 145.443C206.664 145.443 186.338 106.236 194.644 100.579C202.949 94.9216 228.704 101.167 228.704 101.167L229.718 93.4043L255.322 95.314C259.435 120.905 240.338 117.982 236.807 117.243Z" fill="#263238"/>
<path d="M228.325 207.272C228.325 207.272 237.14 206.429 238.39 203.263C238.416 203.189 238.457 203.121 238.51 203.064C238.563 203.006 238.627 202.959 238.698 202.927C238.77 202.894 238.847 202.877 238.925 202.875C239.004 202.873 239.082 202.888 239.155 202.917L245.041 205.101C245.177 205.155 245.296 205.244 245.387 205.359C245.478 205.473 245.537 205.61 245.557 205.755L246.264 212.007L244.537 211.726L244.066 210.758L243.177 211.51C233.825 210 229.796 209.247 228.043 208.365C227.88 207.501 228.325 207.272 228.325 207.272Z" fill="black"/>
<path d="M255.577 104.588C255.537 104.745 254.471 109.65 253.078 116.68C253 117.079 252.921 117.498 252.836 117.91C252.182 121.252 251.463 125.012 250.757 128.93C249.893 133.697 249.037 138.74 248.317 143.494C247.342 149.45 246.706 155.457 246.414 161.486C246.074 176.639 245.44 206.54 245.44 206.54L237.284 205.232C237.284 205.232 232.778 173.343 232.831 157.902C232.87 148.092 235.303 127.877 236.964 115.307C237.801 108.858 238.442 104.411 238.442 104.411L247.683 104.496L255.577 104.588Z" fill="#263238"/>
<path d="M254.936 97.8056L255.479 97.8514L255.452 96.0791L254.975 96.0464L254.936 97.8056Z" fill="#263238"/>
<path d="M234.806 96.2428L245.727 97.093L245.78 95.3337L234.897 94.4966L234.806 96.2428Z" fill="#263238"/>
<path d="M234.054 94.431L229.436 94.0713L229.273 95.8109L233.949 96.1772L234.054 94.431Z" fill="#263238"/>
<path d="M254.131 95.981L246.617 95.3989L246.584 97.1582L254.073 97.7402L254.131 95.981Z" fill="#263238"/>
<g opacity="0.2">
<path d="M254.936 97.8056L255.479 97.8514L255.452 96.0791L254.975 96.0464L254.936 97.8056Z" fill="white"/>
<path d="M234.806 96.2428L245.727 97.093L245.78 95.3337L234.897 94.4966L234.806 96.2428Z" fill="white"/>
<path d="M234.054 94.431L229.436 94.0713L229.273 95.8109L233.949 96.1772L234.054 94.431Z" fill="white"/>
<path d="M254.131 95.981L246.617 95.3989L246.584 97.1582L254.073 97.7402L254.131 95.981Z" fill="white"/>
</g>
<path d="M241.221 96.9752H241.169L238.448 96.7201C238.306 96.7084 238.174 96.6418 238.08 96.5344C237.986 96.4269 237.938 96.2872 237.945 96.1446L237.984 95.0786C237.986 95.0035 238.005 94.9298 238.037 94.8622C238.07 94.7947 238.116 94.7347 238.174 94.6862C238.229 94.6351 238.294 94.5964 238.365 94.5727C238.436 94.549 238.511 94.5409 238.586 94.5489L241.293 94.7581C241.436 94.7682 241.568 94.8332 241.663 94.9394C241.759 95.0456 241.809 95.1846 241.803 95.3271V96.4389C241.802 96.5145 241.786 96.589 241.754 96.6577C241.722 96.7264 241.677 96.7878 241.62 96.8379C241.51 96.9331 241.367 96.9822 241.221 96.9752ZM238.54 95.0132C238.523 95.0072 238.505 95.0072 238.488 95.0132C238.483 95.0224 238.481 95.0325 238.481 95.0426C238.481 95.0528 238.483 95.0628 238.488 95.072L238.442 96.1381C238.441 96.1489 238.442 96.1598 238.446 96.1701C238.449 96.1804 238.455 96.1898 238.462 96.1978C238.47 96.2058 238.479 96.2122 238.489 96.2166C238.499 96.2209 238.509 96.2231 238.52 96.2231L241.241 96.4781C241.251 96.4825 241.262 96.4847 241.274 96.4847C241.285 96.4847 241.296 96.4825 241.306 96.4781C241.314 96.4593 241.314 96.4382 241.306 96.4193V95.3075C241.306 95.286 241.298 95.2653 241.284 95.2496C241.269 95.2338 241.249 95.2241 241.228 95.2225L238.52 95.0132H238.54Z" fill="white"/>
<path d="M241.182 96.0728L240.352 95.9943C240.288 95.9877 240.23 95.9565 240.19 95.9076C240.15 95.8587 240.13 95.7959 240.136 95.7327C240.142 95.6713 240.173 95.615 240.22 95.5759C240.268 95.5367 240.329 95.5179 240.391 95.5234L241.221 95.6019C241.284 95.6019 241.344 95.6267 241.388 95.6708C241.432 95.715 241.457 95.7749 241.457 95.8373C241.457 95.8998 241.432 95.9596 241.388 96.0038C241.344 96.048 241.284 96.0728 241.221 96.0728H241.182Z" fill="white"/>
<path opacity="0.1" d="M259.226 69.978C258.912 71.0898 258.618 72.2213 258.343 73.3592C258.238 73.8105 258.134 74.2617 258.036 74.713C257.545 76.9301 257.127 79.1537 256.78 81.2988L256.702 81.7893C252.209 83.2346 247.546 82.2405 247.696 77.9111C247.912 72.1101 252.856 69.4091 252.856 69.4091C255.06 68.1992 257.369 68.67 259.226 69.978Z" fill="black"/>
<path d="M215.271 236.1H221.32L201.648 80.6445H195.598L215.271 236.1Z" fill="#263238"/>
<path opacity="0.4" d="M215.271 236.1H221.32L201.648 80.6445H195.598L215.271 236.1Z" fill="white"/>
<path d="M202.622 103.685H221.856C222.096 103.672 222.327 103.591 222.523 103.453C222.718 103.314 222.871 103.122 222.962 102.9L224.185 100.284H200.294L201.517 102.9C201.608 103.122 201.76 103.314 201.956 103.453C202.152 103.591 202.383 103.672 202.622 103.685Z" fill="#263238"/>
<path opacity="0.4" d="M202.622 103.685H221.856C222.096 103.672 222.327 103.591 222.523 103.453C222.718 103.314 222.871 103.122 222.962 102.9L224.185 100.284H200.294L201.517 102.9C201.608 103.122 201.76 103.314 201.956 103.453C202.152 103.591 202.383 103.672 202.622 103.685Z" fill="white"/>
<path d="M200.615 101.54H223.858C224.548 101.54 225.107 100.981 225.107 100.291V100.01C225.107 99.3198 224.548 98.7605 223.858 98.7605H200.615C199.925 98.7605 199.365 99.3198 199.365 100.01V100.291C199.365 100.981 199.925 101.54 200.615 101.54Z" fill="#263238"/>
<path opacity="0.1" d="M200.615 101.54H223.858C224.548 101.54 225.107 100.981 225.107 100.291V100.01C225.107 99.3198 224.548 98.7605 223.858 98.7605H200.615C199.925 98.7605 199.365 99.3198 199.365 100.01V100.291C199.365 100.981 199.925 101.54 200.615 101.54Z" fill="white"/>
<path d="M206.134 125.908H225.362C225.603 125.896 225.835 125.815 226.031 125.675C226.227 125.535 226.378 125.341 226.467 125.117L227.69 122.534H203.806L205.022 125.117C205.112 125.342 205.265 125.536 205.462 125.676C205.659 125.816 205.893 125.897 206.134 125.908Z" fill="#263238"/>
<path opacity="0.4" d="M206.134 125.908H225.362C225.603 125.896 225.835 125.815 226.031 125.675C226.227 125.535 226.378 125.341 226.467 125.117L227.69 122.534H203.806L205.022 125.117C205.112 125.342 205.265 125.536 205.462 125.676C205.659 125.816 205.893 125.897 206.134 125.908Z" fill="white"/>
<path d="M204.126 123.763H227.37C228.06 123.763 228.619 123.204 228.619 122.514V122.233C228.619 121.543 228.06 120.984 227.37 120.984H204.126C203.437 120.984 202.877 121.543 202.877 122.233V122.514C202.877 123.204 203.437 123.763 204.126 123.763Z" fill="#263238"/>
<path opacity="0.1" d="M204.126 123.763H227.37C228.06 123.763 228.619 123.204 228.619 122.514V122.233C228.619 121.543 228.06 120.984 227.37 120.984H204.126C203.437 120.984 202.877 121.543 202.877 122.233V122.514C202.877 123.204 203.437 123.763 204.126 123.763Z" fill="white"/>
<path d="M209.64 155.318H228.9C229.141 155.308 229.374 155.229 229.571 155.09C229.769 154.95 229.922 154.757 230.012 154.533L231.228 151.917H207.318L208.541 154.533C208.63 154.756 208.78 154.948 208.975 155.087C209.17 155.226 209.401 155.306 209.64 155.318Z" fill="#263238"/>
<path opacity="0.4" d="M209.64 155.318H228.9C229.141 155.308 229.374 155.229 229.571 155.09C229.769 154.95 229.922 154.757 230.012 154.533L231.228 151.917H207.318L208.541 154.533C208.63 154.756 208.78 154.948 208.975 155.087C209.17 155.226 209.401 155.306 209.64 155.318Z" fill="white"/>
<path d="M207.632 153.18H230.875C231.565 153.18 232.124 152.62 232.124 151.931V151.649C232.124 150.959 231.565 150.4 230.875 150.4H207.632C206.942 150.4 206.383 150.959 206.383 151.649V151.931C206.383 152.62 206.942 153.18 207.632 153.18Z" fill="#263238"/>
<path opacity="0.1" d="M207.632 153.18H230.875C231.565 153.18 232.124 152.62 232.124 151.931V151.649C232.124 150.959 231.565 150.4 230.875 150.4H207.632C206.942 150.4 206.383 150.959 206.383 151.649V151.931C206.383 152.62 206.942 153.18 207.632 153.18Z" fill="white"/>
<path d="M213.145 184.735H232.379C232.619 184.724 232.851 184.644 233.047 184.505C233.243 184.366 233.395 184.173 233.485 183.95L234.708 181.334H210.817L212.04 183.95C212.13 184.173 212.282 184.366 212.478 184.505C212.673 184.644 212.905 184.724 213.145 184.735Z" fill="#263238"/>
<path opacity="0.4" d="M213.145 184.735H232.379C232.619 184.724 232.851 184.644 233.047 184.505C233.243 184.366 233.395 184.173 233.485 183.95L234.708 181.334H210.817L212.04 183.95C212.13 184.173 212.282 184.366 212.478 184.505C212.673 184.644 212.905 184.724 213.145 184.735Z" fill="white"/>
<path d="M211.137 182.597H234.38C235.07 182.597 235.63 182.037 235.63 181.348V181.066C235.63 180.376 235.07 179.817 234.38 179.817H211.137C210.447 179.817 209.888 180.376 209.888 181.066V181.348C209.888 182.037 210.447 182.597 211.137 182.597Z" fill="#263238"/>
<path opacity="0.1" d="M211.137 182.597H234.38C235.07 182.597 235.63 182.037 235.63 181.348V181.066C235.63 180.376 235.07 179.817 234.38 179.817H211.137C210.447 179.817 209.888 180.376 209.888 181.066V181.348C209.888 182.037 210.447 182.597 211.137 182.597Z" fill="white"/>
<path d="M216.657 214.152H235.885C236.125 214.142 236.357 214.062 236.553 213.923C236.749 213.784 236.901 213.591 236.99 213.367L238.213 210.751H214.322L215.545 213.367C215.636 213.591 215.789 213.784 215.986 213.924C216.183 214.063 216.416 214.142 216.657 214.152Z" fill="#263238"/>
<path opacity="0.4" d="M216.657 214.152H235.885C236.125 214.142 236.357 214.062 236.553 213.923C236.749 213.784 236.901 213.591 236.99 213.367L238.213 210.751H214.322L215.545 213.367C215.636 213.591 215.789 213.784 215.986 213.924C216.183 214.063 216.416 214.142 216.657 214.152Z" fill="white"/>
<path d="M214.643 212.014H237.886C238.576 212.014 239.135 211.454 239.135 210.765V210.483C239.135 209.793 238.576 209.234 237.886 209.234H214.643C213.953 209.234 213.394 209.793 213.394 210.483V210.765C213.394 211.454 213.953 212.014 214.643 212.014Z" fill="#263238"/>
<path opacity="0.1" d="M214.643 212.014H237.886C238.576 212.014 239.135 211.454 239.135 210.765V210.483C239.135 209.793 238.576 209.234 237.886 209.234H214.643C213.953 209.234 213.394 209.793 213.394 210.483V210.765C213.394 211.454 213.953 212.014 214.643 212.014Z" fill="white"/>
<path d="M238.625 236.1H244.674L225.002 80.6445H218.953L238.625 236.1Z" fill="#263238"/>
<path opacity="0.7" d="M238.625 236.1H244.674L225.002 80.6445H218.953L238.625 236.1Z" fill="white"/>
<path d="M175.115 236.1H169.066L188.731 80.6445H194.781L175.115 236.1Z" fill="#263238"/>
<path opacity="0.4" d="M175.115 236.1H169.066L188.731 80.6445H194.781L175.115 236.1Z" fill="white"/>
<path d="M211.111 103.685H191.884C191.643 103.673 191.411 103.593 191.214 103.454C191.017 103.315 190.864 103.123 190.772 102.9L189.555 100.284H213.439L212.217 102.9C212.127 103.123 211.975 103.315 211.779 103.455C211.583 103.594 211.351 103.674 211.111 103.685Z" fill="#263238"/>
<path opacity="0.5" d="M211.111 103.685H191.884C191.643 103.673 191.411 103.593 191.214 103.454C191.017 103.315 190.864 103.123 190.772 102.9L189.555 100.284H213.439L212.217 102.9C212.127 103.123 211.975 103.315 211.779 103.455C211.583 103.594 211.351 103.674 211.111 103.685Z" fill="white"/>
<path d="M213.119 98.7671H189.876C189.186 98.7671 188.627 99.3263 188.627 100.016V100.297C188.627 100.987 189.186 101.547 189.876 101.547H213.119C213.809 101.547 214.368 100.987 214.368 100.297V100.016C214.368 99.3263 213.809 98.7671 213.119 98.7671Z" fill="#263238"/>
<path opacity="0.2" d="M213.119 98.7671H189.876C189.186 98.7671 188.627 99.3263 188.627 100.016V100.297C188.627 100.987 189.186 101.547 189.876 101.547H213.119C213.809 101.547 214.368 100.987 214.368 100.297V100.016C214.368 99.3263 213.809 98.7671 213.119 98.7671Z" fill="white"/>
<path d="M207.606 125.908H188.352C188.112 125.896 187.88 125.814 187.684 125.674C187.488 125.534 187.336 125.341 187.247 125.117L186.024 122.534H209.934L208.711 125.117C208.622 125.341 208.47 125.534 208.274 125.674C208.078 125.814 207.846 125.896 207.606 125.908Z" fill="#263238"/>
<path opacity="0.5" d="M207.606 125.908H188.352C188.112 125.896 187.88 125.814 187.684 125.674C187.488 125.534 187.336 125.341 187.247 125.117L186.024 122.534H209.934L208.711 125.117C208.622 125.341 208.47 125.534 208.274 125.674C208.078 125.814 207.846 125.896 207.606 125.908Z" fill="white"/>
<path d="M209.614 120.983H186.37C185.68 120.983 185.121 121.543 185.121 122.233V122.514C185.121 123.204 185.68 123.763 186.37 123.763H209.614C210.303 123.763 210.863 123.204 210.863 122.514V122.233C210.863 121.543 210.303 120.983 209.614 120.983Z" fill="#263238"/>
<path opacity="0.2" d="M209.614 120.983H186.37C185.68 120.983 185.121 121.543 185.121 122.233V122.514C185.121 123.204 185.68 123.763 186.37 123.763H209.614C210.303 123.763 210.863 123.204 210.863 122.514V122.233C210.863 121.543 210.303 120.983 209.614 120.983Z" fill="white"/>
<path d="M204.094 155.318H184.866C184.626 155.308 184.394 155.228 184.198 155.089C184.002 154.95 183.85 154.757 183.761 154.533L182.538 151.917H206.422L205.206 154.533C205.115 154.757 204.962 154.95 204.765 155.09C204.568 155.229 204.335 155.308 204.094 155.318Z" fill="#263238"/>
<path opacity="0.5" d="M204.094 155.318H184.866C184.626 155.308 184.394 155.228 184.198 155.089C184.002 154.95 183.85 154.757 183.761 154.533L182.538 151.917H206.422L205.206 154.533C205.115 154.757 204.962 154.95 204.765 155.09C204.568 155.229 204.335 155.308 204.094 155.318Z" fill="white"/>
<path d="M206.102 150.4H182.858C182.169 150.4 181.609 150.96 181.609 151.65V151.931C181.609 152.621 182.169 153.18 182.858 153.18H206.102C206.791 153.18 207.351 152.621 207.351 151.931V151.65C207.351 150.96 206.791 150.4 206.102 150.4Z" fill="#263238"/>
<path opacity="0.2" d="M206.102 150.4H182.858C182.169 150.4 181.609 150.96 181.609 151.65V151.931C181.609 152.621 182.169 153.18 182.858 153.18H206.102C206.791 153.18 207.351 152.621 207.351 151.931V151.65C207.351 150.96 206.791 150.4 206.102 150.4Z" fill="white"/>
<path d="M200.588 184.735H181.361C181.12 184.724 180.887 184.645 180.69 184.506C180.493 184.366 180.34 184.174 180.249 183.95L179.032 181.334H202.917L201.694 183.95C201.604 184.174 201.453 184.367 201.257 184.506C201.061 184.645 200.829 184.725 200.588 184.735Z" fill="#263238"/>
<path opacity="0.5" d="M200.588 184.735H181.361C181.12 184.724 180.887 184.645 180.69 184.506C180.493 184.366 180.34 184.174 180.249 183.95L179.032 181.334H202.917L201.694 183.95C201.604 184.174 201.453 184.367 201.257 184.506C201.061 184.645 200.829 184.725 200.588 184.735Z" fill="white"/>
<path d="M202.596 179.817H179.353C178.663 179.817 178.104 180.377 178.104 181.067V181.348C178.104 182.038 178.663 182.597 179.353 182.597H202.596C203.286 182.597 203.845 182.038 203.845 181.348V181.067C203.845 180.377 203.286 179.817 202.596 179.817Z" fill="#263238"/>
<path opacity="0.2" d="M202.596 179.817H179.353C178.663 179.817 178.104 180.377 178.104 181.067V181.348C178.104 182.038 178.663 182.597 179.353 182.597H202.596C203.286 182.597 203.845 182.038 203.845 181.348V181.067C203.845 180.377 203.286 179.817 202.596 179.817Z" fill="white"/>
<path d="M197.083 214.152H177.849C177.609 214.141 177.377 214.061 177.181 213.922C176.985 213.783 176.833 213.59 176.743 213.367L175.521 210.751H199.411L198.188 213.367C198.099 213.591 197.947 213.784 197.751 213.923C197.555 214.062 197.323 214.142 197.083 214.152Z" fill="#263238"/>
<path opacity="0.5" d="M197.083 214.152H177.849C177.609 214.141 177.377 214.061 177.181 213.922C176.985 213.783 176.833 213.59 176.743 213.367L175.521 210.751H199.411L198.188 213.367C198.099 213.591 197.947 213.784 197.751 213.923C197.555 214.062 197.323 214.142 197.083 214.152Z" fill="white"/>
<path d="M199.091 209.234H175.848C175.158 209.234 174.598 209.794 174.598 210.484V210.765C174.598 211.455 175.158 212.014 175.848 212.014H199.091C199.781 212.014 200.34 211.455 200.34 210.765V210.484C200.34 209.794 199.781 209.234 199.091 209.234Z" fill="#263238"/>
<path opacity="0.2" d="M199.091 209.234H175.848C175.158 209.234 174.598 209.794 174.598 210.484V210.765C174.598 211.455 175.158 212.014 175.848 212.014H199.091C199.781 212.014 200.34 211.455 200.34 210.765V210.484C200.34 209.794 199.781 209.234 199.091 209.234Z" fill="white"/>
<path d="M198.463 236.1H192.413L212.086 80.6445H218.135L198.463 236.1Z" fill="#263238"/>
<path opacity="0.7" d="M198.463 236.1H192.413L212.086 80.6445H218.135L198.463 236.1Z" fill="white"/>
<path d="M225.97 81.436H187.633C187.393 81.423 187.162 81.3424 186.966 81.2035C186.771 81.0646 186.618 80.8731 186.527 80.6512L185.304 78.0352H228.298L227.082 80.6512C226.986 80.8714 226.832 81.0611 226.636 81.1995C226.44 81.338 226.21 81.4198 225.97 81.436Z" fill="#263238"/>
<path opacity="0.5" d="M225.97 81.436H187.633C187.393 81.423 187.162 81.3424 186.966 81.2035C186.771 81.0646 186.618 80.8731 186.527 80.6512L185.304 78.0352H228.298L227.082 80.6512C226.986 80.8714 226.832 81.0611 226.636 81.1995C226.44 81.338 226.21 81.4198 225.97 81.436Z" fill="white"/>
<path d="M227.978 76.5181H185.631C184.941 76.5181 184.382 77.0773 184.382 77.7672V78.0484C184.382 78.7383 184.941 79.2976 185.631 79.2976H227.978C228.668 79.2976 229.227 78.7383 229.227 78.0484V77.7672C229.227 77.0773 228.668 76.5181 227.978 76.5181Z" fill="#263238"/>
<path opacity="0.2" d="M227.978 76.5181H185.631C184.941 76.5181 184.382 77.0773 184.382 77.7672V78.0484C184.382 78.7383 184.941 79.2976 185.631 79.2976H227.978C228.668 79.2976 229.227 78.7383 229.227 78.0484V77.7672C229.227 77.0773 228.668 76.5181 227.978 76.5181Z" fill="white"/>
<path d="M228.651 80.7888L223.622 77.2441L221.268 82.0772C221.268 82.0772 224.433 85.0464 227.664 83.5029L228.651 80.7888Z" fill="#EBB376"/>
<path d="M219.28 76.7012L218.39 80.7233L221.268 82.0771L223.622 77.244L219.28 76.7012Z" fill="#EBB376"/>
<path d="M263.032 69.6052C262.045 71.129 261.038 72.5874 259.985 74.0132C259.193 75.0661 258.382 76.1059 257.532 77.1262C257.277 77.4401 257.015 77.7475 256.754 78.0549C256.237 78.65 255.714 79.2452 255.165 79.8338C254.511 80.5662 253.772 81.2856 253.006 81.9919L252.568 82.3844C251.997 82.9126 251.397 83.4083 250.77 83.8689C249.837 84.5679 248.814 85.1377 247.729 85.5628C247.407 85.6878 247.077 85.7883 246.741 85.8636C246.421 85.9421 246.146 85.9814 245.852 86.0337C245.333 86.1043 244.812 86.148 244.289 86.1645C243.301 86.1972 242.379 86.1645 241.47 86.1187C239.665 86.0206 237.925 85.7786 236.205 85.5236C234.008 85.1769 231.849 84.7453 229.711 84.2156C228.92 84.0324 228.135 83.8297 227.35 83.6204L226.101 83.2738C225.703 83.1572 225.356 82.9084 225.118 82.5683C224.881 82.2283 224.766 81.8174 224.793 81.4034C224.802 81.2707 224.824 81.1393 224.858 81.011C224.952 80.6712 225.143 80.3662 225.408 80.1338C225.673 79.9013 226 79.7516 226.349 79.7029C226.46 79.69 226.572 79.69 226.683 79.7029H226.716H227.173C228.161 79.7357 229.135 79.7749 230.136 79.8011C232.34 79.8795 234.537 79.9384 236.676 79.9711C238.318 79.9711 239.946 79.9711 241.522 79.9188C242.307 79.8861 243.072 79.8207 243.765 79.7226C244.285 79.686 244.793 79.5599 245.27 79.3498C245.724 79.0887 246.15 78.7795 246.538 78.4277C246.931 78.0876 247.343 77.7083 247.748 77.2962C247.866 77.1851 247.977 77.0673 248.088 76.9496C248.317 76.7142 248.54 76.4656 248.742 76.2171C249.305 75.6024 249.848 74.9615 250.39 74.3009C250.632 74.0001 250.881 73.6992 251.123 73.3919C252.3 71.9073 253.471 70.3442 254.602 68.7681C255.374 67.702 256.133 66.623 256.865 65.5635L256.904 65.4981C257.269 64.9651 257.77 64.5404 258.356 64.2686L261.096 64.3863L261.809 64.4255C261.884 64.4665 261.956 64.5124 262.025 64.5629C262.816 65.1069 263.364 65.938 263.552 66.8796C263.74 67.8212 263.554 68.7989 263.032 69.6052Z" fill="#FFB573"/>
<path d="M261.325 73.9478C260.09 75.7319 258.705 77.4078 257.186 78.9575C256.78 79.376 256.348 79.8077 255.878 80.2655L255.145 79.8535L248.729 76.2434L248.134 75.9098C248.134 75.9098 248.553 75.2558 249.174 74.3468C249.952 73.1696 251.058 71.4888 252.084 69.9061C252.882 68.6635 253.628 67.4798 254.118 66.6361C254.663 65.7015 255.383 64.88 256.237 64.2163L258.343 64.2882L261.083 64.406L261.796 64.4452L263.621 64.5368C264.465 66.4857 264.281 69.5791 261.325 73.9478Z" fill="#407BFF"/>
<path opacity="0.7" d="M261.325 73.9478C260.09 75.7319 258.705 77.4078 257.186 78.9575C256.78 79.376 256.348 79.8077 255.878 80.2655L255.145 79.8535L248.729 76.2434L248.134 75.9098C248.134 75.9098 248.553 75.2558 249.174 74.3468C249.952 73.1696 251.058 71.4888 252.084 69.9061C252.882 68.6635 253.628 67.4798 254.118 66.6361C254.663 65.7015 255.383 64.88 256.237 64.2163L258.343 64.2882L261.083 64.406L261.796 64.4452L263.621 64.5368C264.465 66.4857 264.281 69.5791 261.325 73.9478Z" fill="white"/>
<path d="M165.684 235.989C165.687 236.026 165.687 236.064 165.684 236.101C165.687 236.118 165.687 236.136 165.684 236.153C165.676 236.187 165.665 236.219 165.652 236.251C165.633 236.295 165.608 236.337 165.58 236.375C165.551 236.422 165.518 236.466 165.482 236.506C165.173 236.807 164.808 237.044 164.409 237.206L164.089 237.343C163.775 237.474 163.435 237.598 163.023 237.723C162.774 237.801 162.512 237.873 162.231 237.951C157.653 239.187 148.857 240.182 137.798 240.731L136.49 240.796L134.345 240.888L132.141 240.966L130.617 241.019C129.407 241.051 128.184 241.084 126.941 241.104H126.49H125.646H124.829C123.684 241.104 122.527 241.104 121.363 241.143H118.204C114.385 241.143 110.663 241.097 107.086 240.999L105.503 240.947C105.045 240.947 104.588 240.947 104.136 240.908L102.031 240.836L99.2902 240.718L98.5774 240.679L96.7527 240.587C93.7509 240.417 90.9321 240.221 88.3423 239.985C82.1424 239.436 77.2243 238.723 74.1832 237.899L73.9216 237.827L73.6338 237.742C73.1433 237.598 72.7182 237.448 72.3258 237.304C72.1885 237.245 72.0577 237.193 71.94 237.134C71.7445 237.043 71.5546 236.94 71.371 236.827C71.3085 236.79 71.2494 236.749 71.1944 236.702L71.0505 236.591L70.9132 236.454C70.8765 236.416 70.8437 236.374 70.8151 236.33C70.7669 236.26 70.7315 236.183 70.7104 236.101V236.029C70.7072 235.998 70.7072 235.968 70.7104 235.937C70.7104 233.805 82.3713 231.974 99.0744 231.169L100.415 231.104L102.22 231.032L104.993 230.934L106.491 230.888L110.009 230.803H110.199H111.213H111.899C112.933 230.803 113.973 230.803 115.025 230.771H115.339C116.288 230.771 117.243 230.771 118.204 230.771C122.076 230.771 125.836 230.823 129.44 230.914L132.056 230.999L133.167 231.039H133.279L134.495 231.084L135.293 231.117L137.36 231.209L139.322 231.307C143.062 231.51 146.516 231.765 149.629 232.065C159.465 233.04 165.684 234.433 165.684 235.989Z" fill="#263238"/>
<path opacity="0.4" d="M70.6974 235.989C70.6974 233.857 82.3582 232.026 99.0614 231.222L100.402 231.156L102.207 231.084C104.712 230.986 107.315 230.914 109.996 230.855H111.2H111.886C113.946 230.823 116.052 230.81 118.191 230.81C122.063 230.81 125.823 230.862 129.427 230.953L132.043 231.038C138.615 231.254 144.58 231.627 149.602 232.111C159.458 233.066 165.678 234.459 165.678 236.035C165.678 236.728 164.442 237.395 162.199 237.997C158.055 237.026 153.845 236.37 149.602 236.035C144.58 235.551 138.615 235.178 132.043 234.962L129.427 234.877C125.823 234.786 122.063 234.734 118.191 234.734C116.052 234.734 113.946 234.734 111.886 234.779H111.18H109.977C107.295 234.838 104.692 234.91 102.187 235.008L100.382 235.08L99.0418 235.146C87.7733 235.688 78.807 236.696 74.1898 237.951C71.94 237.343 70.6974 236.689 70.6974 235.989Z" fill="white"/>
<path d="M114.195 233.576C113.835 234.007 113.502 234.38 113.168 234.74C112.998 234.917 112.835 235.093 112.658 235.27C112.344 235.59 112.037 235.924 111.716 236.211C111.507 236.421 111.291 236.623 111.062 236.826C109.954 237.851 108.781 238.804 107.55 239.678L107.341 239.822C107.158 239.952 106.968 240.077 106.772 240.207C106.36 240.482 105.935 240.75 105.464 240.999C105.006 240.999 104.548 240.999 104.097 240.96L101.991 240.888L99.2511 240.77L98.5382 240.731L96.7135 240.639C93.7117 240.469 90.8929 240.273 88.3031 240.037L89.3233 239.71C91.9393 238.86 94.5553 238.062 97.1059 237.225C97.7599 237.009 98.3682 236.8 98.9502 236.571C99.4517 236.405 99.9341 236.186 100.389 235.917C100.677 235.747 100.978 235.557 101.278 235.355C101.435 235.25 101.599 235.139 101.762 235.015C102.233 234.681 102.704 234.308 103.169 233.922C104.11 233.151 105.032 232.301 105.948 231.418L106.439 230.934C106.733 230.652 107.021 230.371 107.302 230.077L108.61 228.769L108.688 228.684C109.083 228.274 109.566 227.96 110.102 227.767C110.637 227.575 111.21 227.508 111.775 227.572C112.6 227.666 113.368 228.038 113.954 228.626C114.54 229.215 114.908 229.984 114.999 230.809C115.057 231.301 115.016 231.799 114.877 232.274C114.739 232.749 114.507 233.192 114.195 233.576Z" fill="#FFB573"/>
<path d="M112.73 226.068C109.081 225.983 100.958 235.054 100.958 235.054L107.662 240.992C107.662 240.992 113.646 238.376 115.111 234.093C116.576 229.809 112.73 226.068 112.73 226.068Z" fill="#407BFF"/>
<path opacity="0.7" d="M115.104 234.093C114.409 235.83 113.248 237.341 111.749 238.461C110.49 239.468 109.113 240.318 107.648 240.992L105.85 239.396L100.945 235.054C100.945 235.054 109.061 225.983 112.717 226.068C112.73 226.068 116.589 229.783 115.104 234.093Z" fill="white"/>
<path opacity="0.1" d="M111.769 238.461C110.509 239.468 109.132 240.318 107.668 240.992L105.87 239.397C106.825 236.601 108.533 234.122 110.807 232.235C111.605 233.726 111.867 236.898 111.769 238.461Z" fill="black"/>
<path d="M137.935 229.894C137.896 229.979 137.857 230.058 137.824 230.143C137.719 230.371 137.621 230.6 137.523 230.836C137.464 230.957 137.412 231.082 137.366 231.209C137.353 231.234 137.342 231.26 137.333 231.287C137.285 231.384 137.244 231.485 137.209 231.588C137.098 231.85 136.993 232.118 136.889 232.392C136.784 232.667 136.634 233.079 136.509 233.426C136.509 233.426 136.509 233.458 136.509 233.471C136.418 233.72 136.333 233.968 136.248 234.224C136.163 234.479 136.071 234.734 135.993 234.989C135.99 235.015 135.99 235.041 135.993 235.067C135.914 235.303 135.836 235.538 135.764 235.774C135.613 236.271 135.463 236.768 135.319 237.278L135.28 237.415C134.966 238.527 134.672 239.658 134.397 240.796C134.394 240.82 134.394 240.844 134.397 240.868L132.193 240.947L130.669 240.999C129.459 241.032 128.236 241.064 126.994 241.084H126.542H125.699H124.881C123.737 241.084 122.579 241.084 121.415 241.123H118.256C114.437 241.123 110.716 241.077 107.138 240.979L107.236 240.495C107.236 240.391 107.282 240.293 107.308 240.195C107.335 240.096 107.348 239.998 107.374 239.9C107.387 239.853 107.398 239.805 107.406 239.756C107.699 238.448 108.004 237.256 108.322 236.179C108.44 235.8 108.544 235.44 108.656 235.08C108.695 234.969 108.728 234.858 108.767 234.747C108.852 234.479 108.937 234.224 109.022 233.975L109.159 233.576C109.231 233.373 109.303 233.171 109.375 232.981C109.447 232.791 109.538 232.53 109.617 232.327L109.833 231.778L110.225 230.829C110.526 230.11 110.82 229.482 111.095 228.926C111.147 228.835 111.193 228.736 111.239 228.645L111.514 228.115L111.834 227.533C111.854 227.504 111.871 227.473 111.886 227.442C111.998 227.239 112.109 227.056 112.207 226.899L112.462 226.493L112.769 226.049C114.71 225.863 116.661 225.8 118.609 225.859C119.021 225.859 119.44 225.892 119.865 225.918C120.29 225.944 120.676 225.983 121.121 226.035C122.056 226.14 123.083 226.284 124.175 226.461L126.229 226.814C126.915 226.938 127.595 227.062 128.249 227.193L128.596 227.265C129.113 227.363 129.616 227.468 130.081 227.566C130.401 227.631 130.735 227.703 131.035 227.782C131.199 227.821 131.356 227.854 131.513 227.899L131.99 228.017C132.585 228.167 133.174 228.331 133.73 228.488L134.273 228.651L135.286 228.965L136.176 229.253C137.19 229.587 137.863 229.835 137.961 229.868L137.935 229.894Z" fill="#407BFF"/>
<path opacity="0.7" d="M137.942 229.894C137.902 229.979 137.863 230.058 137.83 230.143C137.726 230.371 137.621 230.6 137.53 230.836C137.469 230.958 137.416 231.082 137.373 231.209C137.37 231.235 137.37 231.261 137.373 231.287C137.325 231.384 137.283 231.485 137.248 231.588C137.137 231.85 137.033 232.118 136.928 232.392C136.823 232.667 136.666 233.079 136.549 233.426C136.549 233.426 136.549 233.458 136.549 233.471C136.457 233.72 136.372 233.968 136.287 234.224C136.202 234.479 136.11 234.734 136.032 234.989V235.034C135.953 235.27 135.875 235.505 135.803 235.741C135.653 236.238 135.502 236.735 135.358 237.245L135.319 237.382C135.005 238.494 134.711 239.626 134.436 240.764C134.433 240.787 134.433 240.812 134.436 240.835L132.232 240.914L130.708 240.966C129.499 240.999 128.276 241.032 127.033 241.051H126.582H125.738H124.921C123.776 241.051 122.618 241.051 121.454 241.091H118.295C114.476 241.091 110.755 241.045 107.177 240.947L107.276 240.469C107.321 240.26 107.361 240.064 107.406 239.868C107.42 239.82 107.431 239.772 107.439 239.724C107.731 238.416 108.036 237.223 108.355 236.146C108.472 235.767 108.577 235.407 108.688 235.048C108.727 234.936 108.76 234.825 108.799 234.714C108.884 234.446 108.969 234.191 109.054 233.942L109.192 233.543C109.264 233.341 109.336 233.138 109.408 232.948C109.48 232.759 109.571 232.497 109.65 232.294L109.865 231.745L110.258 230.797C110.559 230.077 110.853 229.449 111.121 228.893C111.173 228.802 111.219 228.704 111.265 228.612L111.54 228.082L111.86 227.5C111.88 227.471 111.897 227.441 111.912 227.409L112.233 226.866L112.488 226.461L112.795 226.016C114.736 225.83 116.687 225.767 118.636 225.826C119.048 225.826 119.466 225.859 119.891 225.885C120.316 225.911 120.702 225.95 121.147 226.003C122.082 226.107 123.109 226.251 124.201 226.428L126.255 226.781C126.941 226.905 127.622 227.03 128.276 227.16L128.622 227.232C129.139 227.33 129.642 227.435 130.107 227.533C130.427 227.599 130.761 227.67 131.062 227.749C131.225 227.788 131.382 227.821 131.539 227.867L132.016 227.978C132.612 228.128 133.2 228.292 133.756 228.455L134.299 228.619L135.313 228.933L136.202 229.22C137.216 229.554 137.889 229.802 137.987 229.835L137.942 229.894Z" fill="white"/>
<path d="M126.111 218.076C126.111 218.076 126.314 225.035 126.974 226.068C127.635 227.101 130.022 227.579 130.022 227.579C130.022 227.579 124.286 230.43 121.605 229.894C118.923 229.358 117.635 225.859 117.635 225.859C117.635 225.859 119.505 225.931 119.963 225.676C120.421 225.421 119.604 220.81 119.604 220.81L126.111 218.076Z" fill="#EBB376"/>
<path opacity="0.2" d="M120.153 222.543L119.917 222.877C119.774 221.797 119.604 220.81 119.604 220.81L126.104 218.076C126.104 218.076 126.274 223.681 126.758 225.578C124.129 225.852 121.055 223.903 120.153 222.543Z" fill="black"/>
<path d="M123.887 206.389C125.666 207.318 128.21 210.313 125.424 211.314C122.638 212.314 120.833 204.8 123.887 206.389Z" fill="#263238"/>
<path d="M115.98 217.965C117.345 219.631 118.832 221.194 120.428 222.641C121.575 223.613 122.983 224.225 124.476 224.4C129.708 225.054 133.096 219.482 130.983 214.885C130.739 214.358 130.466 213.845 130.166 213.348C127.87 209.568 123.456 205.598 119.087 206.893C117.986 207.219 116.985 207.82 116.179 208.638C115.373 209.456 114.788 210.466 114.478 211.571C114.167 212.677 114.142 213.844 114.405 214.962C114.668 216.08 115.21 217.113 115.98 217.965Z" fill="#EBB376"/>
<path d="M118.132 217.651L118.374 218.436C118.834 219.946 119.536 221.37 120.454 222.654C121.601 223.626 123.009 224.238 124.502 224.413C129.734 225.067 133.122 219.495 131.009 214.898C130.765 214.371 130.492 213.858 130.192 213.361C130.192 213.361 130.584 215.205 130.244 216.062C130.244 216.062 128.282 215.558 127.314 216.363C127.314 216.363 125.235 215.794 123.469 217.998C122.662 218.525 121.705 218.777 120.743 218.715C119.78 218.652 118.864 218.279 118.132 217.651Z" fill="#263238"/>
<path opacity="0.5" d="M118.132 217.651L118.374 218.436C118.834 219.946 119.536 221.37 120.454 222.654C121.601 223.626 123.009 224.238 124.502 224.413C129.734 225.067 133.122 219.495 131.009 214.898C130.765 214.371 130.492 213.858 130.192 213.361C130.192 213.361 130.584 215.205 130.244 216.062C130.244 216.062 128.282 215.558 127.314 216.363C127.314 216.363 125.235 215.794 123.469 217.998C122.662 218.525 121.705 218.777 120.743 218.715C119.78 218.652 118.864 218.279 118.132 217.651Z" fill="white"/>
<path d="M110.526 215.519C108.152 213.524 110.402 210.64 112.887 209.633C113.155 209.527 113.384 209.339 113.541 209.097L116.49 213.629C116.222 213.753 115.954 213.877 115.699 213.976C115.699 213.976 119.146 217.023 118.812 220.058C113.999 221.418 109.355 218.939 110.526 215.519Z" fill="#263238"/>
<path d="M117.02 222.36C117.525 222.703 118.094 222.942 118.692 223.062C119.291 223.182 119.908 223.181 120.506 223.06C120.622 223.038 120.735 223.007 120.846 222.968C121.84 222.033 118.884 218.743 118.747 218.573C118.431 218.477 118.097 218.45 117.77 218.496C117.442 218.541 117.129 218.656 116.85 218.835C116.569 219.042 116.343 219.315 116.193 219.631C116.043 219.946 115.974 220.294 115.99 220.643C116.007 220.992 116.11 221.331 116.29 221.631C116.469 221.93 116.72 222.181 117.02 222.36Z" fill="#EBB376"/>
<path d="M122.664 214.381C122.906 214.695 123.272 214.819 123.482 214.656C123.691 214.492 123.652 214.1 123.403 213.786C123.155 213.472 122.789 213.348 122.586 213.511C122.383 213.675 122.416 214.067 122.664 214.381Z" fill="#263238"/>
<path d="M126.222 211.549C126.464 211.863 126.83 211.988 127.04 211.824C127.249 211.661 127.21 211.275 126.961 210.954C126.713 210.634 126.346 210.516 126.144 210.686C125.941 210.856 125.954 211.242 126.222 211.549Z" fill="#263238"/>
<path d="M125.195 212.609C126.312 213.231 127.509 213.695 128.753 213.989C128.596 214.918 127.445 215.434 127.445 215.434L125.195 212.609Z" fill="#D58745"/>
<path d="M121.258 211.948C121.222 211.967 121.191 211.997 121.17 212.033C121.15 212.068 121.139 212.109 121.14 212.151C121.146 212.447 121.081 212.741 120.951 213.008C120.822 213.275 120.631 213.508 120.395 213.688C120.344 213.723 120.309 213.777 120.296 213.837C120.282 213.898 120.292 213.961 120.323 214.015C120.34 214.041 120.361 214.064 120.387 214.082C120.412 214.1 120.441 214.112 120.471 214.119C120.502 214.126 120.533 214.126 120.564 214.121C120.595 214.115 120.624 214.104 120.65 214.087C120.955 213.86 121.201 213.564 121.367 213.222C121.533 212.881 121.615 212.504 121.605 212.125C121.605 212.063 121.581 212.004 121.538 211.96C121.495 211.916 121.437 211.891 121.376 211.889C121.332 211.897 121.291 211.917 121.258 211.948Z" fill="#263238"/>
<path d="M126.778 208.992C126.815 208.965 126.843 208.926 126.856 208.881C126.878 208.823 126.875 208.759 126.849 208.703C126.824 208.646 126.777 208.602 126.719 208.58C126.372 208.445 125.997 208.396 125.626 208.439C125.256 208.481 124.902 208.612 124.594 208.822C124.553 208.862 124.528 208.916 124.524 208.973C124.519 209.03 124.536 209.087 124.57 209.132C124.605 209.178 124.655 209.209 124.711 209.221C124.767 209.233 124.825 209.223 124.875 209.195C125.121 209.032 125.404 208.932 125.697 208.902C125.991 208.872 126.288 208.915 126.562 209.025C126.598 209.038 126.636 209.042 126.674 209.036C126.712 209.03 126.748 209.015 126.778 208.992Z" fill="#263238"/>
<path d="M127.425 219.744C127.553 219.695 127.678 219.639 127.798 219.574L128.119 216.997C128.119 216.997 127.962 216.997 127.72 216.997C126.909 216.997 125.104 217.18 124.62 218.109C124.567 218.215 124.525 218.327 124.495 218.442C124.373 218.858 124.403 219.303 124.58 219.698C124.875 220.247 125.66 220.535 127.425 219.744Z" fill="#263238"/>
<path d="M124.495 218.436L127.641 217.298L127.72 216.991C126.909 216.991 125.104 217.174 124.62 218.103C124.567 218.209 124.525 218.321 124.495 218.436Z" fill="white"/>
<path d="M127.425 219.744C126.876 218.828 125.411 219.299 124.58 219.705C124.875 220.247 125.66 220.535 127.425 219.744Z" fill="#DE5753"/>
<path d="M110.526 215.519C109.558 214.773 108.145 212.766 110.042 210.673C111.939 208.58 114.182 207.547 113.122 206.029C112.063 204.512 113.94 203.224 115.261 204.211C115.261 204.211 118.367 199.13 120.578 203.034C120.578 203.034 122.743 201.543 124.07 203.145C125.398 204.748 125.673 206.461 123.926 207.069C122.18 207.678 122.017 207.867 122.318 208.881C122.618 209.895 121.101 210.732 121.101 210.732C121.101 210.732 122.043 210.13 121.507 209.424C121.412 209.871 121.189 210.282 120.865 210.604C120.541 210.927 120.13 211.149 119.682 211.242C117.988 211.772 118.773 213.42 118.773 213.42C118.773 213.42 117.864 213.773 117.668 212.478C117.668 212.478 116.961 215.369 115.052 216.088C113.142 216.807 111.965 216.637 110.526 215.519Z" fill="#263238"/>
<path opacity="0.1" d="M135.228 237.435C134.914 238.547 134.619 239.678 134.345 240.816C134.342 240.84 134.342 240.864 134.345 240.888L132.141 240.966L130.617 241.019C129.407 241.051 128.184 241.084 126.941 241.104H126.49H125.646H124.829C125.622 239.613 126.74 238.319 128.099 237.317C128.341 237.133 128.594 236.965 128.858 236.813C129.402 236.515 129.992 236.309 130.604 236.205C132.246 235.996 133.906 236.437 135.228 237.435Z" fill="black"/>
<path d="M139.616 235.27C139.583 235.91 139.382 236.53 139.034 237.068C138.203 238.376 137.36 239.593 136.477 240.796L134.332 240.888L132.128 240.966L130.604 241.018C129.394 241.051 128.171 241.084 126.928 241.103C127 241.025 127.059 240.946 127.125 240.868C128.302 239.383 129.472 237.82 130.604 236.244C130.924 235.806 131.258 235.361 131.546 234.936C131.997 234.282 132.428 233.68 132.854 233.059L132.899 232.994C133.364 232.323 134.037 231.825 134.815 231.577C135.592 231.33 136.43 231.347 137.196 231.627C137.491 231.734 137.77 231.879 138.027 232.059C138.544 232.414 138.961 232.895 139.239 233.457C139.517 234.019 139.647 234.643 139.616 235.27Z" fill="#FFB573"/>
<path d="M139.989 235.289C139.64 237.239 138.884 239.093 137.772 240.731L136.464 240.796L134.319 240.888L132.115 240.966L130.591 241.019C129.381 241.051 128.158 241.084 126.915 241.104H126.464H125.62C126.346 240.005 127.242 238.631 128.086 237.33C128.661 236.427 129.211 235.564 129.656 234.832L130.12 234.066C130.849 232.806 131.895 231.758 133.154 231.025C134.6 230.205 136.249 229.81 137.909 229.887C138.467 230.25 138.936 230.732 139.282 231.3C139.986 232.503 140.236 233.918 139.989 235.289Z" fill="#407BFF"/>
<path opacity="0.7" d="M139.989 235.289C139.64 237.239 138.884 239.093 137.772 240.731L136.464 240.796L134.319 240.888L132.115 240.966L130.591 241.019C129.381 241.051 128.158 241.084 126.915 241.104H126.464H125.62C126.346 240.005 127.242 238.631 128.086 237.33C128.661 236.427 129.211 235.564 129.656 234.832L130.12 234.066C130.849 232.806 131.895 231.758 133.154 231.025C134.6 230.205 136.249 229.81 137.909 229.887C138.467 230.25 138.936 230.732 139.282 231.3C139.986 232.503 140.236 233.918 139.989 235.289Z" fill="white"/>
</svg>
