<svg width="16" height="18" viewBox="0 0 16 18" fill="none" xmlns="http://www.w3.org/2000/svg">
<path d="M7.62936 15.7848C7.05773 15.3261 1.74951 10.164 1.69018 10.1076C1.45574 9.87314 1.30812 9.63002 1.2676 9.40715C1.22563 9.17561 1.29655 8.973 1.48468 8.78487C1.65979 8.60976 1.87397 8.51714 2.10407 8.51714C2.38482 8.51714 2.67281 8.65028 2.91304 8.89196L5.31968 11.2045C5.36165 11.2451 5.41664 11.2653 5.47019 11.2653C5.52663 11.2653 5.58162 11.2436 5.62359 11.2016C5.70752 11.1177 5.70752 10.9817 5.62503 10.8977L1.7828 6.9296C1.39785 6.54465 1.21695 5.95565 1.67426 5.49834C1.84937 5.32324 2.06355 5.23062 2.29365 5.23062C2.5744 5.23062 2.86238 5.36376 3.10262 5.60544L7.03313 9.43754C7.0751 9.47806 7.13009 9.49977 7.18508 9.49977C7.24008 9.49977 7.29652 9.47806 7.33848 9.4361C7.42242 9.35216 7.42387 9.21613 7.33993 9.13074L2.61926 4.2914C2.40074 4.07288 2.26904 3.81094 2.24589 3.55624C2.22418 3.2972 2.31535 3.05697 2.51072 2.8616C2.68583 2.68649 2.90001 2.59387 3.13011 2.59387C3.41086 2.59387 3.69885 2.72701 3.93908 2.96724L8.75382 7.66187C8.79578 7.70239 8.85078 7.72409 8.90577 7.72409C8.96076 7.72409 9.0172 7.70239 9.05917 7.66042C9.14311 7.57648 9.14455 7.44045 9.06062 7.35506L5.56425 3.76174C5.34428 3.54177 5.21259 3.28128 5.19088 3.02658C5.16918 2.76753 5.26035 2.5273 5.45571 2.33194C5.63082 2.15683 5.845 2.06421 6.0751 2.06421C6.35585 2.06421 6.64384 2.19735 6.88407 2.43903C8.16627 3.69806 11.5136 6.99038 11.6265 7.11194C12.0563 7.40861 12.1431 6.95999 12.1648 6.66911C12.1894 6.33047 11.8016 5.14813 12.0273 4.08446C12.4065 2.67057 13.4991 2.90212 13.5237 2.9137C14.1228 3.19445 14.0085 3.61413 13.7958 4.45783L13.7741 4.62425C13.5512 5.727 15.0823 8.99471 15.1952 9.23928C15.7957 10.5533 16.4875 13.2176 14.1966 15.5084C11.6858 18.0193 8.57726 16.7327 7.62936 15.7848Z" fill="url(#paint0_radial_101_1024)"/>
<path d="M10.8508 17.1944C9.311 17.1944 8.00131 16.4578 7.48467 15.947C7.02013 15.5678 4.08816 12.7371 1.70033 10.4202C1.60337 10.3261 1.54693 10.2726 1.54114 10.2654C1.27052 9.99474 1.10265 9.71254 1.0549 9.44626C0.999903 9.1438 1.09397 8.87029 1.3313 8.6315C1.54838 8.41443 1.81466 8.3001 2.10409 8.3001C2.44418 8.3001 2.78571 8.4564 3.06646 8.73859L5.47021 11.0483L1.62653 7.08014C1.18369 6.6373 0.960829 5.90359 1.52088 5.34498C1.73796 5.1279 2.00424 5.01358 2.29367 5.01358C2.63376 5.01358 2.97529 5.16987 3.25604 5.45207L7.18366 9.28128L2.46444 4.44339C2.21263 4.19158 2.05778 3.88334 2.03029 3.57654C2.00279 3.24948 2.11567 2.94991 2.35735 2.70823C2.57442 2.49116 2.8407 2.37683 3.13014 2.37683C3.46878 2.37683 3.81031 2.53168 4.09251 2.81388L8.9058 7.50705L5.40943 3.91373C5.15618 3.66047 5.00133 3.35223 4.97528 3.04543C4.94778 2.71981 5.06066 2.42025 5.30234 2.17857C5.51942 1.96149 5.7857 1.84717 6.07513 1.84717C6.41522 1.84717 6.75675 2.00346 7.0375 2.28566L8.08091 3.30881C9.94052 5.13225 11.4948 6.65901 11.6612 6.82978C11.7422 6.8949 11.8479 6.9195 11.8928 6.89779C11.9217 6.88332 11.9535 6.81675 11.9477 6.67638C11.9391 6.43036 11.9043 6.125 11.8682 5.80229C11.7958 5.15395 11.7205 4.48247 11.8146 4.03963C12.0201 3.27118 12.4239 2.94557 12.7249 2.80519C13.1388 2.61417 13.5396 2.68074 13.6163 2.71692C14.3689 3.07003 14.2198 3.66047 14.0143 4.47957L14.01 4.49983L13.9868 4.66915C13.8363 5.4101 14.6091 7.45785 15.3819 9.12644L15.3935 9.14959C15.9101 10.2784 16.8406 13.1742 14.3515 15.6633C13.2068 16.8051 11.968 17.1944 10.8508 17.1944ZM2.10409 8.73425C1.93333 8.73425 1.77124 8.80516 1.6381 8.9383C1.50062 9.07579 1.45287 9.20892 1.48181 9.36811C1.51365 9.54322 1.64245 9.75161 1.8436 9.95422C1.84505 9.95567 1.90294 10.0121 2.00279 10.1076C5.39207 13.397 7.43837 15.3522 7.76543 15.6155L7.78279 15.6315C8.58163 16.4303 11.5498 17.8485 14.0433 15.3551C16.3399 13.0584 15.476 10.3768 14.9969 9.32904L14.9868 9.30733C14.489 8.23353 13.3573 5.62863 13.5584 4.58956L13.5917 4.37248C13.8146 3.48681 13.8276 3.30157 13.4499 3.11923C13.3385 3.09897 12.5396 3.00201 12.2343 4.14093C12.1576 4.50417 12.2314 5.16842 12.2965 5.75453C12.3341 6.08593 12.3689 6.39997 12.3776 6.6619C12.392 7.07435 12.1967 7.23209 12.078 7.28998C11.8363 7.4072 11.5483 7.30734 11.3689 7.15684L11.3501 7.13947C11.2618 7.04396 9.16195 4.98463 7.77266 3.6214L6.7278 2.59536C6.3718 2.2379 5.91305 2.17857 5.6048 2.48682C5.45429 2.63732 5.38628 2.81388 5.4022 3.00925C5.41956 3.2133 5.52955 3.42603 5.71334 3.60982L9.21694 7.20315C9.38192 7.37102 9.38192 7.64598 9.21404 7.81385C9.05341 7.97449 8.76976 7.97738 8.60478 7.81819L3.78715 3.12213C3.43115 2.76612 2.97095 2.70679 2.66415 3.01503C2.51364 3.16554 2.44563 3.3421 2.46155 3.53746C2.48036 3.74151 2.59034 3.9557 2.77269 4.13659L7.4948 8.97882C7.66123 9.1467 7.65978 9.42166 7.49191 9.58953C7.33127 9.75017 7.04763 9.75306 6.88265 9.59387L2.95069 5.76032C2.59468 5.40142 2.13448 5.34353 1.82768 5.65178C1.45287 6.0266 1.65258 6.49114 1.93622 6.77623L5.78135 10.7473C5.94633 10.9151 5.94488 11.1887 5.77701 11.3551C5.61493 11.5172 5.33418 11.5186 5.1692 11.3609L2.76256 9.04829C2.55995 8.84424 2.32696 8.73425 2.10409 8.73425Z" fill="#91674D"/>
<path d="M11.2805 6.97144C10.486 8.59371 10.5888 10.8643 11.7813 12.6863C11.9159 12.9323 12.146 12.8122 12.0287 12.559C10.5888 9.47794 12.0982 7.25798 12.0982 7.25798L11.2805 6.97144Z" fill="#91674D"/>
<path d="M8.15617 0.887486C8.59322 0.77316 9.05921 0.78329 9.51217 0.888933C9.96224 0.997471 10.4123 1.22612 10.7466 1.59949C11.0737 1.96997 11.2748 2.42004 11.3428 2.89182C11.4065 3.35925 11.3472 3.84116 11.1258 4.24058C11.0997 3.79196 11.0216 3.37951 10.8899 2.99891C10.8219 2.80933 10.7423 2.62843 10.6453 2.45767C10.5498 2.28835 10.4369 2.12048 10.3168 1.98299C10.0722 1.7008 9.74083 1.48083 9.3689 1.31006C8.99553 1.13351 8.58888 1.00326 8.15617 0.887486Z" fill="#B0BEC5"/>
<path d="M8.27626 2.25943C8.51794 2.10603 8.8204 2.07419 9.10549 2.12484C9.39348 2.17549 9.66844 2.31876 9.88551 2.51703C10.1011 2.71818 10.2545 2.97144 10.3501 3.23482C10.3964 3.36651 10.4195 3.50544 10.4412 3.64003C10.4485 3.77896 10.4485 3.91789 10.4268 4.05682C10.3269 3.95117 10.2488 3.84553 10.1749 3.74278C10.0896 3.64582 10.023 3.54307 9.9463 3.449C9.79579 3.26232 9.64963 3.093 9.49188 2.94249C9.3298 2.79633 9.15904 2.66753 8.96077 2.5561C8.76396 2.44177 8.54254 2.34626 8.27626 2.25943Z" fill="#90A4AE"/>
<path d="M0.00276598 11.4287C0.206817 11.8281 0.419551 12.1986 0.667017 12.5257C0.913036 12.8527 1.19523 13.1306 1.52374 13.3115C1.68293 13.3998 1.87251 13.4765 2.05775 13.5343C2.24443 13.5937 2.43835 13.6342 2.63806 13.6617C3.03748 13.7109 3.45716 13.7022 3.90144 13.6342C3.55702 13.9338 3.09682 14.093 2.62793 14.1277C2.15326 14.1595 1.67135 14.0568 1.2401 13.8136C0.805946 13.5662 0.487568 13.1726 0.287859 12.7543C0.0881491 12.3332 -0.0189416 11.8802 0.00276598 11.4287Z" fill="#B0BEC5"/>
<path d="M1.37036 11.2595C1.51074 11.5026 1.64967 11.698 1.80162 11.8688C1.95212 12.0395 2.11421 12.1799 2.29076 12.3073C2.47021 12.4303 2.66703 12.5388 2.88121 12.6474C2.9883 12.7024 3.10262 12.7458 3.2155 12.8094C3.33272 12.8601 3.45139 12.9136 3.57585 12.9903C3.44416 13.0395 3.30957 13.0685 3.17209 13.0902C3.03605 13.096 2.89568 13.1032 2.75675 13.0844C2.47889 13.0468 2.20104 12.9498 1.95791 12.7805C1.71913 12.6083 1.52087 12.3695 1.41233 12.0989C1.30234 11.8297 1.27051 11.5287 1.37036 11.2595Z" fill="#90A4AE"/>
<defs>
<radialGradient id="paint0_radial_101_1024" cx="0" cy="0" r="1" gradientUnits="userSpaceOnUse" gradientTransform="translate(5.3886 5.73566) rotate(-45) scale(13.1703)">
<stop offset="0.3533" stop-color="#BA8D68"/>
<stop offset="0.8723" stop-color="#A47B62"/>
</radialGradient>
</defs>
</svg>
