<svg width="16" height="16" viewBox="0 0 16 16" fill="none" xmlns="http://www.w3.org/2000/svg">
<path d="M8 5.16659V8.66658M14.0533 5.71992V10.2799C14.0533 11.0266 13.6533 11.7199 13.0067 12.0999L9.04666 14.3866C8.4 14.7599 7.6 14.7599 6.94666 14.3866L2.98666 12.0999C2.66785 11.9151 2.40329 11.6496 2.21956 11.3301C2.03584 11.0106 1.93942 10.6484 1.94 10.2799V5.71992C1.94 4.97325 2.34 4.27992 2.98666 3.89992L6.94666 1.61325C7.59333 1.23992 8.39333 1.23992 9.04666 1.61325L13.0067 3.89992C13.6533 4.27992 14.0533 4.96659 14.0533 5.71992Z" stroke="#960505" stroke-linecap="round" stroke-linejoin="round"/>
<path d="M8 10.8V10.8667" stroke="#960505" stroke-width="1.33333" stroke-linecap="round" stroke-linejoin="round"/>
</svg>
